STARTFONT 2.1
COMMENT "Generated by fontforge, http://fontforge.sourceforge.net"
FONT 10x21
SIZE 21 75 75
FONTBOUNDINGBOX 10 21 0 -5
STARTPROPERTIES 10
FOUNDRY "ibm"
FAMILY_NAME "vio"
PIXEL_SIZE 21
FONT_ASCENT 16
FONT_DESCENT 5
SPACING "C"
CHARSET_REGISTRY "ISO10646"
CHARSET_ENCODING "1"
DEFAULT_CHAR 32
_XMBDFED_INFO "Edited with xmbdfed 4.7."
ENDPROPERTIES
CHARS 894
STARTCHAR uni0001
ENCODING 1
SWIDTH 457 0
DWIDTH 10 0
BBX 10 21 0 -5
BITMAP
0000
0000
0000
0000
1E00
2100
4080
5280
5280
4080
4080
5280
5E80
4080
2100
1E00
0000
0000
0000
0000
0000
ENDCHAR
STARTCHAR uni0002
ENCODING 2
SWIDTH 457 0
DWIDTH 10 0
BBX 10 21 0 -5
BITMAP
0000
0000
0000
0000
1E00
3F00
7F80
6D80
7F80
7F80
7F80
5E80
6180
7F80
3F00
1E00
0000
0000
0000
0000
0000
ENDCHAR
STARTCHAR uni0003
ENCODING 3
SWIDTH 457 0
DWIDTH 10 0
BBX 10 21 0 -5
BITMAP
0000
0000
0000
0000
0000
3300
7380
7F80
7F80
7F80
7F80
3F00
1E00
0C00
0C00
0000
0000
0000
0000
0000
0000
ENDCHAR
STARTCHAR uni0004
ENCODING 4
SWIDTH 457 0
DWIDTH 10 0
BBX 10 21 0 -5
BITMAP
0000
0000
0000
0000
0400
0E00
0E00
1F00
1F00
3F80
3F80
1F00
1F00
0E00
0E00
0400
0000
0000
0000
0000
0000
ENDCHAR
STARTCHAR uni0005
ENCODING 5
SWIDTH 457 0
DWIDTH 10 0
BBX 10 21 0 -5
BITMAP
0000
0000
0000
0000
1E00
1E00
1E00
0C00
6D80
7F80
7F80
6D80
0C00
0C00
3F00
0000
0000
0000
0000
0000
0000
ENDCHAR
STARTCHAR uni0006
ENCODING 6
SWIDTH 457 0
DWIDTH 10 0
BBX 10 21 0 -5
BITMAP
0000
0000
0000
0000
0C00
0C00
1E00
3F00
7F80
7F80
7F80
6D80
0C00
0C00
1E00
0000
0000
0000
0000
0000
0000
ENDCHAR
STARTCHAR uni0007
ENCODING 7
SWIDTH 457 0
DWIDTH 10 0
BBX 10 21 0 -5
BITMAP
0000
0000
0000
0000
0000
0C00
3F00
3F00
7F80
7F80
7F80
3F00
3F00
0C00
0000
0000
0000
0000
0000
0000
0000
ENDCHAR
STARTCHAR uni0008
ENCODING 8
SWIDTH 457 0
DWIDTH 10 0
BBX 10 21 0 -5
BITMAP
FFC0
FFC0
FFC0
FFC0
FFC0
F3C0
C0C0
C0C0
8040
8040
8040
C0C0
C0C0
F3C0
FFC0
FFC0
FFC0
FFC0
FFC0
FFC0
FFC0
ENDCHAR
STARTCHAR uni0009
ENCODING 9
SWIDTH 457 0
DWIDTH 10 0
BBX 10 21 0 -5
BITMAP
0000
0000
0000
0000
0000
1E00
2100
4080
4080
4080
4080
4080
2100
1E00
0000
0000
0000
0000
0000
0000
0000
ENDCHAR
STARTCHAR uni000A
ENCODING 10
SWIDTH 457 0
DWIDTH 10 0
BBX 10 21 0 -5
BITMAP
FFC0
FFC0
FFC0
FFC0
FFC0
E1C0
DEC0
BF40
BF40
BF40
BF40
BF40
DEC0
E1C0
FFC0
FFC0
FFC0
FFC0
FFC0
FFC0
FFC0
ENDCHAR
STARTCHAR uni000B
ENCODING 11
SWIDTH 457 0
DWIDTH 10 0
BBX 10 21 0 -5
BITMAP
0000
0000
0000
0300
0F00
0380
0280
0600
1E00
3300
2100
6180
6180
2100
3300
1E00
0000
0000
0000
0000
0000
ENDCHAR
STARTCHAR uni000C
ENCODING 12
SWIDTH 457 0
DWIDTH 10 0
BBX 10 21 0 -5
BITMAP
0000
0000
0000
1E00
3300
2100
6180
6180
2100
3300
1E00
0C00
0C00
3F00
0C00
0C00
0000
0000
0000
0000
0000
ENDCHAR
STARTCHAR uni000D
ENCODING 13
SWIDTH 457 0
DWIDTH 10 0
BBX 10 21 0 -5
BITMAP
0000
0000
0000
0C00
0E00
0F00
0D80
0C00
0C00
0C00
0C00
0C00
1C00
3C00
3800
3000
0000
0000
0000
0000
0000
ENDCHAR
STARTCHAR uni000E
ENCODING 14
SWIDTH 457 0
DWIDTH 10 0
BBX 10 21 0 -5
BITMAP
0000
0000
0000
1800
1E00
1F80
1B80
1980
1980
1980
1980
1980
3980
7980
7380
0780
0700
0000
0000
0000
0000
ENDCHAR
STARTCHAR uni000F
ENCODING 15
SWIDTH 457 0
DWIDTH 10 0
BBX 10 21 0 -5
BITMAP
0000
0000
0000
0000
4C80
6D80
3F00
3300
2100
6180
6180
2100
3300
7F80
4C80
0C00
0000
0000
0000
0000
0000
ENDCHAR
STARTCHAR uni0010
ENCODING 16
SWIDTH 457 0
DWIDTH 10 0
BBX 10 21 0 -5
BITMAP
0000
0000
0000
0000
2000
3000
3800
3C00
3E00
3F00
3E00
3C00
3800
3000
2000
0000
0000
0000
0000
0000
0000
ENDCHAR
STARTCHAR uni0011
ENCODING 17
SWIDTH 457 0
DWIDTH 10 0
BBX 10 21 0 -5
BITMAP
0000
0000
0000
0000
0100
0300
0700
0F00
1F00
3F00
1F00
0F00
0700
0300
0100
0000
0000
0000
0000
0000
0000
ENDCHAR
STARTCHAR uni0012
ENCODING 18
SWIDTH 457 0
DWIDTH 10 0
BBX 10 21 0 -5
BITMAP
0000
0000
0000
0C00
1E00
3F00
0C00
0C00
0C00
0C00
0C00
0C00
0C00
3F00
1E00
0C00
0000
0000
0000
0000
0000
ENDCHAR
STARTCHAR uni0013
ENCODING 19
SWIDTH 457 0
DWIDTH 10 0
BBX 10 21 0 -5
BITMAP
0000
0000
0000
3300
3300
3300
3300
3300
3300
3300
3300
3300
3300
3300
0000
3300
3300
0000
0000
0000
0000
ENDCHAR
STARTCHAR uni0014
ENCODING 20
SWIDTH 457 0
DWIDTH 10 0
BBX 10 21 0 -5
BITMAP
0000
0000
0000
1F80
3C80
7C80
7C80
7C80
3C80
1C80
0480
0480
0480
0480
0480
0480
0000
0000
0000
0000
0000
ENDCHAR
STARTCHAR uni0015
ENCODING 21
SWIDTH 457 0
DWIDTH 10 0
BBX 10 21 0 -5
BITMAP
0000
0000
0000
3F00
6180
6180
3000
3E00
6300
6180
6180
3180
1F00
0300
6180
6180
3F00
0000
0000
0000
0000
ENDCHAR
STARTCHAR uni0016
ENCODING 22
SWIDTH 457 0
DWIDTH 10 0
BBX 10 21 0 -5
BITMAP
0000
0000
0000
0000
0000
0000
0000
7F80
7F80
7F80
7F80
0000
0000
0000
0000
0000
0000
0000
0000
0000
0000
ENDCHAR
STARTCHAR uni0017
ENCODING 23
SWIDTH 457 0
DWIDTH 10 0
BBX 10 21 0 -5
BITMAP
0000
0000
0000
0C00
1E00
3F00
0C00
0C00
0C00
0C00
0C00
0C00
0C00
3F00
1E00
0C00
7F80
0000
0000
0000
0000
ENDCHAR
STARTCHAR uni0018
ENCODING 24
SWIDTH 457 0
DWIDTH 10 0
BBX 10 21 0 -5
BITMAP
0000
0000
0000
0C00
1E00
3F00
0C00
0C00
0C00
0C00
0C00
0C00
0C00
0C00
0C00
0C00
0000
0000
0000
0000
0000
ENDCHAR
STARTCHAR uni0019
ENCODING 25
SWIDTH 457 0
DWIDTH 10 0
BBX 10 21 0 -5
BITMAP
0000
0000
0000
0C00
0C00
0C00
0C00
0C00
0C00
0C00
0C00
0C00
0C00
3F00
1E00
0C00
0000
0000
0000
0000
0000
ENDCHAR
STARTCHAR uni001A
ENCODING 26
SWIDTH 457 0
DWIDTH 10 0
BBX 10 21 0 -5
BITMAP
0000
0000
0000
0000
0000
0000
0200
0300
7F80
7F80
0300
0200
0000
0000
0000
0000
0000
0000
0000
0000
0000
ENDCHAR
STARTCHAR uni001B
ENCODING 27
SWIDTH 457 0
DWIDTH 10 0
BBX 10 21 0 -5
BITMAP
0000
0000
0000
0000
0000
0000
1000
3000
7F80
7F80
3000
1000
0000
0000
0000
0000
0000
0000
0000
0000
0000
ENDCHAR
STARTCHAR uni001C
ENCODING 28
SWIDTH 457 0
DWIDTH 10 0
BBX 10 21 0 -5
BITMAP
0000
0000
0000
0000
0000
0000
6000
6000
6000
6000
6000
6000
6000
7F80
7F80
0000
0000
0000
0000
0000
0000
ENDCHAR
STARTCHAR uni001D
ENCODING 29
SWIDTH 457 0
DWIDTH 10 0
BBX 10 21 0 -5
BITMAP
0000
0000
0000
0000
0000
0000
0000
2100
6180
FFC0
FFC0
6180
2100
0000
0000
0000
0000
0000
0000
0000
0000
ENDCHAR
STARTCHAR uni001E
ENCODING 30
SWIDTH 457 0
DWIDTH 10 0
BBX 10 21 0 -5
BITMAP
0000
0000
0000
0000
0000
0C00
0C00
1E00
1E00
3F00
3F00
7F80
7F80
0000
0000
0000
0000
0000
0000
0000
0000
ENDCHAR
STARTCHAR uni001F
ENCODING 31
SWIDTH 457 0
DWIDTH 10 0
BBX 10 21 0 -5
BITMAP
0000
0000
0000
0000
0000
7F80
7F80
3F00
3F00
1E00
1E00
0C00
0C00
0000
0000
0000
0000
0000
0000
0000
0000
ENDCHAR
STARTCHAR space
ENCODING 32
SWIDTH 457 0
DWIDTH 10 0
BBX 10 21 0 -5
BITMAP
0000
0000
0000
0000
0000
0000
0000
0000
0000
0000
0000
0000
0000
0000
0000
0000
0000
0000
0000
0000
0000
ENDCHAR
STARTCHAR exclam
ENCODING 33
SWIDTH 457 0
DWIDTH 10 0
BBX 10 21 0 -5
BITMAP
0000
0000
0000
0C00
0C00
0C00
0C00
0C00
0C00
0C00
0C00
0C00
0C00
0000
0C00
0C00
0000
0000
0000
0000
0000
ENDCHAR
STARTCHAR quotedbl
ENCODING 34
SWIDTH 457 0
DWIDTH 10 0
BBX 10 21 0 -5
BITMAP
0000
0000
0000
3300
3300
3300
1200
0000
0000
0000
0000
0000
0000
0000
0000
0000
0000
0000
0000
0000
0000
ENDCHAR
STARTCHAR numbersign
ENCODING 35
SWIDTH 457 0
DWIDTH 10 0
BBX 10 21 0 -5
BITMAP
0000
0000
0000
0000
3300
3300
3300
7F80
3300
3300
3300
7F80
3300
3300
3300
0000
0000
0000
0000
0000
0000
ENDCHAR
STARTCHAR dollar
ENCODING 36
SWIDTH 457 0
DWIDTH 10 0
BBX 10 21 0 -5
BITMAP
0000
0000
0C00
0C00
3F00
6180
6180
6000
3800
0E00
0300
0180
6180
6180
3F00
0C00
0C00
0000
0000
0000
0000
ENDCHAR
STARTCHAR percent
ENCODING 37
SWIDTH 457 0
DWIDTH 10 0
BBX 10 21 0 -5
BITMAP
0000
0000
0000
3800
6C00
6C80
3980
0300
0600
0C00
1800
3000
6700
4D80
0D80
0700
0000
0000
0000
0000
0000
ENDCHAR
STARTCHAR ampersand
ENCODING 38
SWIDTH 457 0
DWIDTH 10 0
BBX 10 21 0 -5
BITMAP
0000
0000
0000
1E00
3300
3300
3300
1600
1C00
3400
6600
62C0
6380
6180
3380
1EC0
0000
0000
0000
0000
0000
ENDCHAR
STARTCHAR quotesingle
ENCODING 39
SWIDTH 457 0
DWIDTH 10 0
BBX 10 21 0 -5
BITMAP
0000
0000
0000
0C00
0C00
0C00
0C00
0000
0000
0000
0000
0000
0000
0000
0000
0000
0000
0000
0000
0000
0000
ENDCHAR
STARTCHAR parenleft
ENCODING 40
SWIDTH 457 0
DWIDTH 10 0
BBX 10 21 0 -5
BITMAP
0000
0300
0600
0600
0C00
0C00
0C00
0C00
0C00
0C00
0C00
0C00
0C00
0C00
0C00
0600
0600
0300
0000
0000
0000
ENDCHAR
STARTCHAR parenright
ENCODING 41
SWIDTH 457 0
DWIDTH 10 0
BBX 10 21 0 -5
BITMAP
0000
3000
1800
1800
0C00
0C00
0C00
0C00
0C00
0C00
0C00
0C00
0C00
0C00
0C00
1800
1800
3000
0000
0000
0000
ENDCHAR
STARTCHAR asterisk
ENCODING 42
SWIDTH 457 0
DWIDTH 10 0
BBX 10 21 0 -5
BITMAP
0000
0000
0000
0000
0000
0000
0000
3300
3300
0C00
7F80
0C00
3300
3300
0000
0000
0000
0000
0000
0000
0000
ENDCHAR
STARTCHAR plus
ENCODING 43
SWIDTH 457 0
DWIDTH 10 0
BBX 10 21 0 -5
BITMAP
0000
0000
0000
0000
0000
0000
0000
0C00
0C00
0C00
7F80
0C00
0C00
0C00
0000
0000
0000
0000
0000
0000
0000
ENDCHAR
STARTCHAR comma
ENCODING 44
SWIDTH 457 0
DWIDTH 10 0
BBX 10 21 0 -5
BITMAP
0000
0000
0000
0000
0000
0000
0000
0000
0000
0000
0000
0000
0000
0000
0C00
0C00
0C00
1800
0000
0000
0000
ENDCHAR
STARTCHAR hyphen
ENCODING 45
SWIDTH 457 0
DWIDTH 10 0
BBX 10 21 0 -5
BITMAP
0000
0000
0000
0000
0000
0000
0000
0000
0000
0000
7F80
0000
0000
0000
0000
0000
0000
0000
0000
0000
0000
ENDCHAR
STARTCHAR period
ENCODING 46
SWIDTH 457 0
DWIDTH 10 0
BBX 10 21 0 -5
BITMAP
0000
0000
0000
0000
0000
0000
0000
0000
0000
0000
0000
0000
0000
0000
0C00
0C00
0000
0000
0000
0000
0000
ENDCHAR
STARTCHAR slash
ENCODING 47
SWIDTH 457 0
DWIDTH 10 0
BBX 10 21 0 -5
BITMAP
0000
0000
0300
0300
0300
0600
0600
0600
0C00
0C00
0C00
1800
1800
1800
3000
3000
3000
0000
0000
0000
0000
ENDCHAR
STARTCHAR zero
ENCODING 48
SWIDTH 457 0
DWIDTH 10 0
BBX 10 21 0 -5
BITMAP
0000
0000
0000
1E00
3300
6180
6180
6180
6180
6D80
6180
6180
6180
6180
3300
1E00
0000
0000
0000
0000
0000
ENDCHAR
STARTCHAR one
ENCODING 49
SWIDTH 457 0
DWIDTH 10 0
BBX 10 21 0 -5
BITMAP
0000
0000
0000
0600
0E00
3E00
0600
0600
0600
0600
0600
0600
0600
0600
0600
0600
0000
0000
0000
0000
0000
ENDCHAR
STARTCHAR two
ENCODING 50
SWIDTH 457 0
DWIDTH 10 0
BBX 10 21 0 -5
BITMAP
0000
0000
0000
1E00
3300
6180
6180
0180
0300
0600
0C00
1800
3000
6180
6180
7F80
0000
0000
0000
0000
0000
ENDCHAR
STARTCHAR three
ENCODING 51
SWIDTH 457 0
DWIDTH 10 0
BBX 10 21 0 -5
BITMAP
0000
0000
0000
1E00
3300
6180
6180
0180
0300
0E00
0300
0180
6180
6180
3300
1E00
0000
0000
0000
0000
0000
ENDCHAR
STARTCHAR four
ENCODING 52
SWIDTH 457 0
DWIDTH 10 0
BBX 10 21 0 -5
BITMAP
0000
0000
0000
0380
0780
0D80
0980
1980
3180
2180
6180
6180
7F80
0180
0180
0180
0000
0000
0000
0000
0000
ENDCHAR
STARTCHAR five
ENCODING 53
SWIDTH 457 0
DWIDTH 10 0
BBX 10 21 0 -5
BITMAP
0000
0000
0000
7F80
6000
6000
6000
6E00
7300
0180
0180
0180
6180
6180
3300
1E00
0000
0000
0000
0000
0000
ENDCHAR
STARTCHAR six
ENCODING 54
SWIDTH 457 0
DWIDTH 10 0
BBX 10 21 0 -5
BITMAP
0000
0000
0000
0F00
1800
3000
6000
7E00
7300
6180
6180
6180
6180
6180
3300
1E00
0000
0000
0000
0000
0000
ENDCHAR
STARTCHAR seven
ENCODING 55
SWIDTH 457 0
DWIDTH 10 0
BBX 10 21 0 -5
BITMAP
0000
0000
0000
7F80
6180
6180
0300
0300
0600
0600
0C00
0C00
0C00
1800
1800
1800
0000
0000
0000
0000
0000
ENDCHAR
STARTCHAR eight
ENCODING 56
SWIDTH 457 0
DWIDTH 10 0
BBX 10 21 0 -5
BITMAP
0000
0000
0000
1E00
3300
6180
6180
3300
1E00
3300
6180
6180
6180
6180
3300
1E00
0000
0000
0000
0000
0000
ENDCHAR
STARTCHAR nine
ENCODING 57
SWIDTH 457 0
DWIDTH 10 0
BBX 10 21 0 -5
BITMAP
0000
0000
0000
1E00
3300
6180
6180
6180
6180
6180
3380
1F80
0180
0300
0600
3C00
0000
0000
0000
0000
0000
ENDCHAR
STARTCHAR colon
ENCODING 58
SWIDTH 457 0
DWIDTH 10 0
BBX 10 21 0 -5
BITMAP
0000
0000
0000
0000
0000
0000
0000
0C00
0C00
0000
0000
0000
0000
0000
0C00
0C00
0000
0000
0000
0000
0000
ENDCHAR
STARTCHAR semicolon
ENCODING 59
SWIDTH 457 0
DWIDTH 10 0
BBX 10 21 0 -5
BITMAP
0000
0000
0000
0000
0000
0000
0000
0C00
0C00
0000
0000
0000
0000
0000
0C00
0C00
1800
0000
0000
0000
0000
ENDCHAR
STARTCHAR less
ENCODING 60
SWIDTH 457 0
DWIDTH 10 0
BBX 10 21 0 -5
BITMAP
0000
0000
0000
0000
0300
0600
0C00
1800
3000
6000
3000
1800
0C00
0600
0300
0000
0000
0000
0000
0000
0000
ENDCHAR
STARTCHAR equal
ENCODING 61
SWIDTH 457 0
DWIDTH 10 0
BBX 10 21 0 -5
BITMAP
0000
0000
0000
0000
0000
0000
0000
0000
7F80
0000
0000
7F80
0000
0000
0000
0000
0000
0000
0000
0000
0000
ENDCHAR
STARTCHAR greater
ENCODING 62
SWIDTH 457 0
DWIDTH 10 0
BBX 10 21 0 -5
BITMAP
0000
0000
0000
0000
3000
1800
0C00
0600
0300
0180
0300
0600
0C00
1800
3000
0000
0000
0000
0000
0000
0000
ENDCHAR
STARTCHAR question
ENCODING 63
SWIDTH 457 0
DWIDTH 10 0
BBX 10 21 0 -5
BITMAP
0000
0000
0000
1E00
3300
6180
6180
0180
0300
0600
0C00
0C00
0C00
0000
0C00
0C00
0000
0000
0000
0000
0000
ENDCHAR
STARTCHAR at
ENCODING 64
SWIDTH 457 0
DWIDTH 10 0
BBX 10 21 0 -5
BITMAP
0000
0000
0000
0000
1E00
3300
6180
4C80
5280
5280
5280
5280
4F80
6000
3000
1F00
0000
0000
0000
0000
0000
ENDCHAR
STARTCHAR A
ENCODING 65
SWIDTH 457 0
DWIDTH 10 0
BBX 10 21 0 -5
BITMAP
0000
0000
0000
0C00
1E00
3300
3300
6180
6180
6180
6180
7F80
6180
6180
6180
6180
0000
0000
0000
0000
0000
ENDCHAR
STARTCHAR B
ENCODING 66
SWIDTH 457 0
DWIDTH 10 0
BBX 10 21 0 -5
BITMAP
0000
0000
0000
7E00
6300
6180
6180
6180
6300
7E00
6300
6180
6180
6180
6300
7E00
0000
0000
0000
0000
0000
ENDCHAR
STARTCHAR C
ENCODING 67
SWIDTH 457 0
DWIDTH 10 0
BBX 10 21 0 -5
BITMAP
0000
0000
0000
1E00
3380
6180
6000
6000
6000
6000
6000
6000
6000
6180
3380
1E00
0000
0000
0000
0000
0000
ENDCHAR
STARTCHAR D
ENCODING 68
SWIDTH 457 0
DWIDTH 10 0
BBX 10 21 0 -5
BITMAP
0000
0000
0000
7E00
6300
6180
6180
6180
6180
6180
6180
6180
6180
6180
6300
7E00
0000
0000
0000
0000
0000
ENDCHAR
STARTCHAR E
ENCODING 69
SWIDTH 457 0
DWIDTH 10 0
BBX 10 21 0 -5
BITMAP
0000
0000
0000
7F80
6000
6000
6000
6000
6000
7F00
6000
6000
6000
6000
6000
7F80
0000
0000
0000
0000
0000
ENDCHAR
STARTCHAR F
ENCODING 70
SWIDTH 457 0
DWIDTH 10 0
BBX 10 21 0 -5
BITMAP
0000
0000
0000
7F80
6000
6000
6000
6000
6000
7F00
6000
6000
6000
6000
6000
6000
0000
0000
0000
0000
0000
ENDCHAR
STARTCHAR G
ENCODING 71
SWIDTH 457 0
DWIDTH 10 0
BBX 10 21 0 -5
BITMAP
0000
0000
0000
1E00
3380
6180
6000
6000
6000
6780
6180
6180
6180
6180
3380
1E00
0000
0000
0000
0000
0000
ENDCHAR
STARTCHAR H
ENCODING 72
SWIDTH 457 0
DWIDTH 10 0
BBX 10 21 0 -5
BITMAP
0000
0000
0000
6180
6180
6180
6180
6180
6180
7F80
6180
6180
6180
6180
6180
6180
0000
0000
0000
0000
0000
ENDCHAR
STARTCHAR I
ENCODING 73
SWIDTH 457 0
DWIDTH 10 0
BBX 10 21 0 -5
BITMAP
0000
0000
0000
3F00
0C00
0C00
0C00
0C00
0C00
0C00
0C00
0C00
0C00
0C00
0C00
3F00
0000
0000
0000
0000
0000
ENDCHAR
STARTCHAR J
ENCODING 74
SWIDTH 457 0
DWIDTH 10 0
BBX 10 21 0 -5
BITMAP
0000
0000
0000
0180
0180
0180
0180
0180
0180
0180
0180
0180
6180
6180
3300
1E00
0000
0000
0000
0000
0000
ENDCHAR
STARTCHAR K
ENCODING 75
SWIDTH 457 0
DWIDTH 10 0
BBX 10 21 0 -5
BITMAP
0000
0000
0000
6080
6180
6300
6600
6C00
7800
7000
7800
6C00
6600
6300
6180
60C0
0000
0000
0000
0000
0000
ENDCHAR
STARTCHAR L
ENCODING 76
SWIDTH 457 0
DWIDTH 10 0
BBX 10 21 0 -5
BITMAP
0000
0000
0000
6000
6000
6000
6000
6000
6000
6000
6000
6000
6000
6000
6000
7F80
0000
0000
0000
0000
0000
ENDCHAR
STARTCHAR M
ENCODING 77
SWIDTH 457 0
DWIDTH 10 0
BBX 10 21 0 -5
BITMAP
0000
0000
0000
6180
6180
7380
7380
6D80
6D80
6D80
6180
6180
6180
6180
6180
6180
0000
0000
0000
0000
0000
ENDCHAR
STARTCHAR N
ENCODING 78
SWIDTH 457 0
DWIDTH 10 0
BBX 10 21 0 -5
BITMAP
0000
0000
0000
6180
6180
7180
7180
7980
6980
6D80
6580
6780
6380
6380
6180
6180
0000
0000
0000
0000
0000
ENDCHAR
STARTCHAR O
ENCODING 79
SWIDTH 457 0
DWIDTH 10 0
BBX 10 21 0 -5
BITMAP
0000
0000
0000
1E00
3300
6180
6180
6180
6180
6180
6180
6180
6180
6180
3300
1E00
0000
0000
0000
0000
0000
ENDCHAR
STARTCHAR P
ENCODING 80
SWIDTH 457 0
DWIDTH 10 0
BBX 10 21 0 -5
BITMAP
0000
0000
0000
7E00
6300
6180
6180
6180
6180
6300
7E00
6000
6000
6000
6000
6000
0000
0000
0000
0000
0000
ENDCHAR
STARTCHAR Q
ENCODING 81
SWIDTH 457 0
DWIDTH 10 0
BBX 10 21 0 -5
BITMAP
0000
0000
0000
1E00
3300
6180
6180
6180
6180
6180
6180
6180
6580
6580
3700
1F00
0180
0000
0000
0000
0000
ENDCHAR
STARTCHAR R
ENCODING 82
SWIDTH 457 0
DWIDTH 10 0
BBX 10 21 0 -5
BITMAP
0000
0000
0000
7E00
6300
6180
6180
6180
6180
6300
7F00
6600
6300
6300
6180
6180
0000
0000
0000
0000
0000
ENDCHAR
STARTCHAR S
ENCODING 83
SWIDTH 457 0
DWIDTH 10 0
BBX 10 21 0 -5
BITMAP
0000
0000
0000
3F00
7300
6180
6180
7000
3800
1E00
0700
0380
6180
6180
3380
3F00
0000
0000
0000
0000
0000
ENDCHAR
STARTCHAR T
ENCODING 84
SWIDTH 457 0
DWIDTH 10 0
BBX 10 21 0 -5
BITMAP
0000
0000
0000
7F80
0C00
0C00
0C00
0C00
0C00
0C00
0C00
0C00
0C00
0C00
0C00
0C00
0000
0000
0000
0000
0000
ENDCHAR
STARTCHAR U
ENCODING 85
SWIDTH 457 0
DWIDTH 10 0
BBX 10 21 0 -5
BITMAP
0000
0000
0000
6180
6180
6180
6180
6180
6180
6180
6180
6180
6180
6180
3300
1E00
0000
0000
0000
0000
0000
ENDCHAR
STARTCHAR V
ENCODING 86
SWIDTH 457 0
DWIDTH 10 0
BBX 10 21 0 -5
BITMAP
0000
0000
0000
6180
6180
6180
6180
6180
6180
3300
3300
3300
1E00
1E00
0C00
0C00
0000
0000
0000
0000
0000
ENDCHAR
STARTCHAR W
ENCODING 87
SWIDTH 457 0
DWIDTH 10 0
BBX 10 21 0 -5
BITMAP
0000
0000
0000
6180
6180
6180
6180
6180
6180
6D80
6D80
6D80
6D80
3300
3300
3300
0000
0000
0000
0000
0000
ENDCHAR
STARTCHAR X
ENCODING 88
SWIDTH 457 0
DWIDTH 10 0
BBX 10 21 0 -5
BITMAP
0000
0000
0000
6180
6180
3300
3300
1E00
1E00
0C00
1E00
1E00
3300
3300
6180
6180
0000
0000
0000
0000
0000
ENDCHAR
STARTCHAR Y
ENCODING 89
SWIDTH 457 0
DWIDTH 10 0
BBX 10 21 0 -5
BITMAP
0000
0000
0000
6180
6180
6180
6180
3300
3300
1E00
0C00
0C00
0C00
0C00
0C00
0C00
0000
0000
0000
0000
0000
ENDCHAR
STARTCHAR Z
ENCODING 90
SWIDTH 457 0
DWIDTH 10 0
BBX 10 21 0 -5
BITMAP
0000
0000
0000
7F80
0180
0380
0300
0600
0E00
0C00
1C00
1800
3000
7000
6000
7F80
0000
0000
0000
0000
0000
ENDCHAR
STARTCHAR bracketleft
ENCODING 91
SWIDTH 457 0
DWIDTH 10 0
BBX 10 21 0 -5
BITMAP
0000
0F80
0C00
0C00
0C00
0C00
0C00
0C00
0C00
0C00
0C00
0C00
0C00
0C00
0C00
0C00
0C00
0F80
0000
0000
0000
ENDCHAR
STARTCHAR backslash
ENCODING 92
SWIDTH 457 0
DWIDTH 10 0
BBX 10 21 0 -5
BITMAP
0000
0000
3000
3000
3000
1800
1800
1800
0C00
0C00
0C00
0600
0600
0600
0300
0300
0300
0000
0000
0000
0000
ENDCHAR
STARTCHAR bracketright
ENCODING 93
SWIDTH 457 0
DWIDTH 10 0
BBX 10 21 0 -5
BITMAP
0000
7C00
0C00
0C00
0C00
0C00
0C00
0C00
0C00
0C00
0C00
0C00
0C00
0C00
0C00
0C00
0C00
7C00
0000
0000
0000
ENDCHAR
STARTCHAR asciicircum
ENCODING 94
SWIDTH 457 0
DWIDTH 10 0
BBX 10 21 0 -5
BITMAP
0000
0000
0000
0C00
1E00
3300
0000
0000
0000
0000
0000
0000
0000
0000
0000
0000
0000
0000
0000
0000
0000
ENDCHAR
STARTCHAR underscore
ENCODING 95
SWIDTH 457 0
DWIDTH 10 0
BBX 10 21 0 -5
BITMAP
0000
0000
0000
0000
0000
0000
0000
0000
0000
0000
0000
0000
0000
0000
0000
0000
0000
FFC0
0000
0000
0000
ENDCHAR
STARTCHAR grave
ENCODING 96
SWIDTH 457 0
DWIDTH 10 0
BBX 10 21 0 -5
BITMAP
0000
0000
0000
1800
0C00
0600
0000
0000
0000
0000
0000
0000
0000
0000
0000
0000
0000
0000
0000
0000
0000
ENDCHAR
STARTCHAR a
ENCODING 97
SWIDTH 457 0
DWIDTH 10 0
BBX 10 21 0 -5
BITMAP
0000
0000
0000
0000
0000
0000
1F00
7380
6180
0180
3F80
7180
6180
6180
6380
3D80
0000
0000
0000
0000
0000
ENDCHAR
STARTCHAR b
ENCODING 98
SWIDTH 457 0
DWIDTH 10 0
BBX 10 21 0 -5
BITMAP
0000
0000
0000
6000
6000
6000
6E00
7300
6180
6180
6180
6180
6180
6180
7300
6E00
0000
0000
0000
0000
0000
ENDCHAR
STARTCHAR c
ENCODING 99
SWIDTH 457 0
DWIDTH 10 0
BBX 10 21 0 -5
BITMAP
0000
0000
0000
0000
0000
0000
1E00
3380
6180
6000
6000
6000
6000
6180
3380
1E00
0000
0000
0000
0000
0000
ENDCHAR
STARTCHAR d
ENCODING 100
SWIDTH 457 0
DWIDTH 10 0
BBX 10 21 0 -5
BITMAP
0000
0000
0000
0180
0180
0180
1D80
3380
6180
6180
6180
6180
6180
6180
3380
1D80
0000
0000
0000
0000
0000
ENDCHAR
STARTCHAR e
ENCODING 101
SWIDTH 457 0
DWIDTH 10 0
BBX 10 21 0 -5
BITMAP
0000
0000
0000
0000
0000
0000
1E00
3300
6180
6180
7F80
6000
6000
6180
3380
1E00
0000
0000
0000
0000
0000
ENDCHAR
STARTCHAR f
ENCODING 102
SWIDTH 457 0
DWIDTH 10 0
BBX 10 21 0 -5
BITMAP
0000
0000
0000
0780
0C00
0C00
3F00
0C00
0C00
0C00
0C00
0C00
0C00
0C00
0C00
0C00
0000
0000
0000
0000
0000
ENDCHAR
STARTCHAR g
ENCODING 103
SWIDTH 457 0
DWIDTH 10 0
BBX 10 21 0 -5
BITMAP
0000
0000
0000
0000
0000
0000
1D80
3380
6180
6180
6180
6180
6180
6180
3380
1D80
0180
6180
6300
3E00
0000
ENDCHAR
STARTCHAR h
ENCODING 104
SWIDTH 457 0
DWIDTH 10 0
BBX 10 21 0 -5
BITMAP
0000
0000
0000
6000
6000
6000
6F00
7380
6180
6180
6180
6180
6180
6180
6180
6180
0000
0000
0000
0000
0000
ENDCHAR
STARTCHAR i
ENCODING 105
SWIDTH 457 0
DWIDTH 10 0
BBX 10 21 0 -5
BITMAP
0000
0000
0000
0C00
0C00
0000
3C00
0C00
0C00
0C00
0C00
0C00
0C00
0C00
0C00
3F00
0000
0000
0000
0000
0000
ENDCHAR
STARTCHAR j
ENCODING 106
SWIDTH 457 0
DWIDTH 10 0
BBX 10 21 0 -5
BITMAP
0000
0000
0000
0600
0600
0000
1E00
0600
0600
0600
0600
0600
0600
0600
0600
0600
0600
0600
0600
3C00
0000
ENDCHAR
STARTCHAR k
ENCODING 107
SWIDTH 457 0
DWIDTH 10 0
BBX 10 21 0 -5
BITMAP
0000
0000
0000
6000
6000
6000
6180
6300
6600
6C00
7800
7C00
6600
6300
6180
6180
0000
0000
0000
0000
0000
ENDCHAR
STARTCHAR l
ENCODING 108
SWIDTH 457 0
DWIDTH 10 0
BBX 10 21 0 -5
BITMAP
0000
0000
0000
1C00
0C00
0C00
0C00
0C00
0C00
0C00
0C00
0C00
0C00
0C00
0C00
0700
0000
0000
0000
0000
0000
ENDCHAR
STARTCHAR m
ENCODING 109
SWIDTH 457 0
DWIDTH 10 0
BBX 10 21 0 -5
BITMAP
0000
0000
0000
0000
0000
0000
5B00
7F80
6D80
6D80
6D80
6180
6180
6180
6180
6180
0000
0000
0000
0000
0000
ENDCHAR
STARTCHAR n
ENCODING 110
SWIDTH 457 0
DWIDTH 10 0
BBX 10 21 0 -5
BITMAP
0000
0000
0000
0000
0000
0000
6F00
7380
6180
6180
6180
6180
6180
6180
6180
6180
0000
0000
0000
0000
0000
ENDCHAR
STARTCHAR o
ENCODING 111
SWIDTH 457 0
DWIDTH 10 0
BBX 10 21 0 -5
BITMAP
0000
0000
0000
0000
0000
0000
1E00
3300
6180
6180
6180
6180
6180
6180
3300
1E00
0000
0000
0000
0000
0000
ENDCHAR
STARTCHAR p
ENCODING 112
SWIDTH 457 0
DWIDTH 10 0
BBX 10 21 0 -5
BITMAP
0000
0000
0000
0000
0000
0000
6E00
7300
6180
6180
6180
6180
6180
6180
7300
6E00
6000
6000
6000
6000
0000
ENDCHAR
STARTCHAR q
ENCODING 113
SWIDTH 457 0
DWIDTH 10 0
BBX 10 21 0 -5
BITMAP
0000
0000
0000
0000
0000
0000
1D80
3380
6180
6180
6180
6180
6180
6180
3380
1D80
0180
0180
0180
0180
0000
ENDCHAR
STARTCHAR r
ENCODING 114
SWIDTH 457 0
DWIDTH 10 0
BBX 10 21 0 -5
BITMAP
0000
0000
0000
0000
0000
0000
3700
3B00
3000
3000
3000
3000
3000
3000
3000
3000
0000
0000
0000
0000
0000
ENDCHAR
STARTCHAR s
ENCODING 115
SWIDTH 457 0
DWIDTH 10 0
BBX 10 21 0 -5
BITMAP
0000
0000
0000
0000
0000
0000
3F00
7380
6180
6000
3C00
0F00
0180
6180
7380
3F00
0000
0000
0000
0000
0000
ENDCHAR
STARTCHAR t
ENCODING 116
SWIDTH 457 0
DWIDTH 10 0
BBX 10 21 0 -5
BITMAP
0000
0000
0000
1800
1800
1800
7F00
1800
1800
1800
1800
1800
1800
1800
1C00
0F00
0000
0000
0000
0000
0000
ENDCHAR
STARTCHAR u
ENCODING 117
SWIDTH 457 0
DWIDTH 10 0
BBX 10 21 0 -5
BITMAP
0000
0000
0000
0000
0000
0000
6180
6180
6180
6180
6180
6180
6180
6180
7380
3D80
0000
0000
0000
0000
0000
ENDCHAR
STARTCHAR v
ENCODING 118
SWIDTH 457 0
DWIDTH 10 0
BBX 10 21 0 -5
BITMAP
0000
0000
0000
0000
0000
0000
6180
6180
6180
3300
3300
3300
1E00
1E00
0C00
0C00
0000
0000
0000
0000
0000
ENDCHAR
STARTCHAR w
ENCODING 119
SWIDTH 457 0
DWIDTH 10 0
BBX 10 21 0 -5
BITMAP
0000
0000
0000
0000
0000
0000
6180
6180
6180
6180
6D80
6D80
6D80
3300
3300
3300
0000
0000
0000
0000
0000
ENDCHAR
STARTCHAR x
ENCODING 120
SWIDTH 457 0
DWIDTH 10 0
BBX 10 21 0 -5
BITMAP
0000
0000
0000
0000
0000
0000
6180
6180
3300
1E00
0C00
0C00
1E00
3300
6180
6180
0000
0000
0000
0000
0000
ENDCHAR
STARTCHAR y
ENCODING 121
SWIDTH 457 0
DWIDTH 10 0
BBX 10 21 0 -5
BITMAP
0000
0000
0000
0000
0000
0000
6180
6180
6180
6180
6180
6180
6180
6180
3380
1D80
0180
0180
6300
3E00
0000
ENDCHAR
STARTCHAR z
ENCODING 122
SWIDTH 457 0
DWIDTH 10 0
BBX 10 21 0 -5
BITMAP
0000
0000
0000
0000
0000
0000
3F80
0180
0300
0700
0600
0C00
1C00
1800
3000
3F80
0000
0000
0000
0000
0000
ENDCHAR
STARTCHAR braceleft
ENCODING 123
SWIDTH 457 0
DWIDTH 10 0
BBX 10 21 0 -5
BITMAP
0000
0300
0600
0C00
0C00
0C00
0C00
0C00
1800
3000
1800
0C00
0C00
0C00
0C00
0C00
0600
0300
0000
0000
0000
ENDCHAR
STARTCHAR bar
ENCODING 124
SWIDTH 457 0
DWIDTH 10 0
BBX 10 21 0 -5
BITMAP
0000
0C00
0C00
0C00
0C00
0C00
0C00
0C00
0C00
0C00
0C00
0C00
0C00
0C00
0C00
0C00
0C00
0C00
0C00
0000
0000
ENDCHAR
STARTCHAR braceright
ENCODING 125
SWIDTH 457 0
DWIDTH 10 0
BBX 10 21 0 -5
BITMAP
0000
3000
1800
0C00
0C00
0C00
0C00
0C00
0600
0300
0600
0C00
0C00
0C00
0C00
0C00
1800
3000
0000
0000
0000
ENDCHAR
STARTCHAR asciitilde
ENCODING 126
SWIDTH 457 0
DWIDTH 10 0
BBX 10 21 0 -5
BITMAP
0000
3880
6D80
4700
0000
0000
0000
0000
0000
0000
0000
0000
0000
0000
0000
0000
0000
0000
0000
0000
0000
ENDCHAR
STARTCHAR uni007F
ENCODING 127
SWIDTH 457 0
DWIDTH 10 0
BBX 10 21 0 -5
BITMAP
0000
0000
0000
0000
0000
0000
0000
0000
0000
0000
0000
0000
0000
0000
0000
0000
0000
0000
0000
0000
0000
ENDCHAR
STARTCHAR uni00A0
ENCODING 160
SWIDTH 457 0
DWIDTH 10 0
BBX 10 21 0 -5
BITMAP
0000
0000
0000
0000
0000
0000
0000
0000
0000
0000
0000
0000
0000
0000
0000
0000
0000
0000
0000
0000
0000
ENDCHAR
STARTCHAR exclamdown
ENCODING 161
SWIDTH 457 0
DWIDTH 10 0
BBX 10 21 0 -5
BITMAP
0000
0000
0000
0000
0000
0000
0C00
0C00
0000
0C00
0C00
0C00
0C00
0C00
0C00
0C00
0C00
0C00
0C00
0000
0000
ENDCHAR
STARTCHAR cent
ENCODING 162
SWIDTH 457 0
DWIDTH 10 0
BBX 10 21 0 -5
BITMAP
0000
0000
0000
0000
0C00
0C00
1F00
3180
6000
6000
6000
6000
3180
1F00
0C00
0C00
0000
0000
0000
0000
0000
ENDCHAR
STARTCHAR sterling
ENCODING 163
SWIDTH 457 0
DWIDTH 10 0
BBX 10 21 0 -5
BITMAP
0000
0000
0000
0F00
1980
3180
3000
3000
3000
7E00
3000
3000
3000
3180
7980
6700
0000
0000
0000
0000
0000
ENDCHAR
STARTCHAR currency
ENCODING 164
SWIDTH 457 0
DWIDTH 10 0
BBX 10 21 0 -5
BITMAP
0000
0000
0000
0000
4080
6180
1E00
3300
3300
3300
3300
3300
1E00
6180
4080
0000
0000
0000
0000
0000
0000
ENDCHAR
STARTCHAR yen
ENCODING 165
SWIDTH 457 0
DWIDTH 10 0
BBX 10 21 0 -5
BITMAP
0000
0000
0000
6180
6180
3300
3300
1E00
0C00
0C00
7F80
0C00
0C00
7F80
0C00
0C00
0000
0000
0000
0000
0000
ENDCHAR
STARTCHAR brokenbar
ENCODING 166
SWIDTH 457 0
DWIDTH 10 0
BBX 10 21 0 -5
BITMAP
0000
0C00
0C00
0C00
0C00
0C00
0C00
0C00
0C00
0000
0000
0C00
0C00
0C00
0C00
0C00
0C00
0C00
0C00
0000
0000
ENDCHAR
STARTCHAR section
ENCODING 167
SWIDTH 457 0
DWIDTH 10 0
BBX 10 21 0 -5
BITMAP
0000
0000
0000
3F00
6180
6180
3000
3E00
6300
6180
6180
3180
1F00
0300
6180
6180
3F00
0000
0000
0000
0000
ENDCHAR
STARTCHAR dieresis
ENCODING 168
SWIDTH 457 0
DWIDTH 10 0
BBX 10 21 0 -5
BITMAP
0000
0000
3300
3300
0000
0000
0000
0000
0000
0000
0000
0000
0000
0000
0000
0000
0000
0000
0000
0000
0000
ENDCHAR
STARTCHAR copyright
ENCODING 169
SWIDTH 457 0
DWIDTH 10 0
BBX 10 21 0 -5
BITMAP
0000
0000
0000
1E00
2100
4080
5E80
5080
5080
5080
5E80
4080
2100
1E00
0000
0000
0000
0000
0000
0000
0000
ENDCHAR
STARTCHAR ordfeminine
ENCODING 170
SWIDTH 457 0
DWIDTH 10 0
BBX 10 21 0 -5
BITMAP
0000
0000
0000
3C00
0600
3E00
6600
6600
3B00
0000
0000
7F00
0000
0000
0000
0000
0000
0000
0000
0000
0000
ENDCHAR
STARTCHAR guillemotleft
ENCODING 171
SWIDTH 457 0
DWIDTH 10 0
BBX 10 21 0 -5
BITMAP
0000
0000
0000
0000
0000
0000
0000
0000
0000
0D80
1B00
3600
6C00
3600
1B00
0D80
0000
0000
0000
0000
0000
ENDCHAR
STARTCHAR logicalnot
ENCODING 172
SWIDTH 457 0
DWIDTH 10 0
BBX 10 21 0 -5
BITMAP
0000
0000
0000
0000
0000
0000
0000
0000
7F80
0180
0180
0180
0180
0180
0000
0000
0000
0000
0000
0000
0000
ENDCHAR
STARTCHAR uni00AD
ENCODING 173
SWIDTH 457 0
DWIDTH 10 0
BBX 10 21 0 -5
BITMAP
0000
0000
0000
0000
0000
0000
0000
0000
0000
0000
3F00
0000
0000
0000
0000
0000
0000
0000
0000
0000
0000
ENDCHAR
STARTCHAR registered
ENCODING 174
SWIDTH 457 0
DWIDTH 10 0
BBX 10 21 0 -5
BITMAP
0000
0000
0000
1E00
2100
4080
5C80
5280
5C80
5280
5280
4080
2100
1E00
0000
0000
0000
0000
0000
0000
0000
ENDCHAR
STARTCHAR macron
ENCODING 175
SWIDTH 457 0
DWIDTH 10 0
BBX 10 21 0 -5
BITMAP
0000
0000
FFC0
0000
0000
0000
0000
0000
0000
0000
0000
0000
0000
0000
0000
0000
0000
0000
0000
0000
0000
ENDCHAR
STARTCHAR degree
ENCODING 176
SWIDTH 457 0
DWIDTH 10 0
BBX 10 21 0 -5
BITMAP
0000
0000
1E00
3300
3300
3300
1E00
0000
0000
0000
0000
0000
0000
0000
0000
0000
0000
0000
0000
0000
0000
ENDCHAR
STARTCHAR plusminus
ENCODING 177
SWIDTH 457 0
DWIDTH 10 0
BBX 10 21 0 -5
BITMAP
0000
0000
0000
0000
0000
0000
0C00
0C00
0C00
7F80
0C00
0C00
0C00
0000
7F80
0000
0000
0000
0000
0000
0000
ENDCHAR
STARTCHAR uni00B2
ENCODING 178
SWIDTH 457 0
DWIDTH 10 0
BBX 10 21 0 -5
BITMAP
0000
0000
1E00
0300
0300
0300
0600
0C00
1F00
0000
0000
0000
0000
0000
0000
0000
0000
0000
0000
0000
0000
ENDCHAR
STARTCHAR uni00B3
ENCODING 179
SWIDTH 457 0
DWIDTH 10 0
BBX 10 21 0 -5
BITMAP
0000
0000
1E00
0300
0300
0E00
0300
0300
1E00
0000
0000
0000
0000
0000
0000
0000
0000
0000
0000
0000
0000
ENDCHAR
STARTCHAR acute
ENCODING 180
SWIDTH 457 0
DWIDTH 10 0
BBX 10 21 0 -5
BITMAP
0000
0000
0300
0600
0C00
0000
0000
0000
0000
0000
0000
0000
0000
0000
0000
0000
0000
0000
0000
0000
0000
ENDCHAR
STARTCHAR uni00B5
ENCODING 181
SWIDTH 457 0
DWIDTH 10 0
BBX 10 21 0 -5
BITMAP
0000
0000
0000
0000
0000
0000
6180
6180
6180
6180
6180
6180
6180
6180
7380
6E80
6000
6000
6000
6000
0000
ENDCHAR
STARTCHAR paragraph
ENCODING 182
SWIDTH 457 0
DWIDTH 10 0
BBX 10 21 0 -5
BITMAP
0000
0000
0000
1F80
3C80
7C80
7C80
7C80
3C80
1C80
0480
0480
0480
0480
0480
0480
0000
0000
0000
0000
0000
ENDCHAR
STARTCHAR periodcentered
ENCODING 183
SWIDTH 457 0
DWIDTH 10 0
BBX 10 21 0 -5
BITMAP
0000
0000
0000
0000
0000
0000
0000
0000
0000
0C00
0C00
0000
0000
0000
0000
0000
0000
0000
0000
0000
0000
ENDCHAR
STARTCHAR cedilla
ENCODING 184
SWIDTH 457 0
DWIDTH 10 0
BBX 10 21 0 -5
BITMAP
0000
0000
0000
0000
0000
0000
0000
0000
0000
0000
0000
0000
0000
0000
0000
0000
0600
0300
1B00
0E00
0000
ENDCHAR
STARTCHAR uni00B9
ENCODING 185
SWIDTH 457 0
DWIDTH 10 0
BBX 10 21 0 -5
BITMAP
0000
0000
0600
1E00
0600
0600
0600
0600
0600
0000
0000
0000
0000
0000
0000
0000
0000
0000
0000
0000
0000
ENDCHAR
STARTCHAR ordmasculine
ENCODING 186
SWIDTH 457 0
DWIDTH 10 0
BBX 10 21 0 -5
BITMAP
0000
0000
0000
1E00
3300
3300
3300
3300
1E00
0000
0000
3F00
0000
0000
0000
0000
0000
0000
0000
0000
0000
ENDCHAR
STARTCHAR guillemotright
ENCODING 187
SWIDTH 457 0
DWIDTH 10 0
BBX 10 21 0 -5
BITMAP
0000
0000
0000
0000
0000
0000
0000
0000
0000
6C00
3600
1B00
0D80
1B00
3600
6C00
0000
0000
0000
0000
0000
ENDCHAR
STARTCHAR onequarter
ENCODING 188
SWIDTH 457 0
DWIDTH 10 0
BBX 10 21 0 -5
BITMAP
0000
0000
7000
3000
3080
3180
3300
0600
0C00
1880
3180
6380
4580
0980
0F80
0180
0000
0000
0000
0000
0000
ENDCHAR
STARTCHAR onehalf
ENCODING 189
SWIDTH 457 0
DWIDTH 10 0
BBX 10 21 0 -5
BITMAP
0000
0000
7000
3000
3080
3180
3300
0600
0C00
1800
3700
6180
4180
0300
0600
0780
0000
0000
0000
0000
0000
ENDCHAR
STARTCHAR threequarters
ENCODING 190
SWIDTH 457 0
DWIDTH 10 0
BBX 10 21 0 -5
BITMAP
0000
0000
7000
1800
1800
7080
1980
1B00
7600
0C80
1980
3380
6580
4980
0F80
0180
0000
0000
0000
0000
0000
ENDCHAR
STARTCHAR questiondown
ENCODING 191
SWIDTH 457 0
DWIDTH 10 0
BBX 10 21 0 -5
BITMAP
0000
0000
0000
0000
0000
0000
0C00
0C00
0000
0C00
0C00
0C00
1800
3000
6000
6180
6180
3300
1E00
0000
0000
ENDCHAR
STARTCHAR Agrave
ENCODING 192
SWIDTH 457 0
DWIDTH 10 0
BBX 10 21 0 -5
BITMAP
1800
0C00
0600
0000
0C00
1E00
3300
3300
6180
6180
6180
7F80
6180
6180
6180
6180
0000
0000
0000
0000
0000
ENDCHAR
STARTCHAR Aacute
ENCODING 193
SWIDTH 457 0
DWIDTH 10 0
BBX 10 21 0 -5
BITMAP
0600
0C00
1800
0000
0C00
1E00
3300
3300
6180
6180
6180
7F80
6180
6180
6180
6180
0000
0000
0000
0000
0000
ENDCHAR
STARTCHAR Acircumflex
ENCODING 194
SWIDTH 457 0
DWIDTH 10 0
BBX 10 21 0 -5
BITMAP
0C00
1E00
3300
0000
0C00
1E00
3300
3300
6180
6180
6180
7F80
6180
6180
6180
6180
0000
0000
0000
0000
0000
ENDCHAR
STARTCHAR Atilde
ENCODING 195
SWIDTH 457 0
DWIDTH 10 0
BBX 10 21 0 -5
BITMAP
3880
6D80
4700
0000
0C00
1E00
3300
3300
6180
6180
6180
7F80
6180
6180
6180
6180
0000
0000
0000
0000
0000
ENDCHAR
STARTCHAR Adieresis
ENCODING 196
SWIDTH 457 0
DWIDTH 10 0
BBX 10 21 0 -5
BITMAP
0000
6180
6180
0C00
1E00
3300
3300
6180
6180
6180
6180
7F80
6180
6180
6180
6180
0000
0000
0000
0000
0000
ENDCHAR
STARTCHAR Aring
ENCODING 197
SWIDTH 457 0
DWIDTH 10 0
BBX 10 21 0 -5
BITMAP
1E00
3300
3300
1E00
0C00
1E00
3300
3300
6180
6180
6180
7F80
6180
6180
6180
6180
0000
0000
0000
0000
0000
ENDCHAR
STARTCHAR AE
ENCODING 198
SWIDTH 457 0
DWIDTH 10 0
BBX 10 21 0 -5
BITMAP
0000
0000
0000
0F80
1E00
3600
6600
6600
6600
6780
7E00
6600
6600
6600
6600
6780
0000
0000
0000
0000
0000
ENDCHAR
STARTCHAR Ccedilla
ENCODING 199
SWIDTH 457 0
DWIDTH 10 0
BBX 10 21 0 -5
BITMAP
0000
0000
0000
1E00
3380
6180
6000
6000
6000
6000
6000
6000
6000
6180
3380
1E00
0600
0300
1300
0E00
0000
ENDCHAR
STARTCHAR Egrave
ENCODING 200
SWIDTH 457 0
DWIDTH 10 0
BBX 10 21 0 -5
BITMAP
1800
0C00
0600
0000
7F80
6000
6000
6000
6000
7F00
6000
6000
6000
6000
6000
7F80
0000
0000
0000
0000
0000
ENDCHAR
STARTCHAR Eacute
ENCODING 201
SWIDTH 457 0
DWIDTH 10 0
BBX 10 21 0 -5
BITMAP
0300
0600
0C00
0000
7F80
6000
6000
6000
6000
7F00
6000
6000
6000
6000
6000
7F80
0000
0000
0000
0000
0000
ENDCHAR
STARTCHAR Ecircumflex
ENCODING 202
SWIDTH 457 0
DWIDTH 10 0
BBX 10 21 0 -5
BITMAP
0C00
1E00
3300
0000
7F80
6000
6000
6000
6000
7F00
6000
6000
6000
6000
6000
7F80
0000
0000
0000
0000
0000
ENDCHAR
STARTCHAR Edieresis
ENCODING 203
SWIDTH 457 0
DWIDTH 10 0
BBX 10 21 0 -5
BITMAP
0000
6180
6180
0000
7F80
6000
6000
6000
6000
7F00
6000
6000
6000
6000
6000
7F80
0000
0000
0000
0000
0000
ENDCHAR
STARTCHAR Igrave
ENCODING 204
SWIDTH 457 0
DWIDTH 10 0
BBX 10 21 0 -5
BITMAP
3800
1800
0C00
0000
3F00
0C00
0C00
0C00
0C00
0C00
0C00
0C00
0C00
0C00
0C00
3F00
0000
0000
0000
0000
0000
ENDCHAR
STARTCHAR Iacute
ENCODING 205
SWIDTH 457 0
DWIDTH 10 0
BBX 10 21 0 -5
BITMAP
0600
0C00
1800
0000
3F00
0C00
0C00
0C00
0C00
0C00
0C00
0C00
0C00
0C00
0C00
3F00
0000
0000
0000
0000
0000
ENDCHAR
STARTCHAR Icircumflex
ENCODING 206
SWIDTH 457 0
DWIDTH 10 0
BBX 10 21 0 -5
BITMAP
0C00
1E00
3300
0000
3F00
0C00
0C00
0C00
0C00
0C00
0C00
0C00
0C00
0C00
0C00
3F00
0000
0000
0000
0000
0000
ENDCHAR
STARTCHAR Idieresis
ENCODING 207
SWIDTH 457 0
DWIDTH 10 0
BBX 10 21 0 -5
BITMAP
0000
6180
6180
0000
3F00
0C00
0C00
0C00
0C00
0C00
0C00
0C00
0C00
0C00
0C00
3F00
0000
0000
0000
0000
0000
ENDCHAR
STARTCHAR Eth
ENCODING 208
SWIDTH 457 0
DWIDTH 10 0
BBX 10 21 0 -5
BITMAP
0000
0000
0000
7E00
6300
6180
6180
6180
6180
7980
6180
6180
6180
6180
6300
7E00
0000
0000
0000
0000
0000
ENDCHAR
STARTCHAR Ntilde
ENCODING 209
SWIDTH 457 0
DWIDTH 10 0
BBX 10 21 0 -5
BITMAP
3880
6D80
4700
0000
6180
7180
7180
7980
6980
6D80
6580
6780
6380
6380
6180
6180
0000
0000
0000
0000
0000
ENDCHAR
STARTCHAR Ograve
ENCODING 210
SWIDTH 457 0
DWIDTH 10 0
BBX 10 21 0 -5
BITMAP
3000
1800
0C00
0000
1E00
3300
6180
6180
6180
6180
6180
6180
6180
6180
3300
1E00
0000
0000
0000
0000
0000
ENDCHAR
STARTCHAR Oacute
ENCODING 211
SWIDTH 457 0
DWIDTH 10 0
BBX 10 21 0 -5
BITMAP
0300
0600
0C00
0000
1E00
3300
6180
6180
6180
6180
6180
6180
6180
6180
3300
1E00
0000
0000
0000
0000
0000
ENDCHAR
STARTCHAR Ocircumflex
ENCODING 212
SWIDTH 457 0
DWIDTH 10 0
BBX 10 21 0 -5
BITMAP
0C00
1E00
3300
0000
1E00
3300
6180
6180
6180
6180
6180
6180
6180
6180
3300
1E00
0000
0000
0000
0000
0000
ENDCHAR
STARTCHAR Otilde
ENCODING 213
SWIDTH 457 0
DWIDTH 10 0
BBX 10 21 0 -5
BITMAP
3880
6D80
4700
0000
1E00
3300
6180
6180
6180
6180
6180
6180
6180
6180
3300
1E00
0000
0000
0000
0000
0000
ENDCHAR
STARTCHAR Odieresis
ENCODING 214
SWIDTH 457 0
DWIDTH 10 0
BBX 10 21 0 -5
BITMAP
0000
6180
6180
0000
1E00
3300
6180
6180
6180
6180
6180
6180
6180
6180
3300
1E00
0000
0000
0000
0000
0000
ENDCHAR
STARTCHAR multiply
ENCODING 215
SWIDTH 457 0
DWIDTH 10 0
BBX 10 21 0 -5
BITMAP
0000
0000
0000
0000
0000
0000
6180
3300
1E00
0C00
1E00
3300
6180
0000
0000
0000
0000
0000
0000
0000
0000
ENDCHAR
STARTCHAR Oslash
ENCODING 216
SWIDTH 457 0
DWIDTH 10 0
BBX 10 21 0 -5
BITMAP
0000
0000
0000
1E00
3300
6380
6380
6580
6580
6980
6980
6980
7180
7180
3300
1E00
0000
0000
0000
0000
0000
ENDCHAR
STARTCHAR Ugrave
ENCODING 217
SWIDTH 457 0
DWIDTH 10 0
BBX 10 21 0 -5
BITMAP
3000
1800
0C00
0000
6180
6180
6180
6180
6180
6180
6180
6180
6180
6180
3300
1E00
0000
0000
0000
0000
0000
ENDCHAR
STARTCHAR Uacute
ENCODING 218
SWIDTH 457 0
DWIDTH 10 0
BBX 10 21 0 -5
BITMAP
0600
0C00
1800
0000
6180
6180
6180
6180
6180
6180
6180
6180
6180
6180
3300
1E00
0000
0000
0000
0000
0000
ENDCHAR
STARTCHAR Ucircumflex
ENCODING 219
SWIDTH 457 0
DWIDTH 10 0
BBX 10 21 0 -5
BITMAP
0C00
1E00
3300
0000
6180
6180
6180
6180
6180
6180
6180
6180
6180
6180
3300
1E00
0000
0000
0000
0000
0000
ENDCHAR
STARTCHAR Udieresis
ENCODING 220
SWIDTH 457 0
DWIDTH 10 0
BBX 10 21 0 -5
BITMAP
0000
6180
6180
0000
6180
6180
6180
6180
6180
6180
6180
6180
6180
6180
3300
1E00
0000
0000
0000
0000
0000
ENDCHAR
STARTCHAR Yacute
ENCODING 221
SWIDTH 457 0
DWIDTH 10 0
BBX 10 21 0 -5
BITMAP
0300
0600
0C00
6180
6180
6180
6180
3300
3300
1E00
0C00
0C00
0C00
0C00
0C00
0C00
0000
0000
0000
0000
0000
ENDCHAR
STARTCHAR Thorn
ENCODING 222
SWIDTH 457 0
DWIDTH 10 0
BBX 10 21 0 -5
BITMAP
0000
0000
0000
6000
6000
7E00
6300
6180
6180
6180
6180
6180
6300
7E00
6000
6000
0000
0000
0000
0000
0000
ENDCHAR
STARTCHAR germandbls
ENCODING 223
SWIDTH 457 0
DWIDTH 10 0
BBX 10 21 0 -5
BITMAP
0000
0000
0000
1E00
3300
6300
6300
6200
6E00
6300
6180
6180
6180
6180
6300
6E00
6000
0000
0000
0000
0000
ENDCHAR
STARTCHAR agrave
ENCODING 224
SWIDTH 457 0
DWIDTH 10 0
BBX 10 21 0 -5
BITMAP
0000
3000
1800
0C00
0000
0000
1F00
7380
6180
0180
3F80
7180
6180
6180
6380
3D80
0000
0000
0000
0000
0000
ENDCHAR
STARTCHAR aacute
ENCODING 225
SWIDTH 457 0
DWIDTH 10 0
BBX 10 21 0 -5
BITMAP
0000
0600
0C00
1800
0000
0000
1F00
7380
6180
0180
3F80
7180
6180
6180
6380
3D80
0000
0000
0000
0000
0000
ENDCHAR
STARTCHAR acircumflex
ENCODING 226
SWIDTH 457 0
DWIDTH 10 0
BBX 10 21 0 -5
BITMAP
0000
0800
1C00
3600
6300
0000
1F00
7380
6180
0180
3F80
7180
6180
6180
6380
3D80
0000
0000
0000
0000
0000
ENDCHAR
STARTCHAR atilde
ENCODING 227
SWIDTH 457 0
DWIDTH 10 0
BBX 10 21 0 -5
BITMAP
0000
3880
6D80
4700
0000
0000
1F00
7380
6180
0180
3F80
7180
6180
6180
6380
3D80
0000
0000
0000
0000
0000
ENDCHAR
STARTCHAR adieresis
ENCODING 228
SWIDTH 457 0
DWIDTH 10 0
BBX 10 21 0 -5
BITMAP
0000
0000
6180
6180
0000
0000
1F00
7380
6180
0180
3F80
7180
6180
6180
6380
3D80
0000
0000
0000
0000
0000
ENDCHAR
STARTCHAR aring
ENCODING 229
SWIDTH 457 0
DWIDTH 10 0
BBX 10 21 0 -5
BITMAP
0000
1E00
3300
3300
1E00
0000
1F00
7380
6180
0180
3F80
7180
6180
6180
6380
3D80
0000
0000
0000
0000
0000
ENDCHAR
STARTCHAR ae
ENCODING 230
SWIDTH 457 0
DWIDTH 10 0
BBX 10 21 0 -5
BITMAP
0000
0000
0000
0000
0000
0000
3700
5D80
0C80
0C80
3C80
6780
6600
6600
6E80
3700
0000
0000
0000
0000
0000
ENDCHAR
STARTCHAR ccedilla
ENCODING 231
SWIDTH 457 0
DWIDTH 10 0
BBX 10 21 0 -5
BITMAP
0000
0000
0000
0000
0000
0000
1E00
3380
6180
6000
6000
6000
6000
6180
3380
1E00
0600
0300
1300
0E00
0000
ENDCHAR
STARTCHAR egrave
ENCODING 232
SWIDTH 457 0
DWIDTH 10 0
BBX 10 21 0 -5
BITMAP
0000
3000
1800
0C00
0000
0000
1E00
3300
6180
6180
7F80
6000
6000
6180
3380
1E00
0000
0000
0000
0000
0000
ENDCHAR
STARTCHAR eacute
ENCODING 233
SWIDTH 457 0
DWIDTH 10 0
BBX 10 21 0 -5
BITMAP
0000
0300
0600
0C00
0000
0000
1E00
3300
6180
6180
7F80
6000
6000
6180
3380
1E00
0000
0000
0000
0000
0000
ENDCHAR
STARTCHAR ecircumflex
ENCODING 234
SWIDTH 457 0
DWIDTH 10 0
BBX 10 21 0 -5
BITMAP
0000
0400
0E00
1B00
3180
0000
1E00
3300
6180
6180
7F80
6000
6000
6180
3380
1E00
0000
0000
0000
0000
0000
ENDCHAR
STARTCHAR edieresis
ENCODING 235
SWIDTH 457 0
DWIDTH 10 0
BBX 10 21 0 -5
BITMAP
0000
0000
6180
6180
0000
0000
1E00
3300
6180
6180
7F80
6000
6000
6180
3380
1E00
0000
0000
0000
0000
0000
ENDCHAR
STARTCHAR igrave
ENCODING 236
SWIDTH 457 0
DWIDTH 10 0
BBX 10 21 0 -5
BITMAP
0000
3000
1800
0C00
0000
0000
3C00
0C00
0C00
0C00
0C00
0C00
0C00
0C00
0C00
3F00
0000
0000
0000
0000
0000
ENDCHAR
STARTCHAR iacute
ENCODING 237
SWIDTH 457 0
DWIDTH 10 0
BBX 10 21 0 -5
BITMAP
0000
0600
0C00
1800
0000
0000
3C00
0C00
0C00
0C00
0C00
0C00
0C00
0C00
0C00
3F00
0000
0000
0000
0000
0000
ENDCHAR
STARTCHAR icircumflex
ENCODING 238
SWIDTH 457 0
DWIDTH 10 0
BBX 10 21 0 -5
BITMAP
0000
0800
1C00
3600
6300
0000
3C00
0C00
0C00
0C00
0C00
0C00
0C00
0C00
0C00
3F00
0000
0000
0000
0000
0000
ENDCHAR
STARTCHAR idieresis
ENCODING 239
SWIDTH 457 0
DWIDTH 10 0
BBX 10 21 0 -5
BITMAP
0000
0000
6300
6300
0000
0000
3C00
0C00
0C00
0C00
0C00
0C00
0C00
0C00
0C00
3F00
0000
0000
0000
0000
0000
ENDCHAR
STARTCHAR eth
ENCODING 240
SWIDTH 457 0
DWIDTH 10 0
BBX 10 21 0 -5
BITMAP
0000
0000
0000
6200
2E00
1800
6C00
4600
1F00
3300
6180
6180
6180
6180
3300
1E00
0000
0000
0000
0000
0000
ENDCHAR
STARTCHAR ntilde
ENCODING 241
SWIDTH 457 0
DWIDTH 10 0
BBX 10 21 0 -5
BITMAP
0000
3880
6D80
4700
0000
0000
6F00
7380
6180
6180
6180
6180
6180
6180
6180
6180
0000
0000
0000
0000
0000
ENDCHAR
STARTCHAR ograve
ENCODING 242
SWIDTH 457 0
DWIDTH 10 0
BBX 10 21 0 -5
BITMAP
0000
3000
1800
0C00
0000
0000
1E00
3300
6180
6180
6180
6180
6180
6180
3300
1E00
0000
0000
0000
0000
0000
ENDCHAR
STARTCHAR oacute
ENCODING 243
SWIDTH 457 0
DWIDTH 10 0
BBX 10 21 0 -5
BITMAP
0000
0600
0400
1800
0000
0000
1E00
3300
6180
6180
6180
6180
6180
6180
3300
1E00
0000
0000
0000
0000
0000
ENDCHAR
STARTCHAR ocircumflex
ENCODING 244
SWIDTH 457 0
DWIDTH 10 0
BBX 10 21 0 -5
BITMAP
0000
0800
1C00
3600
6300
0000
1E00
3300
6180
6180
6180
6180
6180
6180
3300
1E00
0000
0000
0000
0000
0000
ENDCHAR
STARTCHAR otilde
ENCODING 245
SWIDTH 457 0
DWIDTH 10 0
BBX 10 21 0 -5
BITMAP
0000
3880
6D80
4700
0000
0000
1E00
3300
6180
6180
6180
6180
6180
6180
3300
1E00
0000
0000
0000
0000
0000
ENDCHAR
STARTCHAR odieresis
ENCODING 246
SWIDTH 457 0
DWIDTH 10 0
BBX 10 21 0 -5
BITMAP
0000
0000
6180
6180
0000
0000
1E00
3300
6180
6180
6180
6180
6180
6180
3300
1E00
0000
0000
0000
0000
0000
ENDCHAR
STARTCHAR divide
ENCODING 247
SWIDTH 457 0
DWIDTH 10 0
BBX 10 21 0 -5
BITMAP
0000
0000
0000
0000
0000
0000
0C00
0C00
0000
0000
7F80
0000
0000
0C00
0C00
0000
0000
0000
0000
0000
0000
ENDCHAR
STARTCHAR oslash
ENCODING 248
SWIDTH 457 0
DWIDTH 10 0
BBX 10 21 0 -5
BITMAP
0000
0000
0000
0000
0000
0000
1E00
3300
6380
6580
6580
6980
6980
7180
3300
1E00
0000
0000
0000
0000
0000
ENDCHAR
STARTCHAR ugrave
ENCODING 249
SWIDTH 457 0
DWIDTH 10 0
BBX 10 21 0 -5
BITMAP
0000
1800
0C00
0600
0000
0000
6180
6180
6180
6180
6180
6180
6180
6180
3380
1D80
0000
0000
0000
0000
0000
ENDCHAR
STARTCHAR uacute
ENCODING 250
SWIDTH 457 0
DWIDTH 10 0
BBX 10 21 0 -5
BITMAP
0000
0600
0C00
1800
0000
0000
6180
6180
6180
6180
6180
6180
6180
6180
7380
3D80
0000
0000
0000
0000
0000
ENDCHAR
STARTCHAR ucircumflex
ENCODING 251
SWIDTH 457 0
DWIDTH 10 0
BBX 10 21 0 -5
BITMAP
0000
0800
1C00
3600
6300
0000
6180
6180
6180
6180
6180
6180
6180
6180
3380
1D80
0000
0000
0000
0000
0000
ENDCHAR
STARTCHAR udieresis
ENCODING 252
SWIDTH 457 0
DWIDTH 10 0
BBX 10 21 0 -5
BITMAP
0000
0000
6180
6180
0000
0000
6180
6180
6180
6180
6180
6180
6180
6180
7380
3E80
0000
0000
0000
0000
0000
ENDCHAR
STARTCHAR yacute
ENCODING 253
SWIDTH 457 0
DWIDTH 10 0
BBX 10 21 0 -5
BITMAP
0000
0300
0600
0C00
0000
0000
6180
6180
6180
6180
6180
6180
6180
6180
3380
1D80
0180
0180
6300
3E00
0000
ENDCHAR
STARTCHAR thorn
ENCODING 254
SWIDTH 457 0
DWIDTH 10 0
BBX 10 21 0 -5
BITMAP
0000
0000
0000
6000
6000
6000
6E00
7300
6180
6180
6180
6180
6180
6180
7300
6E00
6000
6000
6000
6000
0000
ENDCHAR
STARTCHAR ydieresis
ENCODING 255
SWIDTH 457 0
DWIDTH 10 0
BBX 10 21 0 -5
BITMAP
0000
0000
6180
6180
0000
0000
6180
6180
6180
6180
6180
6180
6180
6180
3380
1D80
0180
0180
6300
3E00
0000
ENDCHAR
STARTCHAR Amacron
ENCODING 256
SWIDTH 457 0
DWIDTH 10 0
BBX 10 21 0 -5
BITMAP
0000
3F00
0000
0C00
1E00
3300
3300
6180
6180
6180
6180
7F80
6180
6180
6180
6180
0000
0000
0000
0000
0000
ENDCHAR
STARTCHAR amacron
ENCODING 257
SWIDTH 457 0
DWIDTH 10 0
BBX 10 21 0 -5
BITMAP
0000
0000
0000
0000
3F00
0000
1F00
7380
6180
0180
3F80
7180
6180
6180
6380
3D80
0000
0000
0000
0000
0000
ENDCHAR
STARTCHAR Abreve
ENCODING 258
SWIDTH 457 0
DWIDTH 10 0
BBX 10 21 0 -5
BITMAP
2100
3300
1E00
0000
0C00
1E00
3300
3300
6180
6180
6180
7F80
6180
6180
6180
6180
0000
0000
0000
0000
0000
ENDCHAR
STARTCHAR abreve
ENCODING 259
SWIDTH 457 0
DWIDTH 10 0
BBX 10 21 0 -5
BITMAP
0000
0000
2100
3300
1E00
0000
1F00
7380
6180
0180
3F80
7180
6180
6180
6380
3D80
0000
0000
0000
0000
0000
ENDCHAR
STARTCHAR Aogonek
ENCODING 260
SWIDTH 457 0
DWIDTH 10 0
BBX 10 21 0 -5
BITMAP
0000
0000
0000
0C00
1E00
3300
3300
6180
6180
6180
6180
7F80
6180
6180
6180
6180
0180
0300
0340
0180
0000
ENDCHAR
STARTCHAR aogonek
ENCODING 261
SWIDTH 457 0
DWIDTH 10 0
BBX 10 21 0 -5
BITMAP
0000
0000
0000
0000
0000
0000
1F00
7380
6180
0180
3F80
7180
6180
6180
6380
3D80
0180
0300
0340
0180
0000
ENDCHAR
STARTCHAR Cacute
ENCODING 262
SWIDTH 457 0
DWIDTH 10 0
BBX 10 21 0 -5
BITMAP
0300
0600
0C00
0000
1E00
3380
6180
6000
6000
6000
6000
6000
6000
6180
3380
1E00
0000
0000
0000
0000
0000
ENDCHAR
STARTCHAR cacute
ENCODING 263
SWIDTH 457 0
DWIDTH 10 0
BBX 10 21 0 -5
BITMAP
0000
0300
0600
0C00
0000
0000
1E00
3380
6180
6000
6000
6000
6000
6180
3380
1E00
0000
0000
0000
0000
0000
ENDCHAR
STARTCHAR Ccircumflex
ENCODING 264
SWIDTH 457 0
DWIDTH 10 0
BBX 10 21 0 -5
BITMAP
0C00
1E00
3300
0000
1E00
3380
6180
6000
6000
6000
6000
6000
6000
6180
3380
1E00
0000
0000
0000
0000
0000
ENDCHAR
STARTCHAR ccircumflex
ENCODING 265
SWIDTH 457 0
DWIDTH 10 0
BBX 10 21 0 -5
BITMAP
0000
0000
0C00
1E00
3300
0000
1E00
3380
6180
6000
6000
6000
6000
6180
3380
1E00
0000
0000
0000
0000
0000
ENDCHAR
STARTCHAR Cdotaccent
ENCODING 266
SWIDTH 457 0
DWIDTH 10 0
BBX 10 21 0 -5
BITMAP
0000
0C00
0C00
0000
1E00
3380
6180
6000
6000
6000
6000
6000
6000
6180
3380
1E00
0000
0000
0000
0000
0000
ENDCHAR
STARTCHAR cdotaccent
ENCODING 267
SWIDTH 457 0
DWIDTH 10 0
BBX 10 21 0 -5
BITMAP
0000
0000
0C00
0C00
0000
0000
1E00
3380
6180
6000
6000
6000
6000
6180
3380
1E00
0000
0000
0000
0000
0000
ENDCHAR
STARTCHAR Ccaron
ENCODING 268
SWIDTH 457 0
DWIDTH 10 0
BBX 10 21 0 -5
BITMAP
3300
1E00
0C00
0000
1E00
3380
7180
6000
6000
6000
6000
6000
6000
6180
3380
1E00
0000
0000
0000
0000
0000
ENDCHAR
STARTCHAR ccaron
ENCODING 269
SWIDTH 457 0
DWIDTH 10 0
BBX 10 21 0 -5
BITMAP
0000
0000
3300
1E00
0C00
0000
1E00
3380
6180
6000
6000
6000
6000
6180
3380
1E00
0000
0000
0000
0000
0000
ENDCHAR
STARTCHAR Dcaron
ENCODING 270
SWIDTH 457 0
DWIDTH 10 0
BBX 10 21 0 -5
BITMAP
3300
1E00
0C00
0000
7E00
6300
6180
6180
6180
6180
6180
6180
6180
6180
6300
7E00
0000
0000
0000
0000
0000
ENDCHAR
STARTCHAR dcaron
ENCODING 271
SWIDTH 457 0
DWIDTH 10 0
BBX 10 21 0 -5
BITMAP
3300
1E00
0C00
0180
0180
0180
1D80
3380
6180
6180
6180
6180
6180
6180
3380
1D80
0000
0000
0000
0000
0000
ENDCHAR
STARTCHAR Dcroat
ENCODING 272
SWIDTH 457 0
DWIDTH 10 0
BBX 10 21 0 -5
BITMAP
0000
0000
0000
7E00
6300
6180
6180
6180
6180
7980
6180
6180
6180
6180
6300
7E00
0000
0000
0000
0000
0000
ENDCHAR
STARTCHAR dcroat
ENCODING 273
SWIDTH 457 0
DWIDTH 10 0
BBX 10 21 0 -5
BITMAP
0000
0000
0180
0180
0FC0
0180
1D80
3380
6180
6180
6180
6180
6180
6180
3380
1D80
0000
0000
0000
0000
0000
ENDCHAR
STARTCHAR Emacron
ENCODING 274
SWIDTH 457 0
DWIDTH 10 0
BBX 10 21 0 -5
BITMAP
0000
3F00
0000
7F80
6000
6000
6000
6000
6000
7F00
6000
6000
6000
6000
6000
7F80
0000
0000
0000
0000
0000
ENDCHAR
STARTCHAR emacron
ENCODING 275
SWIDTH 457 0
DWIDTH 10 0
BBX 10 21 0 -5
BITMAP
0000
0000
0000
0000
3F00
0000
1E00
3300
6180
6180
7F80
6000
6000
6180
3380
1E00
0000
0000
0000
0000
0000
ENDCHAR
STARTCHAR Ebreve
ENCODING 276
SWIDTH 457 0
DWIDTH 10 0
BBX 10 21 0 -5
BITMAP
4080
6180
3F00
0000
7F80
6000
6000
6000
6000
7F00
6000
6000
6000
6000
6000
7F80
0000
0000
0000
0000
0000
ENDCHAR
STARTCHAR ebreve
ENCODING 277
SWIDTH 457 0
DWIDTH 10 0
BBX 10 21 0 -5
BITMAP
0000
0000
2100
3300
1E00
0000
1E00
3300
6180
6180
7F80
6000
6000
6180
3380
1E00
0000
0000
0000
0000
0000
ENDCHAR
STARTCHAR Edotaccent
ENCODING 278
SWIDTH 457 0
DWIDTH 10 0
BBX 10 21 0 -5
BITMAP
0C00
0C00
0000
7F80
6000
6000
6000
6000
6000
7F00
6000
6000
6000
6000
6000
7F80
0000
0000
0000
0000
0000
ENDCHAR
STARTCHAR edotaccent
ENCODING 279
SWIDTH 457 0
DWIDTH 10 0
BBX 10 21 0 -5
BITMAP
0000
0000
0000
0C00
0C00
0000
1E00
3300
6180
6180
7F80
6000
6000
6180
3380
1E00
0000
0000
0000
0000
0000
ENDCHAR
STARTCHAR Eogonek
ENCODING 280
SWIDTH 457 0
DWIDTH 10 0
BBX 10 21 0 -5
BITMAP
0000
0000
0000
7F80
6000
6000
6000
6000
6000
7F00
6000
6000
6000
6000
6000
7F80
0600
0C00
0D00
0600
0000
ENDCHAR
STARTCHAR eogonek
ENCODING 281
SWIDTH 457 0
DWIDTH 10 0
BBX 10 21 0 -5
BITMAP
0000
0000
0000
0000
0000
0000
1E00
3300
6180
6180
7F80
6000
6000
6180
3380
1F00
0600
0C00
0D00
0600
0000
ENDCHAR
STARTCHAR Ecaron
ENCODING 282
SWIDTH 457 0
DWIDTH 10 0
BBX 10 21 0 -5
BITMAP
3300
1E00
0C00
0000
7F80
6000
6000
6000
6000
7F00
6000
6000
6000
6000
6000
7F80
0000
0000
0000
0000
0000
ENDCHAR
STARTCHAR ecaron
ENCODING 283
SWIDTH 457 0
DWIDTH 10 0
BBX 10 21 0 -5
BITMAP
0000
0000
3300
1E00
0C00
0000
1E00
3300
6180
6180
7F80
6000
6000
6180
3380
1E00
0000
0000
0000
0000
0000
ENDCHAR
STARTCHAR Gcircumflex
ENCODING 284
SWIDTH 457 0
DWIDTH 10 0
BBX 10 21 0 -5
BITMAP
0C00
1E00
3300
0000
1E00
3380
6180
6000
6000
6000
6780
6180
6180
6180
3380
1E00
0000
0000
0000
0000
0000
ENDCHAR
STARTCHAR gcircumflex
ENCODING 285
SWIDTH 457 0
DWIDTH 10 0
BBX 10 21 0 -5
BITMAP
0000
0C00
1E00
3300
0000
0000
1D80
3380
6180
6180
6180
6180
6180
6180
3380
1D80
0180
6180
6300
3E00
0000
ENDCHAR
STARTCHAR Gbreve
ENCODING 286
SWIDTH 457 0
DWIDTH 10 0
BBX 10 21 0 -5
BITMAP
2080
3180
1F00
0000
1E00
3380
6180
6000
6000
6000
6780
6180
6180
6180
3380
1E00
0000
0000
0000
0000
0000
ENDCHAR
STARTCHAR gbreve
ENCODING 287
SWIDTH 457 0
DWIDTH 10 0
BBX 10 21 0 -5
BITMAP
0000
0000
2080
3180
1F00
0000
1D80
3380
6180
6180
6180
6180
6180
6180
3380
1D80
0180
6180
6300
3E00
0000
ENDCHAR
STARTCHAR Gdotaccent
ENCODING 288
SWIDTH 457 0
DWIDTH 10 0
BBX 10 21 0 -5
BITMAP
0000
0C00
0C00
0000
1E00
3380
6180
6000
6000
6000
6780
6180
6180
6180
3380
1E00
0000
0000
0000
0000
0000
ENDCHAR
STARTCHAR gdotaccent
ENCODING 289
SWIDTH 457 0
DWIDTH 10 0
BBX 10 21 0 -5
BITMAP
0000
0000
0C00
0C00
0000
0000
1D80
3380
6180
6180
6180
6180
6180
6180
3380
1D80
0180
6180
6300
3E00
0000
ENDCHAR
STARTCHAR Gcommaaccent
ENCODING 290
SWIDTH 457 0
DWIDTH 10 0
BBX 10 21 0 -5
BITMAP
0000
0000
0000
1E00
3380
6180
6000
6000
6000
6780
6180
6180
6180
6180
3380
1E00
0000
0C00
0C00
1800
0000
ENDCHAR
STARTCHAR gcommaaccent
ENCODING 291
SWIDTH 457 0
DWIDTH 10 0
BBX 10 21 0 -5
BITMAP
0000
0000
0600
0C00
0C00
0000
1D80
3380
6180
6180
6180
6180
6180
6180
3380
1D80
0180
6180
6300
3E00
0000
ENDCHAR
STARTCHAR Hcircumflex
ENCODING 292
SWIDTH 457 0
DWIDTH 10 0
BBX 10 21 0 -5
BITMAP
0C00
1E00
3300
0000
6180
6180
6180
6180
6180
7F80
6180
6180
6180
6180
6180
6180
0000
0000
0000
0000
0000
ENDCHAR
STARTCHAR hcircumflex
ENCODING 293
SWIDTH 457 0
DWIDTH 10 0
BBX 10 21 0 -5
BITMAP
0600
0F00
1980
0000
6000
6000
6000
6F00
7180
6180
6180
6180
6180
6180
6180
6180
0000
0000
0000
0000
0000
ENDCHAR
STARTCHAR Itilde
ENCODING 296
SWIDTH 457 0
DWIDTH 10 0
BBX 10 21 0 -5
BITMAP
3880
6D80
4700
0000
3F00
0C00
0C00
0C00
0C00
0C00
0C00
0C00
0C00
0C00
0C00
3F00
0000
0000
0000
0000
0000
ENDCHAR
STARTCHAR itilde
ENCODING 297
SWIDTH 457 0
DWIDTH 10 0
BBX 10 21 0 -5
BITMAP
0000
0000
3880
6D80
4700
0000
3C00
0C00
0C00
0C00
0C00
0C00
0C00
0C00
0C00
3F00
0000
0000
0000
0000
0000
ENDCHAR
STARTCHAR Imacron
ENCODING 298
SWIDTH 457 0
DWIDTH 10 0
BBX 10 21 0 -5
BITMAP
0000
0000
3F00
0000
3F00
0C00
0C00
0C00
0C00
0C00
0C00
0C00
0C00
0C00
0C00
3F00
0000
0000
0000
0000
0000
ENDCHAR
STARTCHAR imacron
ENCODING 299
SWIDTH 457 0
DWIDTH 10 0
BBX 10 21 0 -5
BITMAP
0000
0000
0000
0000
3E00
0000
3C00
0C00
0C00
0C00
0C00
0C00
0C00
0C00
0C00
3F00
0000
0000
0000
0000
0000
ENDCHAR
STARTCHAR Ibreve
ENCODING 300
SWIDTH 457 0
DWIDTH 10 0
BBX 10 21 0 -5
BITMAP
2100
3300
1E00
0000
3F00
0C00
0C00
0C00
0C00
0C00
0C00
0C00
0C00
0C00
0C00
3F00
0000
0000
0000
0000
0000
ENDCHAR
STARTCHAR ibreve
ENCODING 301
SWIDTH 457 0
DWIDTH 10 0
BBX 10 21 0 -5
BITMAP
0000
0000
2100
3300
1E00
0000
3C00
0C00
0C00
0C00
0C00
0C00
0C00
0C00
0C00
3F00
0000
0000
0000
0000
0000
ENDCHAR
STARTCHAR Iogonek
ENCODING 302
SWIDTH 457 0
DWIDTH 10 0
BBX 10 21 0 -5
BITMAP
0000
0000
0000
3F00
0C00
0C00
0C00
0C00
0C00
0C00
0C00
0C00
0C00
0C00
0C00
3F00
0600
0C00
0D00
0600
0000
ENDCHAR
STARTCHAR iogonek
ENCODING 303
SWIDTH 457 0
DWIDTH 10 0
BBX 10 21 0 -5
BITMAP
0000
0000
0000
0C00
0C00
0000
3C00
0C00
0C00
0C00
0C00
0C00
0C00
0C00
0C00
3F00
0600
0C00
0D00
0600
0000
ENDCHAR
STARTCHAR Idotaccent
ENCODING 304
SWIDTH 457 0
DWIDTH 10 0
BBX 10 21 0 -5
BITMAP
0000
0E00
0E00
0000
3F00
0C00
0C00
0C00
0C00
0C00
0C00
0C00
0C00
0C00
0C00
3F00
0000
0000
0000
0000
0000
ENDCHAR
STARTCHAR dotlessi
ENCODING 305
SWIDTH 457 0
DWIDTH 10 0
BBX 10 21 0 -5
BITMAP
0000
0000
0000
0000
0000
0000
3C00
0C00
0C00
0C00
0C00
0C00
0C00
0C00
0C00
3F00
0000
0000
0000
0000
0000
ENDCHAR
STARTCHAR Jcircumflex
ENCODING 308
SWIDTH 457 0
DWIDTH 10 0
BBX 10 21 0 -5
BITMAP
0C00
1E00
3300
0000
0180
0180
0180
0180
0180
0180
0180
0180
6180
6180
3300
1E00
0000
0000
0000
0000
0000
ENDCHAR
STARTCHAR jcircumflex
ENCODING 309
SWIDTH 457 0
DWIDTH 10 0
BBX 10 21 0 -5
BITMAP
0000
0000
1800
3C00
6600
0000
1E00
0600
0600
0600
0600
0600
0600
0600
0600
0600
0600
0600
0600
3C00
0000
ENDCHAR
STARTCHAR Kcommaaccent
ENCODING 310
SWIDTH 457 0
DWIDTH 10 0
BBX 10 21 0 -5
BITMAP
0000
0000
0000
6080
6180
6300
6600
6C00
7800
7000
7800
6C00
6600
6300
6180
60C0
0000
0C00
0C00
1800
0000
ENDCHAR
STARTCHAR kcommaaccent
ENCODING 311
SWIDTH 457 0
DWIDTH 10 0
BBX 10 21 0 -5
BITMAP
0000
0000
0000
6000
6000
6000
6180
6300
6600
6C00
7800
7C00
6600
6300
6180
6180
0000
0C00
0C00
1800
0000
ENDCHAR
STARTCHAR kgreenlandic
ENCODING 312
SWIDTH 457 0
DWIDTH 10 0
BBX 10 21 0 -5
BITMAP
0000
0000
0000
0000
0000
0000
6180
6300
6600
6C00
7800
7C00
6600
6300
6180
6180
0000
0000
0000
0000
0000
ENDCHAR
STARTCHAR Lacute
ENCODING 313
SWIDTH 457 0
DWIDTH 10 0
BBX 10 21 0 -5
BITMAP
0300
0600
0C00
6000
6000
6000
6000
6000
6000
6000
6000
6000
6000
6000
6000
7F80
0000
0000
0000
0000
0000
ENDCHAR
STARTCHAR lacute
ENCODING 314
SWIDTH 457 0
DWIDTH 10 0
BBX 10 21 0 -5
BITMAP
0300
0600
0C00
0000
1C00
0C00
0C00
0C00
0C00
0C00
0C00
0C00
0C00
0C00
0C00
0700
0000
0000
0000
0000
0000
ENDCHAR
STARTCHAR Lcommaaccent
ENCODING 315
SWIDTH 457 0
DWIDTH 10 0
BBX 10 21 0 -5
BITMAP
0000
0000
0000
6000
6000
6000
6000
6000
6000
6000
6000
6000
6000
6000
6000
7F80
0000
0C00
0C00
1800
0000
ENDCHAR
STARTCHAR lcommaaccent
ENCODING 316
SWIDTH 457 0
DWIDTH 10 0
BBX 10 21 0 -5
BITMAP
0000
0000
0000
1C00
0C00
0C00
0C00
0C00
0C00
0C00
0C00
0C00
0C00
0C00
0C00
0700
0000
0C00
0C00
1800
0000
ENDCHAR
STARTCHAR Lcaron
ENCODING 317
SWIDTH 457 0
DWIDTH 10 0
BBX 10 21 0 -5
BITMAP
1980
0F00
0600
6000
6000
6000
6000
6000
6000
6000
6000
6000
6000
6000
6000
7F80
0000
0000
0000
0000
0000
ENDCHAR
STARTCHAR lcaron
ENCODING 318
SWIDTH 457 0
DWIDTH 10 0
BBX 10 21 0 -5
BITMAP
3300
1E00
0C00
0000
1C00
0C00
0C00
0C00
0C00
0C00
0C00
0C00
0C00
0C00
0C00
0700
0000
0000
0000
0000
0000
ENDCHAR
STARTCHAR Ldot
ENCODING 319
SWIDTH 457 0
DWIDTH 10 0
BBX 10 21 0 -5
BITMAP
0000
0000
0000
6000
6000
6000
6600
6600
6000
6000
6000
6000
6000
6000
6000
7F80
0000
0000
0000
0000
0000
ENDCHAR
STARTCHAR ldot
ENCODING 320
SWIDTH 457 0
DWIDTH 10 0
BBX 10 21 0 -5
BITMAP
0000
0000
0000
1C00
0C00
0C00
0D80
0D80
0C00
0C00
0C00
0C00
0C00
0C00
0C00
0700
0000
0000
0000
0000
0000
ENDCHAR
STARTCHAR Lslash
ENCODING 321
SWIDTH 457 0
DWIDTH 10 0
BBX 10 21 0 -5
BITMAP
0000
0000
0000
3000
3000
3000
3000
3000
3200
3400
3800
3000
7000
3000
3000
3F80
0000
0000
0000
0000
0000
ENDCHAR
STARTCHAR lslash
ENCODING 322
SWIDTH 457 0
DWIDTH 10 0
BBX 10 21 0 -5
BITMAP
0000
0000
0000
1C00
0C00
0C00
0C00
0C00
0D00
0E00
0C00
1C00
2C00
0C00
0C00
0700
0000
0000
0000
0000
0000
ENDCHAR
STARTCHAR Nacute
ENCODING 323
SWIDTH 457 0
DWIDTH 10 0
BBX 10 21 0 -5
BITMAP
0600
0C00
1800
0000
6180
7180
7180
7980
6980
6D80
6580
6780
6380
6380
6180
6180
0000
0000
0000
0000
0000
ENDCHAR
STARTCHAR nacute
ENCODING 324
SWIDTH 457 0
DWIDTH 10 0
BBX 10 21 0 -5
BITMAP
0000
0600
0C00
1800
0000
0000
6F00
7380
6180
6180
6180
6180
6180
6180
6180
6180
0000
0000
0000
0000
0000
ENDCHAR
STARTCHAR Ncommaaccent
ENCODING 325
SWIDTH 457 0
DWIDTH 10 0
BBX 10 21 0 -5
BITMAP
0000
0000
0000
6180
6180
7180
7180
7980
6980
6D80
6580
6780
6380
6380
6180
6180
0000
0C00
0C00
1800
0000
ENDCHAR
STARTCHAR ncommaaccent
ENCODING 326
SWIDTH 457 0
DWIDTH 10 0
BBX 10 21 0 -5
BITMAP
0000
0000
0000
0000
0000
0000
6F00
7380
6180
6180
6180
6180
6180
6180
6180
6180
0000
0C00
0C00
1800
0000
ENDCHAR
STARTCHAR Ncaron
ENCODING 327
SWIDTH 457 0
DWIDTH 10 0
BBX 10 21 0 -5
BITMAP
3300
1E00
0C00
0000
6180
7180
7180
7980
6980
6D80
6580
6780
6380
6380
6180
6180
0000
0000
0000
0000
0000
ENDCHAR
STARTCHAR ncaron
ENCODING 328
SWIDTH 457 0
DWIDTH 10 0
BBX 10 21 0 -5
BITMAP
0000
0000
3300
1E00
0C00
0000
6F00
7380
6180
6180
6180
6180
6180
6180
6180
6180
0000
0000
0000
0000
0000
ENDCHAR
STARTCHAR Omacron
ENCODING 332
SWIDTH 457 0
DWIDTH 10 0
BBX 10 21 0 -5
BITMAP
0000
3F00
0000
1E00
3300
6180
6180
6180
6180
6180
6180
6180
6180
6180
3300
1E00
0000
0000
0000
0000
0000
ENDCHAR
STARTCHAR omacron
ENCODING 333
SWIDTH 457 0
DWIDTH 10 0
BBX 10 21 0 -5
BITMAP
0000
0000
0000
0000
3F00
0000
1E00
3300
6180
6180
6180
6180
6180
6180
3300
1E00
0000
0000
0000
0000
0000
ENDCHAR
STARTCHAR Obreve
ENCODING 334
SWIDTH 457 0
DWIDTH 10 0
BBX 10 21 0 -5
BITMAP
2100
3300
1E00
0000
1E00
3300
6180
6180
6180
6180
6180
6180
6180
6180
3300
1E00
0000
0000
0000
0000
0000
ENDCHAR
STARTCHAR obreve
ENCODING 335
SWIDTH 457 0
DWIDTH 10 0
BBX 10 21 0 -5
BITMAP
0000
0000
6180
3300
1E00
0000
1E00
3300
6180
6180
6180
6180
6180
6180
3300
1E00
0000
0000
0000
0000
0000
ENDCHAR
STARTCHAR Ohungarumlaut
ENCODING 336
SWIDTH 457 0
DWIDTH 10 0
BBX 10 21 0 -5
BITMAP
1980
3300
6600
0000
1E00
3300
6180
6180
6180
6180
6180
6180
6180
6180
3300
1E00
0000
0000
0000
0000
0000
ENDCHAR
STARTCHAR ohungarumlaut
ENCODING 337
SWIDTH 457 0
DWIDTH 10 0
BBX 10 21 0 -5
BITMAP
0000
0000
1980
3300
6600
0000
1E00
3300
6180
6180
6180
6180
6180
6180
3300
1E00
0000
0000
0000
0000
0000
ENDCHAR
STARTCHAR OE
ENCODING 338
SWIDTH 457 0
DWIDTH 10 0
BBX 10 21 0 -5
BITMAP
0000
0000
0000
3B80
6600
6600
6600
6600
6780
6600
6600
6600
6600
6600
6600
3B80
0000
0000
0000
0000
0000
ENDCHAR
STARTCHAR oe
ENCODING 339
SWIDTH 457 0
DWIDTH 10 0
BBX 10 21 0 -5
BITMAP
0000
0000
0000
0000
0000
0000
3300
6D80
4C80
4C80
4C80
4F80
4C00
4C00
6E80
3B80
0000
0000
0000
0000
0000
ENDCHAR
STARTCHAR Racute
ENCODING 340
SWIDTH 457 0
DWIDTH 10 0
BBX 10 21 0 -5
BITMAP
0600
0C00
1800
0000
7E00
6300
6180
6180
6180
6380
7F00
6600
6300
6300
6180
6180
0000
0000
0000
0000
0000
ENDCHAR
STARTCHAR racute
ENCODING 341
SWIDTH 457 0
DWIDTH 10 0
BBX 10 21 0 -5
BITMAP
0000
0300
0600
0C00
0000
0000
3700
3B00
3000
3000
3000
3000
3000
3000
3000
3000
0000
0000
0000
0000
0000
ENDCHAR
STARTCHAR Rcommaaccent
ENCODING 342
SWIDTH 457 0
DWIDTH 10 0
BBX 10 21 0 -5
BITMAP
0000
0000
0000
7E00
6300
6180
6180
6180
6180
6300
7F00
6600
6300
6300
6180
6180
0000
0C00
0C00
1800
0000
ENDCHAR
STARTCHAR rcommaaccent
ENCODING 343
SWIDTH 457 0
DWIDTH 10 0
BBX 10 21 0 -5
BITMAP
0000
0000
0000
0000
0000
0000
3700
3B00
3000
3000
3000
3000
3000
3000
3000
3000
0000
3000
3000
6000
0000
ENDCHAR
STARTCHAR Rcaron
ENCODING 344
SWIDTH 457 0
DWIDTH 10 0
BBX 10 21 0 -5
BITMAP
3300
1E00
0C00
0000
7E00
6300
6180
6180
6300
7E00
6300
6300
6180
6180
6180
6180
0000
0000
0000
0000
0000
ENDCHAR
STARTCHAR rcaron
ENCODING 345
SWIDTH 457 0
DWIDTH 10 0
BBX 10 21 0 -5
BITMAP
0000
0000
3300
1E00
0C00
0000
3700
3B00
3000
3000
3000
3000
3000
3000
3000
3000
0000
0000
0000
0000
0000
ENDCHAR
STARTCHAR Sacute
ENCODING 346
SWIDTH 457 0
DWIDTH 10 0
BBX 10 21 0 -5
BITMAP
0300
0600
0C00
0000
3F00
7300
6180
7180
3800
1E00
0700
0380
6180
6180
3380
3F00
0000
0000
0000
0000
0000
ENDCHAR
STARTCHAR sacute
ENCODING 347
SWIDTH 457 0
DWIDTH 10 0
BBX 10 21 0 -5
BITMAP
0000
0600
0C00
1800
0000
0000
3F00
7380
6180
6000
3C00
0F00
0180
6180
7380
3F00
0000
0000
0000
0000
0000
ENDCHAR
STARTCHAR Scircumflex
ENCODING 348
SWIDTH 457 0
DWIDTH 10 0
BBX 10 21 0 -5
BITMAP
0C00
1E00
3300
0000
3F00
7300
6180
7180
3800
1E00
0700
0380
6180
6180
3380
3F00
0000
0000
0000
0000
0000
ENDCHAR
STARTCHAR scircumflex
ENCODING 349
SWIDTH 457 0
DWIDTH 10 0
BBX 10 21 0 -5
BITMAP
0000
0C00
1E00
3300
0000
0000
3F00
7380
6180
6000
3C00
0F00
0180
6180
7380
3F00
0000
0000
0000
0000
0000
ENDCHAR
STARTCHAR Scedilla
ENCODING 350
SWIDTH 457 0
DWIDTH 10 0
BBX 10 21 0 -5
BITMAP
0000
0000
0000
3F00
7300
6180
6180
7000
3800
1E00
0700
0380
6180
6180
3380
3F00
0600
0C00
0D00
0600
0000
ENDCHAR
STARTCHAR scedilla
ENCODING 351
SWIDTH 457 0
DWIDTH 10 0
BBX 10 21 0 -5
BITMAP
0000
0000
0000
0000
0000
0000
3F00
7380
6180
6000
3C00
0F00
0180
6180
7380
3F00
0600
0C00
0D00
0600
0000
ENDCHAR
STARTCHAR Scaron
ENCODING 352
SWIDTH 457 0
DWIDTH 10 0
BBX 10 21 0 -5
BITMAP
3300
1E00
0C00
0000
3F00
7300
6180
7180
3800
1E00
0700
0380
6180
6180
3380
3F00
0000
0000
0000
0000
0000
ENDCHAR
STARTCHAR scaron
ENCODING 353
SWIDTH 457 0
DWIDTH 10 0
BBX 10 21 0 -5
BITMAP
0000
0000
3300
1E00
0C00
0000
3F00
7380
6180
6000
3C00
0F00
0180
6180
7380
3F00
0000
0000
0000
0000
0000
ENDCHAR
STARTCHAR Tcommaaccent
ENCODING 354
SWIDTH 457 0
DWIDTH 10 0
BBX 10 21 0 -5
BITMAP
0000
0000
0000
0000
7F80
0C00
0C00
0C00
0C00
0C00
0C00
0C00
0C00
0C00
0C00
0C00
0600
0300
1300
0E00
0000
ENDCHAR
STARTCHAR tcommaaccent
ENCODING 355
SWIDTH 457 0
DWIDTH 10 0
BBX 10 21 0 -5
BITMAP
0000
0000
0000
1800
1800
1800
7F00
1800
1800
1800
1800
1800
1800
1800
1C00
0F00
0C00
0600
2600
1C00
0000
ENDCHAR
STARTCHAR Tcaron
ENCODING 356
SWIDTH 457 0
DWIDTH 10 0
BBX 10 21 0 -5
BITMAP
3300
1E00
0C00
0000
7F80
0C00
0C00
0C00
0C00
0C00
0C00
0C00
0C00
0C00
0C00
0C00
0000
0000
0000
0000
0000
ENDCHAR
STARTCHAR tcaron
ENCODING 357
SWIDTH 457 0
DWIDTH 10 0
BBX 10 21 0 -5
BITMAP
3300
1E00
0C00
0000
1800
1800
7F00
1800
1800
1800
1800
1800
1800
1800
1C00
0F00
0000
0000
0000
0000
0000
ENDCHAR
STARTCHAR Tbar
ENCODING 358
SWIDTH 457 0
DWIDTH 10 0
BBX 10 21 0 -5
BITMAP
0000
0000
0000
7F80
0C00
0C00
0C00
0C00
0C00
3F00
0C00
0C00
0C00
0C00
0C00
0C00
0000
0000
0000
0000
0000
ENDCHAR
STARTCHAR tbar
ENCODING 359
SWIDTH 457 0
DWIDTH 10 0
BBX 10 21 0 -5
BITMAP
0000
0000
0000
1800
1800
1800
7F00
1800
1800
1800
7E00
1800
1800
1800
1C00
0F00
0000
0000
0000
0000
0000
ENDCHAR
STARTCHAR Utilde
ENCODING 360
SWIDTH 457 0
DWIDTH 10 0
BBX 10 21 0 -5
BITMAP
3880
6D80
4700
0000
6180
6180
6180
6180
6180
6180
6180
6180
6180
6180
3300
1E00
0000
0000
0000
0000
0000
ENDCHAR
STARTCHAR utilde
ENCODING 361
SWIDTH 457 0
DWIDTH 10 0
BBX 10 21 0 -5
BITMAP
0000
0000
3880
6D80
4700
0000
6180
6180
6180
6180
6180
6180
6180
6180
7380
3E80
0000
0000
0000
0000
0000
ENDCHAR
STARTCHAR Umacron
ENCODING 362
SWIDTH 457 0
DWIDTH 10 0
BBX 10 21 0 -5
BITMAP
0000
3F00
0000
6180
6180
6180
6180
6180
6180
6180
6180
6180
6180
6180
3300
1E00
0000
0000
0000
0000
0000
ENDCHAR
STARTCHAR umacron
ENCODING 363
SWIDTH 457 0
DWIDTH 10 0
BBX 10 21 0 -5
BITMAP
0000
0000
0000
0000
3F00
0000
6180
6180
6180
6180
6180
6180
6180
6180
7380
3D80
0000
0000
0000
0000
0000
ENDCHAR
STARTCHAR Ubreve
ENCODING 364
SWIDTH 457 0
DWIDTH 10 0
BBX 10 21 0 -5
BITMAP
4080
6180
3F00
0000
6180
6180
6180
6180
6180
6180
6180
6180
6180
6180
3300
1E00
0000
0000
0000
0000
0000
ENDCHAR
STARTCHAR ubreve
ENCODING 365
SWIDTH 457 0
DWIDTH 10 0
BBX 10 21 0 -5
BITMAP
0000
0000
4080
6180
3F00
0000
6180
6180
6180
6180
6180
6180
6180
6180
7380
3E80
0000
0000
0000
0000
0000
ENDCHAR
STARTCHAR Uring
ENCODING 366
SWIDTH 457 0
DWIDTH 10 0
BBX 10 21 0 -5
BITMAP
1E00
3300
3300
1E00
6180
6180
6180
6180
6180
6180
6180
6180
6180
6180
3380
1E00
0000
0000
0000
0000
0000
ENDCHAR
STARTCHAR uring
ENCODING 367
SWIDTH 457 0
DWIDTH 10 0
BBX 10 21 0 -5
BITMAP
0000
1E00
3300
3300
1E00
0000
6180
6180
6180
6180
6180
6180
6180
6180
7380
3E80
0000
0000
0000
0000
0000
ENDCHAR
STARTCHAR Uhungarumlaut
ENCODING 368
SWIDTH 457 0
DWIDTH 10 0
BBX 10 21 0 -5
BITMAP
1980
3300
6600
0000
6180
6180
6180
6180
6180
6180
6180
6180
6180
6180
3300
1E00
0000
0000
0000
0000
0000
ENDCHAR
STARTCHAR uhungarumlaut
ENCODING 369
SWIDTH 457 0
DWIDTH 10 0
BBX 10 21 0 -5
BITMAP
0000
0000
1980
3300
6600
0000
6180
6180
6180
6180
6180
6180
6180
6180
7380
3E80
0000
0000
0000
0000
0000
ENDCHAR
STARTCHAR Uogonek
ENCODING 370
SWIDTH 457 0
DWIDTH 10 0
BBX 10 21 0 -5
BITMAP
0000
0000
0000
6180
6180
6180
6180
6180
6180
6180
6180
6180
6180
6180
3300
1E00
0600
0C00
0D00
0600
0000
ENDCHAR
STARTCHAR uogonek
ENCODING 371
SWIDTH 457 0
DWIDTH 10 0
BBX 10 21 0 -5
BITMAP
0000
0000
0000
0000
0000
0000
6180
6180
6180
6180
6180
6180
6180
6180
7380
3D80
0180
0300
0340
0180
0000
ENDCHAR
STARTCHAR Wcircumflex
ENCODING 372
SWIDTH 457 0
DWIDTH 10 0
BBX 10 21 0 -5
BITMAP
0C00
1E00
3300
0000
6180
6180
6180
6180
6180
6D80
6D80
6D80
6D80
3300
3300
3300
0000
0000
0000
0000
0000
ENDCHAR
STARTCHAR wcircumflex
ENCODING 373
SWIDTH 457 0
DWIDTH 10 0
BBX 10 21 0 -5
BITMAP
0000
0000
0C00
1E00
3300
0000
6180
6180
6180
6180
6D80
6D80
6D80
3300
3300
3300
0000
0000
0000
0000
0000
ENDCHAR
STARTCHAR Ycircumflex
ENCODING 374
SWIDTH 457 0
DWIDTH 10 0
BBX 10 21 0 -5
BITMAP
0C00
1E00
3300
0000
6180
6180
6180
3300
3300
1E00
0C00
0C00
0C00
0C00
0C00
0C00
0000
0000
0000
0000
0000
ENDCHAR
STARTCHAR ycircumflex
ENCODING 375
SWIDTH 457 0
DWIDTH 10 0
BBX 10 21 0 -5
BITMAP
0000
0C00
1E00
3300
0000
0000
6180
6180
6180
6180
6180
6180
6180
6180
3380
1D80
0180
0180
6300
3E00
0000
ENDCHAR
STARTCHAR Ydieresis
ENCODING 376
SWIDTH 457 0
DWIDTH 10 0
BBX 10 21 0 -5
BITMAP
0000
6180
6180
0000
6180
6180
6180
3300
3300
1E00
0C00
0C00
0C00
0C00
0C00
0C00
0000
0000
0000
0000
0000
ENDCHAR
STARTCHAR Zacute
ENCODING 377
SWIDTH 457 0
DWIDTH 10 0
BBX 10 21 0 -5
BITMAP
0600
0C00
1800
0000
7F80
0180
0380
0300
0600
0E00
0C00
1C00
3800
7000
6000
7F80
0000
0000
0000
0000
0000
ENDCHAR
STARTCHAR zacute
ENCODING 378
SWIDTH 457 0
DWIDTH 10 0
BBX 10 21 0 -5
BITMAP
0000
0300
0600
0C00
0000
0000
3F80
0180
0300
0700
0600
0C00
1C00
1800
3000
3F80
0000
0000
0000
0000
0000
ENDCHAR
STARTCHAR Zdotaccent
ENCODING 379
SWIDTH 457 0
DWIDTH 10 0
BBX 10 21 0 -5
BITMAP
0000
0C00
0C00
0000
7F80
0180
0380
0300
0600
0E00
1C00
1800
3000
7000
6000
7F80
0000
0000
0000
0000
0000
ENDCHAR
STARTCHAR zdotaccent
ENCODING 380
SWIDTH 457 0
DWIDTH 10 0
BBX 10 21 0 -5
BITMAP
0000
0000
0000
0C00
0C00
0000
3F80
0180
0300
0700
0600
0C00
1C00
1800
3000
3F80
0000
0000
0000
0000
0000
ENDCHAR
STARTCHAR Zcaron
ENCODING 381
SWIDTH 457 0
DWIDTH 10 0
BBX 10 21 0 -5
BITMAP
3300
1E00
0C00
0000
7F80
0180
0380
0300
0600
0E00
1C00
1800
3800
7000
6000
7F80
0000
0000
0000
0000
0000
ENDCHAR
STARTCHAR zcaron
ENCODING 382
SWIDTH 457 0
DWIDTH 10 0
BBX 10 21 0 -5
BITMAP
0000
0000
3300
1E00
0C00
0000
3F80
0180
0300
0700
0600
0C00
1C00
1800
3000
3F80
0000
0000
0000
0000
0000
ENDCHAR
STARTCHAR longs
ENCODING 383
SWIDTH 457 0
DWIDTH 10 0
BBX 10 21 0 -5
BITMAP
0000
0000
0000
0700
0D80
0D80
0C00
0C00
0C00
3C00
0C00
0C00
0C00
0C00
0C00
0C00
0C00
6C00
6C00
3800
0000
ENDCHAR
STARTCHAR florin
ENCODING 402
SWIDTH 457 0
DWIDTH 10 0
BBX 10 21 0 -5
BITMAP
0000
0000
0000
0700
0D80
0D80
0C00
0C00
0C00
3F80
0C00
0C00
0C00
0C00
0C00
0C00
0C00
6C00
6C00
3800
0000
ENDCHAR
STARTCHAR uni01DD
ENCODING 477
SWIDTH 457 0
DWIDTH 10 0
BBX 10 21 0 -5
BITMAP
0000
0000
0000
3C00
7E00
0700
0300
0180
1F80
3380
6180
6180
6180
6180
3300
1E00
0000
0000
0000
0000
0000
ENDCHAR
STARTCHAR Gcaron
ENCODING 486
SWIDTH 457 0
DWIDTH 10 0
BBX 10 21 0 -5
BITMAP
3300
1E00
0C00
0000
1E00
3380
6180
6000
6000
6000
6780
6180
6180
6180
3380
1E00
0000
0000
0000
0000
0000
ENDCHAR
STARTCHAR gcaron
ENCODING 487
SWIDTH 457 0
DWIDTH 10 0
BBX 10 21 0 -5
BITMAP
0000
0000
3300
1E00
0C00
0000
1D80
3380
6180
6180
6180
6180
6180
6180
3380
1D80
0180
6180
6300
3E00
0000
ENDCHAR
STARTCHAR Scommaaccent
ENCODING 536
SWIDTH 457 0
DWIDTH 10 0
BBX 10 21 0 -5
BITMAP
0000
0000
0000
3F00
7300
6180
6180
7000
3800
1E00
0700
0380
6180
6180
3380
3F00
0000
0C00
0C00
1800
0000
ENDCHAR
STARTCHAR scommaaccent
ENCODING 537
SWIDTH 457 0
DWIDTH 10 0
BBX 10 21 0 -5
BITMAP
0000
0000
0000
0000
0000
0000
3F00
7380
6180
6000
3C00
0F00
0180
6180
7380
3F00
0000
0C00
0C00
1800
0000
ENDCHAR
STARTCHAR circumflex
ENCODING 710
SWIDTH 457 0
DWIDTH 10 0
BBX 10 21 0 -5
BITMAP
0000
0000
3300
1E00
0C00
0000
0000
0000
0000
0000
0000
0000
0000
0000
0000
0000
0000
0000
0000
0000
0000
ENDCHAR
STARTCHAR caron
ENCODING 711
SWIDTH 457 0
DWIDTH 10 0
BBX 10 21 0 -5
BITMAP
0000
0C00
1E00
3300
6180
0000
0000
0000
0000
0000
0000
0000
0000
0000
0000
0000
0000
0000
0000
0000
0000
ENDCHAR
STARTCHAR breve
ENCODING 728
SWIDTH 457 0
DWIDTH 10 0
BBX 10 21 0 -5
BITMAP
0000
0000
2100
3300
1E00
0000
0000
0000
0000
0000
0000
0000
0000
0000
0000
0000
0000
0000
0000
0000
0000
ENDCHAR
STARTCHAR dotaccent
ENCODING 729
SWIDTH 457 0
DWIDTH 10 0
BBX 10 21 0 -5
BITMAP
0000
0000
0000
0C00
0C00
0000
0000
0000
0000
0000
0000
0000
0000
0000
0000
0000
0000
0000
0000
0000
0000
ENDCHAR
STARTCHAR ring
ENCODING 730
SWIDTH 457 0
DWIDTH 10 0
BBX 10 21 0 -5
BITMAP
0000
1E00
3300
3300
1E00
0000
0000
0000
0000
0000
0000
0000
0000
0000
0000
0000
0000
0000
0000
0000
0000
ENDCHAR
STARTCHAR ogonek
ENCODING 731
SWIDTH 457 0
DWIDTH 10 0
BBX 10 21 0 -5
BITMAP
0000
0000
0000
0000
0000
0000
0000
0000
0000
0000
0000
0000
0000
0000
0000
0000
0600
0300
1B00
0E00
0000
ENDCHAR
STARTCHAR tilde
ENCODING 732
SWIDTH 457 0
DWIDTH 10 0
BBX 10 21 0 -5
BITMAP
0000
3880
6D80
4700
0000
0000
0000
0000
0000
0000
0000
0000
0000
0000
0000
0000
0000
0000
0000
0000
0000
ENDCHAR
STARTCHAR hungarumlaut
ENCODING 733
SWIDTH 457 0
DWIDTH 10 0
BBX 10 21 0 -5
BITMAP
0000
0000
1980
3300
6600
0000
0000
0000
0000
0000
0000
0000
0000
0000
0000
0000
0000
0000
0000
0000
0000
ENDCHAR
STARTCHAR uni0308
ENCODING 776
SWIDTH 457 0
DWIDTH 10 0
BBX 10 21 0 -5
BITMAP
0000
0000
3300
3300
0000
0000
0000
0000
0000
0000
0000
0000
0000
0000
0000
0000
0000
0000
0000
0000
0000
ENDCHAR
STARTCHAR uni030B
ENCODING 779
SWIDTH 457 0
DWIDTH 10 0
BBX 10 21 0 -5
BITMAP
0000
0000
1980
3300
6600
0000
0000
0000
0000
0000
0000
0000
0000
0000
0000
0000
0000
0000
0000
0000
0000
ENDCHAR
STARTCHAR tonos
ENCODING 900
SWIDTH 457 0
DWIDTH 10 0
BBX 10 21 0 -5
BITMAP
0000
0000
0300
0600
0C00
0000
0000
0000
0000
0000
0000
0000
0000
0000
0000
0000
0000
0000
0000
0000
0000
ENDCHAR
STARTCHAR dieresistonos
ENCODING 901
SWIDTH 457 0
DWIDTH 10 0
BBX 10 21 0 -5
BITMAP
0000
0300
0600
0C00
0000
3300
3300
0000
0000
0000
0000
0000
0000
0000
0000
0000
0000
0000
0000
0000
0000
ENDCHAR
STARTCHAR Alphatonos
ENCODING 902
SWIDTH 457 0
DWIDTH 10 0
BBX 10 21 0 -5
BITMAP
0000
0000
0000
6400
4E00
5B00
1B00
3180
3180
3180
3180
3F80
3180
3180
3180
3180
0000
0000
0000
0000
0000
ENDCHAR
STARTCHAR anoteleia
ENCODING 903
SWIDTH 457 0
DWIDTH 10 0
BBX 10 21 0 -5
BITMAP
0000
0000
0000
0000
0000
0000
0000
0000
0000
0C00
0C00
0000
0000
0000
0000
0000
0000
0000
0000
0000
0000
ENDCHAR
STARTCHAR Epsilontonos
ENCODING 904
SWIDTH 457 0
DWIDTH 10 0
BBX 10 21 0 -5
BITMAP
0000
0000
0000
7FC0
5800
5800
1800
1800
1800
1F80
1800
1800
1800
1800
1800
1FC0
0000
0000
0000
0000
0000
ENDCHAR
STARTCHAR Etatonos
ENCODING 905
SWIDTH 457 0
DWIDTH 10 0
BBX 10 21 0 -5
BITMAP
0000
0000
0000
78C0
58C0
58C0
18C0
18C0
18C0
1FC0
18C0
18C0
18C0
18C0
18C0
18C0
0000
0000
0000
0000
0000
ENDCHAR
STARTCHAR Iotatonos
ENCODING 906
SWIDTH 457 0
DWIDTH 10 0
BBX 10 21 0 -5
BITMAP
0000
0000
0000
6F00
4600
4600
0600
0600
0600
0600
0600
0600
0600
0600
0600
0F00
0000
0000
0000
0000
0000
ENDCHAR
STARTCHAR Omicrontonos
ENCODING 908
SWIDTH 457 0
DWIDTH 10 0
BBX 10 21 0 -5
BITMAP
0000
0000
0000
6F00
5980
70C0
30C0
30C0
30C0
30C0
30C0
30C0
30C0
30C0
1980
0F00
0000
0000
0000
0000
0000
ENDCHAR
STARTCHAR Upsilontonos
ENCODING 910
SWIDTH 457 0
DWIDTH 10 0
BBX 10 21 0 -5
BITMAP
0000
0000
0000
6CC0
4CC0
4CC0
0CC0
0CC0
0CC0
0780
0300
0300
0300
0300
0300
0300
0000
0000
0000
0000
0000
ENDCHAR
STARTCHAR Omegatonos
ENCODING 911
SWIDTH 457 0
DWIDTH 10 0
BBX 10 21 0 -5
BITMAP
0000
0000
0000
3700
6D80
58C0
18C0
18C0
18C0
18C0
18C0
18C0
18C0
0D80
0500
1DC0
0000
0000
0000
0000
0000
ENDCHAR
STARTCHAR iotadieresistonos
ENCODING 912
SWIDTH 457 0
DWIDTH 10 0
BBX 10 21 0 -5
BITMAP
0000
0300
0600
6CC0
60C0
0000
0E00
0600
0600
0600
0600
0600
0600
0600
0680
0300
0000
0000
0000
0000
0000
ENDCHAR
STARTCHAR Alpha
ENCODING 913
SWIDTH 457 0
DWIDTH 10 0
BBX 10 21 0 -5
BITMAP
0000
0000
0000
0C00
1E00
3300
3300
6180
6180
6180
6180
7F80
6180
6180
6180
6180
0000
0000
0000
0000
0000
ENDCHAR
STARTCHAR Beta
ENCODING 914
SWIDTH 457 0
DWIDTH 10 0
BBX 10 21 0 -5
BITMAP
0000
0000
0000
7E00
6300
6180
6180
6180
6300
7E00
6300
6180
6180
6180
6300
7E00
0000
0000
0000
0000
0000
ENDCHAR
STARTCHAR Gamma
ENCODING 915
SWIDTH 457 0
DWIDTH 10 0
BBX 10 21 0 -5
BITMAP
0000
0000
0000
3F80
3000
3000
3000
3000
3000
3000
3000
3000
3000
3000
3000
3000
0000
0000
0000
0000
0000
ENDCHAR
STARTCHAR Delta
ENCODING 916
SWIDTH 457 0
DWIDTH 10 0
BBX 10 21 0 -5
BITMAP
0000
0000
0000
0C00
1E00
3300
3300
6180
6180
6180
6180
6180
6180
6180
6180
7F80
0000
0000
0000
0000
0000
ENDCHAR
STARTCHAR Epsilon
ENCODING 917
SWIDTH 457 0
DWIDTH 10 0
BBX 10 21 0 -5
BITMAP
0000
0000
0000
7F80
6000
6000
6000
6000
6000
7F00
6000
6000
6000
6000
6000
7F80
0000
0000
0000
0000
0000
ENDCHAR
STARTCHAR Zeta
ENCODING 918
SWIDTH 457 0
DWIDTH 10 0
BBX 10 21 0 -5
BITMAP
0000
0000
0000
7F80
0180
0380
0300
0600
0E00
0C00
1C00
1800
3000
7000
6000
7F80
0000
0000
0000
0000
0000
ENDCHAR
STARTCHAR Eta
ENCODING 919
SWIDTH 457 0
DWIDTH 10 0
BBX 10 21 0 -5
BITMAP
0000
0000
0000
6180
6180
6180
6180
6180
6180
7F80
6180
6180
6180
6180
6180
6180
0000
0000
0000
0000
0000
ENDCHAR
STARTCHAR Theta
ENCODING 920
SWIDTH 457 0
DWIDTH 10 0
BBX 10 21 0 -5
BITMAP
0000
0000
0000
1E00
3300
6180
6180
6180
6180
3F80
6180
6180
6180
6180
3300
1E00
0000
0000
0000
0000
0000
ENDCHAR
STARTCHAR Iota
ENCODING 921
SWIDTH 457 0
DWIDTH 10 0
BBX 10 21 0 -5
BITMAP
0000
0000
0000
3F00
0C00
0C00
0C00
0C00
0C00
0C00
0C00
0C00
0C00
0C00
0C00
3F00
0000
0000
0000
0000
0000
ENDCHAR
STARTCHAR Kappa
ENCODING 922
SWIDTH 457 0
DWIDTH 10 0
BBX 10 21 0 -5
BITMAP
0000
0000
0000
6080
6180
6300
6600
6C00
7800
7000
7800
6C00
6600
6300
6180
60C0
0000
0000
0000
0000
0000
ENDCHAR
STARTCHAR Lambda
ENCODING 923
SWIDTH 457 0
DWIDTH 10 0
BBX 10 21 0 -5
BITMAP
0000
0000
0000
0C00
1E00
3300
3300
6180
6180
6180
6180
6180
6180
6180
6180
6180
0000
0000
0000
0000
0000
ENDCHAR
STARTCHAR Mu
ENCODING 924
SWIDTH 457 0
DWIDTH 10 0
BBX 10 21 0 -5
BITMAP
0000
0000
0000
6180
6180
7380
7380
6D80
6D80
6D80
6180
6180
6180
6180
6180
6180
0000
0000
0000
0000
0000
ENDCHAR
STARTCHAR Nu
ENCODING 925
SWIDTH 457 0
DWIDTH 10 0
BBX 10 21 0 -5
BITMAP
0000
0000
0000
6180
6180
7180
7180
7980
6980
6D80
6580
6780
6380
6380
6180
6180
0000
0000
0000
0000
0000
ENDCHAR
STARTCHAR Xi
ENCODING 926
SWIDTH 457 0
DWIDTH 10 0
BBX 10 21 0 -5
BITMAP
0000
0000
0000
7F80
7F80
0000
0000
0000
1E00
1E00
0000
0000
0000
0000
7F80
7F80
0000
0000
0000
0000
0000
ENDCHAR
STARTCHAR Omicron
ENCODING 927
SWIDTH 457 0
DWIDTH 10 0
BBX 10 21 0 -5
BITMAP
0000
0000
0000
1E00
3300
6180
6180
6180
6180
6180
6180
6180
6180
6180
3300
1E00
0000
0000
0000
0000
0000
ENDCHAR
STARTCHAR Pi
ENCODING 928
SWIDTH 457 0
DWIDTH 10 0
BBX 10 21 0 -5
BITMAP
0000
0000
0000
7F80
7F80
6180
6180
6180
6180
6180
6180
6180
6180
6180
6180
6180
0000
0000
0000
0000
0000
ENDCHAR
STARTCHAR Rho
ENCODING 929
SWIDTH 457 0
DWIDTH 10 0
BBX 10 21 0 -5
BITMAP
0000
0000
0000
7E00
6300
6180
6180
6180
6180
6300
7E00
6000
6000
6000
6000
6000
0000
0000
0000
0000
0000
ENDCHAR
STARTCHAR Sigma
ENCODING 931
SWIDTH 457 0
DWIDTH 10 0
BBX 10 21 0 -5
BITMAP
0000
0000
0000
7F80
7000
3800
1C00
0E00
0700
0300
0600
0C00
1800
3000
7F80
7F80
0000
0000
0000
0000
0000
ENDCHAR
STARTCHAR Tau
ENCODING 932
SWIDTH 457 0
DWIDTH 10 0
BBX 10 21 0 -5
BITMAP
0000
0000
0000
7F80
0C00
0C00
0C00
0C00
0C00
0C00
0C00
0C00
0C00
0C00
0C00
0C00
0000
0000
0000
0000
0000
ENDCHAR
STARTCHAR Upsilon
ENCODING 933
SWIDTH 457 0
DWIDTH 10 0
BBX 10 21 0 -5
BITMAP
0000
0000
0000
6180
6180
6180
6180
3300
3300
1E00
0C00
0C00
0C00
0C00
0C00
0C00
0000
0000
0000
0000
0000
ENDCHAR
STARTCHAR Phi
ENCODING 934
SWIDTH 457 0
DWIDTH 10 0
BBX 10 21 0 -5
BITMAP
0000
0000
0000
0C00
0C00
0C00
3F00
6D80
6D80
6D80
6D80
6D80
6D80
6D80
6D80
3F00
0C00
0C00
0C00
0C00
0000
ENDCHAR
STARTCHAR Chi
ENCODING 935
SWIDTH 457 0
DWIDTH 10 0
BBX 10 21 0 -5
BITMAP
0000
0000
0000
6180
6180
3300
3300
1E00
1E00
0C00
1E00
1E00
3300
3300
6180
6180
0000
0000
0000
0000
0000
ENDCHAR
STARTCHAR Psi
ENCODING 936
SWIDTH 457 0
DWIDTH 10 0
BBX 10 21 0 -5
BITMAP
0000
0000
0000
6180
6180
6180
6D80
6D80
6D80
6D80
6D80
6D80
6D80
3F00
0C00
0C00
0000
0000
0000
0000
0000
ENDCHAR
STARTCHAR Omega
ENCODING 937
SWIDTH 457 0
DWIDTH 10 0
BBX 10 21 0 -5
BITMAP
0000
0000
0000
1E00
3300
6180
6180
6180
6180
6180
6180
6180
6180
3300
1200
7380
0000
0000
0000
0000
0000
ENDCHAR
STARTCHAR Iotadieresis
ENCODING 938
SWIDTH 457 0
DWIDTH 10 0
BBX 10 21 0 -5
BITMAP
3300
3300
0000
3F00
0C00
0C00
0C00
0C00
0C00
0C00
0C00
0C00
0C00
0C00
0C00
3F00
0000
0000
0000
0000
0000
ENDCHAR
STARTCHAR Upsilondieresis
ENCODING 939
SWIDTH 457 0
DWIDTH 10 0
BBX 10 21 0 -5
BITMAP
6180
6180
0000
6180
6180
6180
6180
3300
3300
1E00
0C00
0C00
0C00
0C00
0C00
0C00
0000
0000
0000
0000
0000
ENDCHAR
STARTCHAR alphatonos
ENCODING 940
SWIDTH 457 0
DWIDTH 10 0
BBX 10 21 0 -5
BITMAP
0000
0300
0600
0C00
0000
0000
1C80
3780
6300
6300
6300
6300
6300
6300
3780
1C80
0000
0000
0000
0000
0000
ENDCHAR
STARTCHAR epsilontonos
ENCODING 941
SWIDTH 457 0
DWIDTH 10 0
BBX 10 21 0 -5
BITMAP
0000
0300
0600
0C00
0000
0000
3F00
6180
6180
6000
3E00
6000
6000
6180
6180
3F00
0000
0000
0000
0000
0000
ENDCHAR
STARTCHAR etatonos
ENCODING 942
SWIDTH 457 0
DWIDTH 10 0
BBX 10 21 0 -5
BITMAP
0000
0300
0600
0C00
0000
0000
6F00
7380
6180
6180
6180
6180
6180
6180
6180
6180
0000
0000
0000
0000
0000
ENDCHAR
STARTCHAR iotatonos
ENCODING 943
SWIDTH 457 0
DWIDTH 10 0
BBX 10 21 0 -5
BITMAP
0000
0300
0600
0C00
0000
0000
1C00
0C00
0C00
0C00
0C00
0C00
0C00
0C00
0D00
0600
0000
0000
0000
0000
0000
ENDCHAR
STARTCHAR upsilondieresistonos
ENCODING 944
SWIDTH 457 0
DWIDTH 10 0
BBX 10 21 0 -5
BITMAP
0000
0300
0600
6D80
6180
0000
6180
6180
6180
6180
6180
6180
6180
6180
7380
3F00
0000
0000
0000
0000
0000
ENDCHAR
STARTCHAR alpha
ENCODING 945
SWIDTH 457 0
DWIDTH 10 0
BBX 10 21 0 -5
BITMAP
0000
0000
0000
0000
0000
0000
1C80
3780
6300
6300
6300
6300
6300
6300
3780
1C80
0000
0000
0000
0000
0000
ENDCHAR
STARTCHAR beta
ENCODING 946
SWIDTH 457 0
DWIDTH 10 0
BBX 10 21 0 -5
BITMAP
0000
0000
0000
1E00
3300
6300
6300
6200
6E00
6300
6180
6180
6180
6180
7300
6E00
6000
6000
6000
6000
0000
ENDCHAR
STARTCHAR gamma
ENCODING 947
SWIDTH 457 0
DWIDTH 10 0
BBX 10 21 0 -5
BITMAP
0000
0000
0000
0000
0000
0000
6180
6180
6180
3300
1E00
1E00
3300
6180
6180
6180
6180
6180
3300
1E00
0000
ENDCHAR
STARTCHAR delta
ENCODING 948
SWIDTH 457 0
DWIDTH 10 0
BBX 10 21 0 -5
BITMAP
0000
0000
0000
3F00
3000
1800
0C00
0600
1F00
3300
6180
6180
6180
6180
3300
1E00
0000
0000
0000
0000
0000
ENDCHAR
STARTCHAR epsilon
ENCODING 949
SWIDTH 457 0
DWIDTH 10 0
BBX 10 21 0 -5
BITMAP
0000
0000
0000
0000
0000
0000
3F00
6180
6180
6000
3E00
6000
6000
6180
6180
3F00
0000
0000
0000
0000
0000
ENDCHAR
STARTCHAR zeta
ENCODING 950
SWIDTH 457 0
DWIDTH 10 0
BBX 10 21 0 -5
BITMAP
0000
0000
0000
7F80
0600
1800
3000
6000
6000
6000
6000
6000
6000
3000
1E00
0300
0300
0300
1E00
0000
0000
ENDCHAR
STARTCHAR eta
ENCODING 951
SWIDTH 457 0
DWIDTH 10 0
BBX 10 21 0 -5
BITMAP
0000
0000
0000
0000
0000
0000
6F00
7380
6180
6180
6180
6180
6180
6180
6180
6180
0000
0000
0000
0000
0000
ENDCHAR
STARTCHAR theta
ENCODING 952
SWIDTH 457 0
DWIDTH 10 0
BBX 10 21 0 -5
BITMAP
0000
0000
0000
1E00
3300
6180
6180
6180
6180
7F80
6180
6180
6180
6180
3300
1E00
0000
0000
0000
0000
0000
ENDCHAR
STARTCHAR iota
ENCODING 953
SWIDTH 457 0
DWIDTH 10 0
BBX 10 21 0 -5
BITMAP
0000
0000
0000
0000
0000
0000
1C00
0C00
0C00
0C00
0C00
0C00
0C00
0C00
0D00
0600
0000
0000
0000
0000
0000
ENDCHAR
STARTCHAR kappa
ENCODING 954
SWIDTH 457 0
DWIDTH 10 0
BBX 10 21 0 -5
BITMAP
0000
0000
0000
0000
0000
0000
6180
6300
6600
6C00
7800
7C00
6600
6300
6180
6180
0000
0000
0000
0000
0000
ENDCHAR
STARTCHAR lambda
ENCODING 955
SWIDTH 457 0
DWIDTH 10 0
BBX 10 21 0 -5
BITMAP
0000
0000
0000
1E00
3300
6180
0180
0180
1F80
3180
6180
6180
6180
6180
6180
6180
0000
0000
0000
0000
0000
ENDCHAR
STARTCHAR mu
ENCODING 956
SWIDTH 457 0
DWIDTH 10 0
BBX 10 21 0 -5
BITMAP
0000
0000
0000
0000
0000
0000
6180
6180
6180
6180
6180
6180
6180
6180
7380
6E80
6000
6000
6000
6000
0000
ENDCHAR
STARTCHAR nu
ENCODING 957
SWIDTH 457 0
DWIDTH 10 0
BBX 10 21 0 -5
BITMAP
0000
0000
0000
0000
0000
0000
6180
6180
6180
3300
3300
3300
1E00
1E00
0C00
0C00
0000
0000
0000
0000
0000
ENDCHAR
STARTCHAR xi
ENCODING 958
SWIDTH 457 0
DWIDTH 10 0
BBX 10 21 0 -5
BITMAP
0000
0000
0000
7F80
0C00
3000
6000
6000
6000
3800
6000
6000
6000
3000
1E00
0300
0300
0300
1E00
0000
0000
ENDCHAR
STARTCHAR omicron
ENCODING 959
SWIDTH 457 0
DWIDTH 10 0
BBX 10 21 0 -5
BITMAP
0000
0000
0000
0000
0000
0000
1E00
3300
6180
6180
6180
6180
6180
6180
3300
1E00
0000
0000
0000
0000
0000
ENDCHAR
STARTCHAR pi
ENCODING 960
SWIDTH 457 0
DWIDTH 10 0
BBX 10 21 0 -5
BITMAP
0000
0000
0000
0000
0000
0000
7F80
3300
3300
3300
3300
3300
3300
3300
3300
3300
0000
0000
0000
0000
0000
ENDCHAR
STARTCHAR rho
ENCODING 961
SWIDTH 457 0
DWIDTH 10 0
BBX 10 21 0 -5
BITMAP
0000
0000
0000
0000
0000
0000
1E00
3300
6180
6180
6180
6180
6180
6180
7300
6E00
6000
6000
6000
6000
0000
ENDCHAR
STARTCHAR sigma1
ENCODING 962
SWIDTH 457 0
DWIDTH 10 0
BBX 10 21 0 -5
BITMAP
0000
0000
0000
0000
0000
0000
1F00
3180
6000
6000
6000
6000
6000
3000
1E00
0300
0300
0300
0E00
0000
0000
ENDCHAR
STARTCHAR sigma
ENCODING 963
SWIDTH 457 0
DWIDTH 10 0
BBX 10 21 0 -5
BITMAP
0000
0000
0000
0000
0000
0000
1F80
3200
6300
6300
6300
6300
6300
6300
3600
1C00
0000
0000
0000
0000
0000
ENDCHAR
STARTCHAR tau
ENCODING 964
SWIDTH 457 0
DWIDTH 10 0
BBX 10 21 0 -5
BITMAP
0000
0000
0000
0000
0000
0000
7F80
0C00
0C00
0C00
0C00
0C00
0C00
0C00
0C00
0C00
0000
0000
0000
0000
0000
ENDCHAR
STARTCHAR upsilon
ENCODING 965
SWIDTH 457 0
DWIDTH 10 0
BBX 10 21 0 -5
BITMAP
0000
0000
0000
0000
0000
0000
6180
6180
6180
6180
6180
6180
6180
6180
7380
3F00
0000
0000
0000
0000
0000
ENDCHAR
STARTCHAR phi
ENCODING 966
SWIDTH 457 0
DWIDTH 10 0
BBX 10 21 0 -5
BITMAP
0000
0000
0000
0000
0000
0000
6F00
6D80
6D80
6D80
6D80
6D80
6D80
6D80
6D80
3F00
0C00
0C00
0C00
0C00
0000
ENDCHAR
STARTCHAR chi
ENCODING 967
SWIDTH 457 0
DWIDTH 10 0
BBX 10 21 0 -5
BITMAP
0000
0000
0000
0000
0000
0000
6180
6180
3300
1E00
0C00
0C00
1E00
3300
6180
6180
0000
0000
0000
0000
0000
ENDCHAR
STARTCHAR psi
ENCODING 968
SWIDTH 457 0
DWIDTH 10 0
BBX 10 21 0 -5
BITMAP
0000
0000
0000
0000
0000
0000
6180
6180
6180
6D80
6D80
6D80
6D80
6D80
6D80
3F00
0C00
0C00
0C00
0C00
0000
ENDCHAR
STARTCHAR omega
ENCODING 969
SWIDTH 457 0
DWIDTH 10 0
BBX 10 21 0 -5
BITMAP
0000
0000
0000
0000
0000
0000
2100
6180
6180
6180
6D80
6D80
6D80
6D80
6D80
3300
0000
0000
0000
0000
0000
ENDCHAR
STARTCHAR iotadieresis
ENCODING 970
SWIDTH 457 0
DWIDTH 10 0
BBX 10 21 0 -5
BITMAP
0000
0000
3300
3300
0000
0000
1C00
0C00
0C00
0C00
0C00
0C00
0C00
0C00
0D00
0600
0000
0000
0000
0000
0000
ENDCHAR
STARTCHAR upsilondieresis
ENCODING 971
SWIDTH 457 0
DWIDTH 10 0
BBX 10 21 0 -5
BITMAP
0000
0000
3300
3300
0000
0000
6180
6180
6180
6180
6180
6180
6180
6180
7380
3F00
0000
0000
0000
0000
0000
ENDCHAR
STARTCHAR omicrontonos
ENCODING 972
SWIDTH 457 0
DWIDTH 10 0
BBX 10 21 0 -5
BITMAP
0000
0300
0600
0C00
0000
0000
1E00
3300
6180
6180
6180
6180
6180
6180
3300
1E00
0000
0000
0000
0000
0000
ENDCHAR
STARTCHAR upsilontonos
ENCODING 973
SWIDTH 457 0
DWIDTH 10 0
BBX 10 21 0 -5
BITMAP
0000
0300
0600
0C00
0000
0000
6180
6180
6180
6180
6180
6180
6180
6180
7380
3F00
0000
0000
0000
0000
0000
ENDCHAR
STARTCHAR omegatonos
ENCODING 974
SWIDTH 457 0
DWIDTH 10 0
BBX 10 21 0 -5
BITMAP
0000
0300
0600
0C00
0000
0000
2100
6180
6180
6180
6D80
6D80
6D80
6D80
6D80
3300
0000
0000
0000
0000
0000
ENDCHAR
STARTCHAR uni0400
ENCODING 1024
SWIDTH 457 0
DWIDTH 10 0
BBX 10 21 0 -5
BITMAP
1800
0C00
0600
0000
7F80
6000
6000
6000
6000
7F00
6000
6000
6000
6000
6000
7F80
0000
0000
0000
0000
0000
ENDCHAR
STARTCHAR afii10023
ENCODING 1025
SWIDTH 457 0
DWIDTH 10 0
BBX 10 21 0 -5
BITMAP
0000
6180
6180
0000
7F80
6000
6000
6000
6000
7F00
6000
6000
6000
6000
6000
7F80
0000
0000
0000
0000
0000
ENDCHAR
STARTCHAR afii10051
ENCODING 1026
SWIDTH 457 0
DWIDTH 10 0
BBX 10 21 0 -5
BITMAP
0000
0000
0000
FE00
6000
6000
6F00
7380
6180
6180
6180
6180
6180
6180
6300
6600
0000
0000
0000
0000
0000
ENDCHAR
STARTCHAR afii10052
ENCODING 1027
SWIDTH 457 0
DWIDTH 10 0
BBX 10 21 0 -5
BITMAP
0300
0600
0C00
0000
7F80
6000
6000
6000
6000
6000
6000
6000
6000
6000
6000
6000
0000
0000
0000
0000
0000
ENDCHAR
STARTCHAR afii10053
ENCODING 1028
SWIDTH 457 0
DWIDTH 10 0
BBX 10 21 0 -5
BITMAP
0000
0000
0000
1E00
3380
6180
6000
6000
6C00
7600
6000
6000
6000
6180
3380
1E00
0000
0000
0000
0000
0000
ENDCHAR
STARTCHAR afii10054
ENCODING 1029
SWIDTH 457 0
DWIDTH 10 0
BBX 10 21 0 -5
BITMAP
0000
0000
0000
3F00
7300
6180
6180
7000
3800
1E00
0700
0380
6180
6180
3380
3F00
0000
0000
0000
0000
0000
ENDCHAR
STARTCHAR afii10055
ENCODING 1030
SWIDTH 457 0
DWIDTH 10 0
BBX 10 21 0 -5
BITMAP
0000
0000
0000
3F00
0C00
0C00
0C00
0C00
0C00
0C00
0C00
0C00
0C00
0C00
0C00
3F00
0000
0000
0000
0000
0000
ENDCHAR
STARTCHAR afii10056
ENCODING 1031
SWIDTH 457 0
DWIDTH 10 0
BBX 10 21 0 -5
BITMAP
0000
6180
6180
0000
3F00
0C00
0C00
0C00
0C00
0C00
0C00
0C00
0C00
0C00
0C00
3F00
0000
0000
0000
0000
0000
ENDCHAR
STARTCHAR afii10057
ENCODING 1032
SWIDTH 457 0
DWIDTH 10 0
BBX 10 21 0 -5
BITMAP
0000
0000
0000
0180
0180
0180
0180
0180
0180
0180
0180
0180
6180
6180
3300
1E00
0000
0000
0000
0000
0000
ENDCHAR
STARTCHAR afii10058
ENCODING 1033
SWIDTH 457 0
DWIDTH 10 0
BBX 10 21 0 -5
BITMAP
0000
0000
0000
1E00
3600
6600
6600
6600
6600
6780
66C0
66C0
66C0
66C0
66C0
6780
0000
0000
0000
0000
0000
ENDCHAR
STARTCHAR afii10059
ENCODING 1034
SWIDTH 457 0
DWIDTH 10 0
BBX 10 21 0 -5
BITMAP
0000
0000
0000
6600
6600
6600
6600
6600
6600
7F80
66C0
66C0
66C0
66C0
66C0
6780
0000
0000
0000
0000
0000
ENDCHAR
STARTCHAR afii10060
ENCODING 1035
SWIDTH 457 0
DWIDTH 10 0
BBX 10 21 0 -5
BITMAP
0000
0000
0000
FE00
6000
6000
6F00
7380
6180
6180
6180
6180
6180
6180
6180
6180
0000
0000
0000
0000
0000
ENDCHAR
STARTCHAR afii10061
ENCODING 1036
SWIDTH 457 0
DWIDTH 10 0
BBX 10 21 0 -5
BITMAP
0300
0600
0C00
0000
6180
6300
6600
6C00
7800
7000
7800
6C00
6600
6300
6180
60C0
0000
0000
0000
0000
0000
ENDCHAR
STARTCHAR uni040D
ENCODING 1037
SWIDTH 457 0
DWIDTH 10 0
BBX 10 21 0 -5
BITMAP
0000
1800
0C00
0000
6180
6380
6380
6780
6580
6D80
6980
7980
7180
7180
6180
6180
0000
0000
0000
0000
0000
ENDCHAR
STARTCHAR afii10062
ENCODING 1038
SWIDTH 457 0
DWIDTH 10 0
BBX 10 21 0 -5
BITMAP
0000
3300
1E00
0000
6180
6180
6180
3300
3300
1E00
0E00
0C00
0C00
1800
1800
3000
0000
0000
0000
0000
0000
ENDCHAR
STARTCHAR afii10145
ENCODING 1039
SWIDTH 457 0
DWIDTH 10 0
BBX 10 21 0 -5
BITMAP
0000
0000
0000
6180
6180
6180
6180
6180
6180
6180
6180
6180
6180
6180
6180
7F80
0C00
0C00
0C00
0000
0000
ENDCHAR
STARTCHAR afii10017
ENCODING 1040
SWIDTH 457 0
DWIDTH 10 0
BBX 10 21 0 -5
BITMAP
0000
0000
0000
0C00
1E00
3300
3300
6180
6180
6180
6180
7F80
6180
6180
6180
6180
0000
0000
0000
0000
0000
ENDCHAR
STARTCHAR afii10018
ENCODING 1041
SWIDTH 457 0
DWIDTH 10 0
BBX 10 21 0 -5
BITMAP
0000
0000
0000
7F00
6000
6000
6000
6000
7E00
6300
6180
6180
6180
6180
6300
7E00
0000
0000
0000
0000
0000
ENDCHAR
STARTCHAR afii10019
ENCODING 1042
SWIDTH 457 0
DWIDTH 10 0
BBX 10 21 0 -5
BITMAP
0000
0000
0000
7E00
6300
6180
6180
6180
6300
7E00
6300
6180
6180
6180
6300
7E00
0000
0000
0000
0000
0000
ENDCHAR
STARTCHAR afii10020
ENCODING 1043
SWIDTH 457 0
DWIDTH 10 0
BBX 10 21 0 -5
BITMAP
0000
0000
0000
7F80
6000
6000
6000
6000
6000
6000
6000
6000
6000
6000
6000
6000
0000
0000
0000
0000
0000
ENDCHAR
STARTCHAR afii10021
ENCODING 1044
SWIDTH 457 0
DWIDTH 10 0
BBX 10 21 0 -5
BITMAP
0000
0000
0000
0F80
1980
1980
3180
3180
3180
3180
3180
3180
3180
3180
3180
7FC0
60C0
4040
0000
0000
0000
ENDCHAR
STARTCHAR afii10022
ENCODING 1045
SWIDTH 457 0
DWIDTH 10 0
BBX 10 21 0 -5
BITMAP
0000
0000
0000
7F80
6000
6000
6000
6000
6000
7F00
6000
6000
6000
6000
6000
7F80
0000
0000
0000
0000
0000
ENDCHAR
STARTCHAR afii10024
ENCODING 1046
SWIDTH 457 0
DWIDTH 10 0
BBX 10 21 0 -5
BITMAP
0000
0000
0000
6D80
6D80
6D80
6D80
3F00
1E00
0C00
1E00
3F00
6D80
6D80
6D80
6D80
0000
0000
0000
0000
0000
ENDCHAR
STARTCHAR afii10025
ENCODING 1047
SWIDTH 457 0
DWIDTH 10 0
BBX 10 21 0 -5
BITMAP
0000
0000
0000
1E00
3300
6180
0180
0180
0300
1E00
0300
0180
0180
6180
3300
1E00
0000
0000
0000
0000
0000
ENDCHAR
STARTCHAR afii10026
ENCODING 1048
SWIDTH 457 0
DWIDTH 10 0
BBX 10 21 0 -5
BITMAP
0000
0000
0000
6180
6180
6380
6380
6780
6580
6D80
6980
7980
7180
7180
6180
6180
0000
0000
0000
0000
0000
ENDCHAR
STARTCHAR afii10027
ENCODING 1049
SWIDTH 457 0
DWIDTH 10 0
BBX 10 21 0 -5
BITMAP
0000
3300
1E00
0000
6180
6380
6380
6780
6580
6D80
6980
7980
7180
7180
6180
6180
0000
0000
0000
0000
0000
ENDCHAR
STARTCHAR afii10028
ENCODING 1050
SWIDTH 457 0
DWIDTH 10 0
BBX 10 21 0 -5
BITMAP
0000
0000
0000
6080
6180
6300
6600
6C00
7800
7000
7800
6C00
6600
6300
6180
60C0
0000
0000
0000
0000
0000
ENDCHAR
STARTCHAR afii10029
ENCODING 1051
SWIDTH 457 0
DWIDTH 10 0
BBX 10 21 0 -5
BITMAP
0000
0000
0000
0C00
0C00
0C00
1E00
1E00
1E00
3300
3300
3300
3300
6180
6180
6180
0000
0000
0000
0000
0000
ENDCHAR
STARTCHAR afii10030
ENCODING 1052
SWIDTH 457 0
DWIDTH 10 0
BBX 10 21 0 -5
BITMAP
0000
0000
0000
6180
6180
7380
7380
6D80
6D80
6D80
6180
6180
6180
6180
6180
6180
0000
0000
0000
0000
0000
ENDCHAR
STARTCHAR afii10031
ENCODING 1053
SWIDTH 457 0
DWIDTH 10 0
BBX 10 21 0 -5
BITMAP
0000
0000
0000
6180
6180
6180
6180
6180
6180
7F80
6180
6180
6180
6180
6180
6180
0000
0000
0000
0000
0000
ENDCHAR
STARTCHAR afii10032
ENCODING 1054
SWIDTH 457 0
DWIDTH 10 0
BBX 10 21 0 -5
BITMAP
0000
0000
0000
1E00
3300
6180
6180
6180
6180
6180
6180
6180
6180
6180
3300
1E00
0000
0000
0000
0000
0000
ENDCHAR
STARTCHAR afii10033
ENCODING 1055
SWIDTH 457 0
DWIDTH 10 0
BBX 10 21 0 -5
BITMAP
0000
0000
0000
7F80
6180
6180
6180
6180
6180
6180
6180
6180
6180
6180
6180
6180
0000
0000
0000
0000
0000
ENDCHAR
STARTCHAR afii10034
ENCODING 1056
SWIDTH 457 0
DWIDTH 10 0
BBX 10 21 0 -5
BITMAP
0000
0000
0000
7E00
6300
6180
6180
6180
6180
6300
7E00
6000
6000
6000
6000
6000
0000
0000
0000
0000
0000
ENDCHAR
STARTCHAR afii10035
ENCODING 1057
SWIDTH 457 0
DWIDTH 10 0
BBX 10 21 0 -5
BITMAP
0000
0000
0000
1E00
3380
6180
6000
6000
6000
6000
6000
6000
6000
6180
3380
1E00
0000
0000
0000
0000
0000
ENDCHAR
STARTCHAR afii10036
ENCODING 1058
SWIDTH 457 0
DWIDTH 10 0
BBX 10 21 0 -5
BITMAP
0000
0000
0000
7F80
0C00
0C00
0C00
0C00
0C00
0C00
0C00
0C00
0C00
0C00
0C00
0C00
0000
0000
0000
0000
0000
ENDCHAR
STARTCHAR afii10037
ENCODING 1059
SWIDTH 457 0
DWIDTH 10 0
BBX 10 21 0 -5
BITMAP
0000
0000
0000
6180
6180
6180
6180
3300
3300
1E00
0E00
0C00
0C00
1800
1800
3000
0000
0000
0000
0000
0000
ENDCHAR
STARTCHAR afii10038
ENCODING 1060
SWIDTH 457 0
DWIDTH 10 0
BBX 10 21 0 -5
BITMAP
0000
0C00
0C00
1E00
3F00
6D80
6D80
6D80
6D80
6D80
6D80
6D80
3F00
1E00
0C00
0C00
0000
0000
0000
0000
0000
ENDCHAR
STARTCHAR afii10039
ENCODING 1061
SWIDTH 457 0
DWIDTH 10 0
BBX 10 21 0 -5
BITMAP
0000
0000
0000
6180
6180
3300
3300
1E00
1E00
0C00
1E00
1E00
3300
3300
6180
6180
0000
0000
0000
0000
0000
ENDCHAR
STARTCHAR afii10040
ENCODING 1062
SWIDTH 457 0
DWIDTH 10 0
BBX 10 21 0 -5
BITMAP
0000
0000
0000
6180
6180
6180
6180
6180
6180
6180
6180
6180
6180
6180
6180
7FC0
00C0
00C0
0000
0000
0000
ENDCHAR
STARTCHAR afii10041
ENCODING 1063
SWIDTH 457 0
DWIDTH 10 0
BBX 10 21 0 -5
BITMAP
0000
0000
0000
6180
6180
6180
6180
6180
6180
3F80
0180
0180
0180
0180
0180
0180
0000
0000
0000
0000
0000
ENDCHAR
STARTCHAR afii10042
ENCODING 1064
SWIDTH 457 0
DWIDTH 10 0
BBX 10 21 0 -5
BITMAP
0000
0000
0000
6D80
6D80
6D80
6D80
6D80
6D80
6D80
6D80
6D80
6D80
6D80
6D80
7F80
0000
0000
0000
0000
0000
ENDCHAR
STARTCHAR afii10043
ENCODING 1065
SWIDTH 457 0
DWIDTH 10 0
BBX 10 21 0 -5
BITMAP
0000
0000
0000
6D80
6D80
6D80
6D80
6D80
6D80
6D80
6D80
6D80
6D80
6D80
6D80
7FC0
00C0
00C0
0000
0000
0000
ENDCHAR
STARTCHAR afii10044
ENCODING 1066
SWIDTH 457 0
DWIDTH 10 0
BBX 10 21 0 -5
BITMAP
0000
0000
0000
7800
5800
5800
1800
1800
1F80
18C0
18C0
18C0
18C0
18C0
18C0
1F80
0000
0000
0000
0000
0000
ENDCHAR
STARTCHAR afii10045
ENCODING 1067
SWIDTH 457 0
DWIDTH 10 0
BBX 10 21 0 -5
BITMAP
0000
0000
0000
60C0
60C0
60C0
60C0
60C0
7CC0
66C0
66C0
66C0
66C0
66C0
66C0
7CC0
0000
0000
0000
0000
0000
ENDCHAR
STARTCHAR afii10046
ENCODING 1068
SWIDTH 457 0
DWIDTH 10 0
BBX 10 21 0 -5
BITMAP
0000
0000
0000
6000
6000
6000
6000
6000
7F00
6180
6180
6180
6180
6180
6180
7F00
0000
0000
0000
0000
0000
ENDCHAR
STARTCHAR afii10047
ENCODING 1069
SWIDTH 457 0
DWIDTH 10 0
BBX 10 21 0 -5
BITMAP
0000
0000
0000
1E00
3300
6180
0180
0180
0D80
1B80
0180
0180
0180
6180
3300
1E00
0000
0000
0000
0000
0000
ENDCHAR
STARTCHAR afii10048
ENCODING 1070
SWIDTH 457 0
DWIDTH 10 0
BBX 10 21 0 -5
BITMAP
0000
0000
0000
6780
6CC0
6CC0
6CC0
6CC0
6CC0
7CC0
6CC0
6CC0
6CC0
6CC0
6CC0
6780
0000
0000
0000
0000
0000
ENDCHAR
STARTCHAR afii10049
ENCODING 1071
SWIDTH 457 0
DWIDTH 10 0
BBX 10 21 0 -5
BITMAP
0000
0000
0000
1F80
3180
6180
6180
6180
6180
3180
3F80
1980
3180
3180
6180
6180
0000
0000
0000
0000
0000
ENDCHAR
STARTCHAR afii10065
ENCODING 1072
SWIDTH 457 0
DWIDTH 10 0
BBX 10 21 0 -5
BITMAP
0000
0000
0000
0000
0000
0000
1F00
7380
6180
0180
3F80
7180
6180
6180
6380
3D80
0000
0000
0000
0000
0000
ENDCHAR
STARTCHAR afii10066
ENCODING 1073
SWIDTH 457 0
DWIDTH 10 0
BBX 10 21 0 -5
BITMAP
0000
0000
0000
0180
0180
3F00
6000
1E00
3300
6180
6180
6180
6180
6180
3300
1E00
0000
0000
0000
0000
0000
ENDCHAR
STARTCHAR afii10067
ENCODING 1074
SWIDTH 457 0
DWIDTH 10 0
BBX 10 21 0 -5
BITMAP
0000
0000
0000
0000
0000
0000
7F00
6180
6180
6180
7F00
6180
6180
6180
6180
7F00
0000
0000
0000
0000
0000
ENDCHAR
STARTCHAR afii10068
ENCODING 1075
SWIDTH 457 0
DWIDTH 10 0
BBX 10 21 0 -5
BITMAP
0000
0000
0000
0000
0000
0000
7F80
6000
6000
6000
6000
6000
6000
6000
6000
6000
0000
0000
0000
0000
0000
ENDCHAR
STARTCHAR afii10069
ENCODING 1076
SWIDTH 457 0
DWIDTH 10 0
BBX 10 21 0 -5
BITMAP
0000
0000
0000
0000
0000
0000
0780
0D80
1980
1980
1980
3180
3180
3180
3180
7FC0
60C0
4040
0000
0000
0000
ENDCHAR
STARTCHAR afii10070
ENCODING 1077
SWIDTH 457 0
DWIDTH 10 0
BBX 10 21 0 -5
BITMAP
0000
0000
0000
0000
0000
0000
1E00
3300
6180
6180
7F80
6000
6000
6180
3380
1E00
0000
0000
0000
0000
0000
ENDCHAR
STARTCHAR afii10072
ENCODING 1078
SWIDTH 457 0
DWIDTH 10 0
BBX 10 21 0 -5
BITMAP
0000
0000
0000
0000
0000
0000
6D80
6D80
6D80
3F00
1E00
1E00
3F00
6D80
6D80
6D80
0000
0000
0000
0000
0000
ENDCHAR
STARTCHAR afii10073
ENCODING 1079
SWIDTH 457 0
DWIDTH 10 0
BBX 10 21 0 -5
BITMAP
0000
0000
0000
0000
0000
0000
3F00
6180
0180
0180
0F00
0180
0180
0180
6180
3F00
0000
0000
0000
0000
0000
ENDCHAR
STARTCHAR afii10074
ENCODING 1080
SWIDTH 457 0
DWIDTH 10 0
BBX 10 21 0 -5
BITMAP
0000
0000
0000
0000
0000
0000
6180
6180
6380
6780
6580
6D80
6980
7980
7180
6180
0000
0000
0000
0000
0000
ENDCHAR
STARTCHAR afii10075
ENCODING 1081
SWIDTH 457 0
DWIDTH 10 0
BBX 10 21 0 -5
BITMAP
0000
0000
3300
1E00
0000
0000
6180
6180
6380
6780
6580
6D80
6980
7980
7180
6180
0000
0000
0000
0000
0000
ENDCHAR
STARTCHAR afii10076
ENCODING 1082
SWIDTH 457 0
DWIDTH 10 0
BBX 10 21 0 -5
BITMAP
0000
0000
0000
0000
0000
0000
6180
6300
6600
6C00
7800
7C00
6600
6300
6180
6180
0000
0000
0000
0000
0000
ENDCHAR
STARTCHAR afii10077
ENCODING 1083
SWIDTH 457 0
DWIDTH 10 0
BBX 10 21 0 -5
BITMAP
0000
0000
0000
0000
0000
0000
0C00
0C00
0C00
1E00
1E00
3300
3300
3300
6180
6180
0000
0000
0000
0000
0000
ENDCHAR
STARTCHAR afii10078
ENCODING 1084
SWIDTH 457 0
DWIDTH 10 0
BBX 10 21 0 -5
BITMAP
0000
0000
0000
0000
0000
0000
6180
7380
7F80
6D80
6D80
6180
6180
6180
6180
6180
0000
0000
0000
0000
0000
ENDCHAR
STARTCHAR afii10079
ENCODING 1085
SWIDTH 457 0
DWIDTH 10 0
BBX 10 21 0 -5
BITMAP
0000
0000
0000
0000
0000
0000
6180
6180
6180
6180
7F80
6180
6180
6180
6180
6180
0000
0000
0000
0000
0000
ENDCHAR
STARTCHAR afii10080
ENCODING 1086
SWIDTH 457 0
DWIDTH 10 0
BBX 10 21 0 -5
BITMAP
0000
0000
0000
0000
0000
0000
1E00
3300
6180
6180
6180
6180
6180
6180
3300
1E00
0000
0000
0000
0000
0000
ENDCHAR
STARTCHAR afii10081
ENCODING 1087
SWIDTH 457 0
DWIDTH 10 0
BBX 10 21 0 -5
BITMAP
0000
0000
0000
0000
0000
0000
7F80
6180
6180
6180
6180
6180
6180
6180
6180
6180
0000
0000
0000
0000
0000
ENDCHAR
STARTCHAR afii10082
ENCODING 1088
SWIDTH 457 0
DWIDTH 10 0
BBX 10 21 0 -5
BITMAP
0000
0000
0000
0000
0000
0000
6E00
7300
6180
6180
6180
6180
6180
6180
7300
6E00
6000
6000
6000
6000
0000
ENDCHAR
STARTCHAR afii10083
ENCODING 1089
SWIDTH 457 0
DWIDTH 10 0
BBX 10 21 0 -5
BITMAP
0000
0000
0000
0000
0000
0000
1E00
3380
6180
6000
6000
6000
6000
6180
3380
1E00
0000
0000
0000
0000
0000
ENDCHAR
STARTCHAR afii10084
ENCODING 1090
SWIDTH 457 0
DWIDTH 10 0
BBX 10 21 0 -5
BITMAP
0000
0000
0000
0000
0000
0000
0000
7F80
0C00
0C00
0C00
0C00
0C00
0C00
0C00
0C00
0000
0000
0000
0000
0000
ENDCHAR
STARTCHAR afii10085
ENCODING 1091
SWIDTH 457 0
DWIDTH 10 0
BBX 10 21 0 -5
BITMAP
0000
0000
0000
0000
0000
0000
6180
6180
6180
6180
6180
6180
6180
6180
3380
1D80
0180
0180
6300
3E00
0000
ENDCHAR
STARTCHAR afii10086
ENCODING 1092
SWIDTH 457 0
DWIDTH 10 0
BBX 10 21 0 -5
BITMAP
0000
0000
0000
0000
0C00
0C00
1E00
3F00
6D80
6D80
6D80
6D80
6D80
6D80
3F00
1E00
0C00
0C00
0C00
0000
0000
ENDCHAR
STARTCHAR afii10087
ENCODING 1093
SWIDTH 457 0
DWIDTH 10 0
BBX 10 21 0 -5
BITMAP
0000
0000
0000
0000
0000
0000
6180
6180
3300
1E00
0C00
0C00
1E00
3300
6180
6180
0000
0000
0000
0000
0000
ENDCHAR
STARTCHAR afii10088
ENCODING 1094
SWIDTH 457 0
DWIDTH 10 0
BBX 10 21 0 -5
BITMAP
0000
0000
0000
0000
0000
0000
6180
6180
6180
6180
6180
6180
6180
6180
6180
7FC0
00C0
0040
0040
0000
0000
ENDCHAR
STARTCHAR afii10089
ENCODING 1095
SWIDTH 457 0
DWIDTH 10 0
BBX 10 21 0 -5
BITMAP
0000
0000
0000
0000
0000
0000
6180
6180
6180
6180
3F80
0180
0180
0180
0180
0180
0000
0000
0000
0000
0000
ENDCHAR
STARTCHAR afii10090
ENCODING 1096
SWIDTH 457 0
DWIDTH 10 0
BBX 10 21 0 -5
BITMAP
0000
0000
0000
0000
0000
0000
6D80
6D80
6D80
6D80
6D80
6D80
6D80
6D80
6D80
7F80
0000
0000
0000
0000
0000
ENDCHAR
STARTCHAR afii10091
ENCODING 1097
SWIDTH 457 0
DWIDTH 10 0
BBX 10 21 0 -5
BITMAP
0000
0000
0000
0000
0000
0000
6D80
6D80
6D80
6D80
6D80
6D80
6D80
6D80
6D80
7FC0
00C0
0040
0040
0000
0000
ENDCHAR
STARTCHAR afii10092
ENCODING 1098
SWIDTH 457 0
DWIDTH 10 0
BBX 10 21 0 -5
BITMAP
0000
0000
0000
0000
0000
0000
7800
5800
5800
1800
1F00
1980
1980
1980
1980
1F00
0000
0000
0000
0000
0000
ENDCHAR
STARTCHAR afii10093
ENCODING 1099
SWIDTH 457 0
DWIDTH 10 0
BBX 10 21 0 -5
BITMAP
0000
0000
0000
0000
0000
0000
60C0
60C0
60C0
60C0
7CC0
66C0
66C0
66C0
66C0
7CC0
0000
0000
0000
0000
0000
ENDCHAR
STARTCHAR afii10094
ENCODING 1100
SWIDTH 457 0
DWIDTH 10 0
BBX 10 21 0 -5
BITMAP
0000
0000
0000
0000
0000
0000
6000
6000
6000
6000
7F00
6180
6180
6180
6180
7F00
0000
0000
0000
0000
0000
ENDCHAR
STARTCHAR afii10095
ENCODING 1101
SWIDTH 457 0
DWIDTH 10 0
BBX 10 21 0 -5
BITMAP
0000
0000
0000
0000
0000
0000
1E00
3300
6180
0180
0D80
1B80
0180
6180
3300
1E00
0000
0000
0000
0000
0000
ENDCHAR
STARTCHAR afii10096
ENCODING 1102
SWIDTH 457 0
DWIDTH 10 0
BBX 10 21 0 -5
BITMAP
0000
0000
0000
0000
0000
0000
6780
6CC0
6CC0
6CC0
6CC0
7CC0
6CC0
6CC0
6CC0
6780
0000
0000
0000
0000
0000
ENDCHAR
STARTCHAR afii10097
ENCODING 1103
SWIDTH 457 0
DWIDTH 10 0
BBX 10 21 0 -5
BITMAP
0000
0000
0000
0000
0000
0000
1F80
3180
6180
6180
3180
1F80
1980
3180
6180
6180
0000
0000
0000
0000
0000
ENDCHAR
STARTCHAR uni0450
ENCODING 1104
SWIDTH 457 0
DWIDTH 10 0
BBX 10 21 0 -5
BITMAP
0000
3000
1800
0C00
0000
0000
1E00
3300
6180
6180
7F80
6000
6000
6180
3380
1E00
0000
0000
0000
0000
0000
ENDCHAR
STARTCHAR afii10071
ENCODING 1105
SWIDTH 457 0
DWIDTH 10 0
BBX 10 21 0 -5
BITMAP
0000
0000
6180
6180
0000
0000
1E00
3300
6180
6180
7F80
6000
6000
6180
3380
1E00
0000
0000
0000
0000
0000
ENDCHAR
STARTCHAR afii10099
ENCODING 1106
SWIDTH 457 0
DWIDTH 10 0
BBX 10 21 0 -5
BITMAP
0000
0000
0000
0000
6000
6000
FC00
6000
6F00
7180
6180
6180
6180
6180
6180
6180
0300
0600
0C00
0000
0000
ENDCHAR
STARTCHAR afii10100
ENCODING 1107
SWIDTH 457 0
DWIDTH 10 0
BBX 10 21 0 -5
BITMAP
0000
0300
0600
0C00
0000
0000
7F80
6000
6000
6000
6000
6000
6000
6000
6000
6000
0000
0000
0000
0000
0000
ENDCHAR
STARTCHAR afii10101
ENCODING 1108
SWIDTH 457 0
DWIDTH 10 0
BBX 10 21 0 -5
BITMAP
0000
0000
0000
0000
0000
0000
1E00
3300
6180
6000
6C00
7600
6000
6180
3300
1E00
0000
0000
0000
0000
0000
ENDCHAR
STARTCHAR afii10102
ENCODING 1109
SWIDTH 457 0
DWIDTH 10 0
BBX 10 21 0 -5
BITMAP
0000
0000
0000
0000
0000
0000
3F00
7380
6180
6000
3C00
0F00
0180
6180
7380
3F00
0000
0000
0000
0000
0000
ENDCHAR
STARTCHAR afii10103
ENCODING 1110
SWIDTH 457 0
DWIDTH 10 0
BBX 10 21 0 -5
BITMAP
0000
0000
0000
0C00
0C00
0000
3C00
0C00
0C00
0C00
0C00
0C00
0C00
0C00
0C00
3F00
0000
0000
0000
0000
0000
ENDCHAR
STARTCHAR afii10104
ENCODING 1111
SWIDTH 457 0
DWIDTH 10 0
BBX 10 21 0 -5
BITMAP
0000
0000
6300
6300
0000
0000
3C00
0C00
0C00
0C00
0C00
0C00
0C00
0C00
0C00
3F00
0000
0000
0000
0000
0000
ENDCHAR
STARTCHAR afii10105
ENCODING 1112
SWIDTH 457 0
DWIDTH 10 0
BBX 10 21 0 -5
BITMAP
0000
0000
0000
0600
0600
0000
1E00
0600
0600
0600
0600
0600
0600
0600
0600
0600
0600
0600
0600
3C00
0000
ENDCHAR
STARTCHAR afii10106
ENCODING 1113
SWIDTH 457 0
DWIDTH 10 0
BBX 10 21 0 -5
BITMAP
0000
0000
0000
0000
0000
0000
1E00
3600
6600
6600
6780
66C0
66C0
66C0
66C0
6780
0000
0000
0000
0000
0000
ENDCHAR
STARTCHAR afii10107
ENCODING 1114
SWIDTH 457 0
DWIDTH 10 0
BBX 10 21 0 -5
BITMAP
0000
0000
0000
0000
0000
0000
6600
6600
6600
6600
7F80
66C0
66C0
66C0
66C0
6780
0000
0000
0000
0000
0000
ENDCHAR
STARTCHAR afii10108
ENCODING 1115
SWIDTH 457 0
DWIDTH 10 0
BBX 10 21 0 -5
BITMAP
0000
0000
0000
0000
6000
6000
FC00
6000
6F00
7180
6180
6180
6180
6180
6180
6180
0000
0000
0000
0000
0000
ENDCHAR
STARTCHAR afii10109
ENCODING 1116
SWIDTH 457 0
DWIDTH 10 0
BBX 10 21 0 -5
BITMAP
0000
0300
0600
0C00
0000
0000
6180
6300
6600
6C00
7800
7C00
6600
6300
6180
6180
0000
0000
0000
0000
0000
ENDCHAR
STARTCHAR uni045D
ENCODING 1117
SWIDTH 457 0
DWIDTH 10 0
BBX 10 21 0 -5
BITMAP
0000
1800
0C00
0600
0000
0000
6180
6180
6380
6780
6580
6D80
6980
7980
7180
6180
0000
0000
0000
0000
0000
ENDCHAR
STARTCHAR afii10110
ENCODING 1118
SWIDTH 457 0
DWIDTH 10 0
BBX 10 21 0 -5
BITMAP
0000
0000
0000
3300
1E00
0000
6180
6180
6180
6180
6180
6180
6180
6180
3380
1D80
0180
0180
6300
3E00
0000
ENDCHAR
STARTCHAR afii10193
ENCODING 1119
SWIDTH 457 0
DWIDTH 10 0
BBX 10 21 0 -5
BITMAP
0000
0000
0000
0000
0000
0000
6180
6180
6180
6180
6180
6180
6180
6180
6180
7F80
0C00
0C00
0C00
0000
0000
ENDCHAR
STARTCHAR afii10050
ENCODING 1168
SWIDTH 457 0
DWIDTH 10 0
BBX 10 21 0 -5
BITMAP
0000
0080
0180
7F80
6000
6000
6000
6000
6000
6000
6000
6000
6000
6000
6000
6000
0000
0000
0000
0000
0000
ENDCHAR
STARTCHAR afii10098
ENCODING 1169
SWIDTH 457 0
DWIDTH 10 0
BBX 10 21 0 -5
BITMAP
0000
0000
0000
0000
0080
0180
7F80
6000
6000
6000
6000
6000
6000
6000
6000
6000
0000
0000
0000
0000
0000
ENDCHAR
STARTCHAR afii57664
ENCODING 1488
SWIDTH 457 0
DWIDTH 10 0
BBX 10 21 0 -5
BITMAP
0000
0000
0000
0000
6380
6180
3180
3180
3980
6D00
6700
6600
6300
6300
6180
7180
0000
0000
0000
0000
0000
ENDCHAR
STARTCHAR afii57665
ENCODING 1489
SWIDTH 457 0
DWIDTH 10 0
BBX 10 21 0 -5
BITMAP
0000
0000
0000
0000
7E00
0300
0300
0300
0300
0300
0300
0300
0300
0300
0300
7F80
0000
0000
0000
0000
0000
ENDCHAR
STARTCHAR afii57666
ENCODING 1490
SWIDTH 457 0
DWIDTH 10 0
BBX 10 21 0 -5
BITMAP
0000
0000
0000
0000
1C00
0C00
0C00
0600
0600
0600
0700
0B00
1B00
1980
3180
6180
0000
0000
0000
0000
0000
ENDCHAR
STARTCHAR afii57667
ENCODING 1491
SWIDTH 457 0
DWIDTH 10 0
BBX 10 21 0 -5
BITMAP
0000
0000
0000
0000
7F80
0300
0300
0300
0300
0300
0300
0300
0300
0300
0300
0300
0000
0000
0000
0000
0000
ENDCHAR
STARTCHAR afii57668
ENCODING 1492
SWIDTH 457 0
DWIDTH 10 0
BBX 10 21 0 -5
BITMAP
0000
0000
0000
0000
7F00
0180
0180
0180
6180
6180
6180
6180
6180
6180
6180
6180
0000
0000
0000
0000
0000
ENDCHAR
STARTCHAR afii57669
ENCODING 1493
SWIDTH 457 0
DWIDTH 10 0
BBX 10 21 0 -5
BITMAP
0000
0000
0000
0000
3C00
0600
0600
0600
0600
0600
0600
0600
0600
0600
0600
0600
0000
0000
0000
0000
0000
ENDCHAR
STARTCHAR afii57670
ENCODING 1494
SWIDTH 457 0
DWIDTH 10 0
BBX 10 21 0 -5
BITMAP
0000
0000
0000
0000
3F00
0C00
0C00
0C00
0C00
0C00
0600
0600
0600
0600
0600
0600
0000
0000
0000
0000
0000
ENDCHAR
STARTCHAR afii57671
ENCODING 1495
SWIDTH 457 0
DWIDTH 10 0
BBX 10 21 0 -5
BITMAP
0000
0000
0000
0000
7F00
6180
6180
6180
6180
6180
6180
6180
6180
6180
6180
6180
0000
0000
0000
0000
0000
ENDCHAR
STARTCHAR afii57672
ENCODING 1496
SWIDTH 457 0
DWIDTH 10 0
BBX 10 21 0 -5
BITMAP
0000
0000
0000
0000
E700
6D80
6980
6980
6180
6180
6180
6180
6180
6180
6180
3F00
0000
0000
0000
0000
0000
ENDCHAR
STARTCHAR afii57673
ENCODING 1497
SWIDTH 457 0
DWIDTH 10 0
BBX 10 21 0 -5
BITMAP
0000
0000
0000
0000
3C00
0600
0600
0600
0600
0600
0600
0000
0000
0000
0000
0000
0000
0000
0000
0000
0000
ENDCHAR
STARTCHAR afii57674
ENCODING 1498
SWIDTH 457 0
DWIDTH 10 0
BBX 10 21 0 -5
BITMAP
0000
0000
0000
0000
7F80
0300
0300
0300
0300
0300
0300
0300
0300
0300
0300
0300
0300
0300
0300
0380
0000
ENDCHAR
STARTCHAR afii57675
ENCODING 1499
SWIDTH 457 0
DWIDTH 10 0
BBX 10 21 0 -5
BITMAP
0000
0000
0000
0000
7E00
0300
0180
0180
0180
0180
0180
0180
0180
0180
0300
7E00
0000
0000
0000
0000
0000
ENDCHAR
STARTCHAR afii57676
ENCODING 1500
SWIDTH 457 0
DWIDTH 10 0
BBX 10 21 0 -5
BITMAP
0000
6000
6000
6000
7F00
0180
0180
0180
0180
0180
0180
0300
0600
0C00
0C00
0C00
0000
0000
0000
0000
0000
ENDCHAR
STARTCHAR afii57677
ENCODING 1501
SWIDTH 457 0
DWIDTH 10 0
BBX 10 21 0 -5
BITMAP
0000
0000
0000
0000
7F00
2180
6180
6180
6180
6180
6180
6180
6180
6180
6180
7F80
0000
0000
0000
0000
0000
ENDCHAR
STARTCHAR afii57678
ENCODING 1502
SWIDTH 457 0
DWIDTH 10 0
BBX 10 21 0 -5
BITMAP
0000
0000
0000
0000
6700
6D80
7980
7180
6180
6180
6180
6180
6180
6180
6180
6780
0000
0000
0000
0000
0000
ENDCHAR
STARTCHAR afii57679
ENCODING 1503
SWIDTH 457 0
DWIDTH 10 0
BBX 10 21 0 -5
BITMAP
0000
0000
0000
0000
3C00
0600
0600
0600
0600
0600
0600
0600
0600
0600
0600
0600
0600
0600
0600
0780
0000
ENDCHAR
STARTCHAR afii57680
ENCODING 1504
SWIDTH 457 0
DWIDTH 10 0
BBX 10 21 0 -5
BITMAP
0000
0000
0000
0000
1C00
0600
0600
0600
0600
0600
0600
0600
0600
0600
0600
3E00
0000
0000
0000
0000
0000
ENDCHAR
STARTCHAR afii57681
ENCODING 1505
SWIDTH 457 0
DWIDTH 10 0
BBX 10 21 0 -5
BITMAP
0000
0000
0000
0000
7F00
2180
6180
6180
6180
6180
6180
6180
6180
6180
3300
1E00
0000
0000
0000
0000
0000
ENDCHAR
STARTCHAR afii57682
ENCODING 1506
SWIDTH 457 0
DWIDTH 10 0
BBX 10 21 0 -5
BITMAP
0000
0000
0000
0000
7380
3180
3180
3180
3180
3180
3180
3180
3180
3300
3600
7C00
0000
0000
0000
0000
0000
ENDCHAR
STARTCHAR afii57683
ENCODING 1507
SWIDTH 457 0
DWIDTH 10 0
BBX 10 21 0 -5
BITMAP
0000
0000
0000
0000
7E00
2300
6300
6300
6300
6300
7300
0300
0300
0300
0300
0300
0300
0300
0300
0380
0000
ENDCHAR
STARTCHAR afii57684
ENCODING 1508
SWIDTH 457 0
DWIDTH 10 0
BBX 10 21 0 -5
BITMAP
0000
0000
0000
0000
7F00
2180
6180
6180
6180
6180
7980
0180
0180
0180
0180
7F00
0000
0000
0000
0000
0000
ENDCHAR
STARTCHAR afii57685
ENCODING 1509
SWIDTH 457 0
DWIDTH 10 0
BBX 10 21 0 -5
BITMAP
0000
0000
0000
0000
7380
3180
3180
3180
3180
3180
3180
3300
3E00
3000
3000
3000
3000
3000
3000
3800
0000
ENDCHAR
STARTCHAR afii57686
ENCODING 1510
SWIDTH 457 0
DWIDTH 10 0
BBX 10 21 0 -5
BITMAP
0000
0000
0000
0000
7380
3180
3180
3180
3180
1900
0F00
0600
0300
0180
0180
7F80
0000
0000
0000
0000
0000
ENDCHAR
STARTCHAR afii57687
ENCODING 1511
SWIDTH 457 0
DWIDTH 10 0
BBX 10 21 0 -5
BITMAP
0000
0000
0000
0000
7F80
0180
0180
6180
6180
6180
6180
6180
6300
6600
6600
6700
6000
6000
6000
6000
0000
ENDCHAR
STARTCHAR afii57688
ENCODING 1512
SWIDTH 457 0
DWIDTH 10 0
BBX 10 21 0 -5
BITMAP
0000
0000
0000
0000
7F00
0180
0180
0180
0180
0180
0180
0180
0180
0180
0180
0180
0000
0000
0000
0000
0000
ENDCHAR
STARTCHAR afii57689
ENCODING 1513
SWIDTH 457 0
DWIDTH 10 0
BBX 10 21 0 -5
BITMAP
0000
0000
0000
0000
6D80
6D80
6D80
6D80
6D80
6D80
6D80
7980
6180
6180
3300
1E00
0000
0000
0000
0000
0000
ENDCHAR
STARTCHAR afii57690
ENCODING 1514
SWIDTH 457 0
DWIDTH 10 0
BBX 10 21 0 -5
BITMAP
0000
0000
0000
0000
7F00
3180
3180
3180
3180
3180
3180
3180
3180
3180
3180
F180
0000
0000
0000
0000
0000
ENDCHAR
STARTCHAR afii57403
ENCODING 1563
SWIDTH 457 0
DWIDTH 10 0
BBX 10 21 0 -5
BITMAP
0000
0000
0000
0000
0000
0200
0400
0600
0600
0000
0600
0600
0000
0000
0000
0000
0000
0000
0000
0000
0000
ENDCHAR
STARTCHAR afii57407
ENCODING 1567
SWIDTH 457 0
DWIDTH 10 0
BBX 10 21 0 -5
BITMAP
0000
0000
0000
1E00
3300
6180
6180
6000
3000
1800
0C00
0C00
0C00
0000
0C00
0C00
0000
0000
0000
0000
0000
ENDCHAR
STARTCHAR afii57409
ENCODING 1569
SWIDTH 457 0
DWIDTH 10 0
BBX 10 21 0 -5
BITMAP
0000
0000
0000
0000
0000
0000
0000
1C00
3C00
3000
1E00
7C00
3000
0000
0000
0000
0000
0000
0000
0000
0000
ENDCHAR
STARTCHAR afii57410
ENCODING 1570
SWIDTH 457 0
DWIDTH 10 0
BBX 10 21 0 -5
BITMAP
1900
2E00
0000
0C00
0C00
0C00
0C00
0C00
0C00
0C00
0C00
0C00
0C00
0000
0000
0000
0000
0000
0000
0000
0000
ENDCHAR
STARTCHAR afii57411
ENCODING 1571
SWIDTH 457 0
DWIDTH 10 0
BBX 10 21 0 -5
BITMAP
0C00
1000
1C00
3800
0C00
0C00
0C00
0C00
0C00
0C00
0C00
0C00
0C00
0000
0000
0000
0000
0000
0000
0000
0000
ENDCHAR
STARTCHAR afii57412
ENCODING 1572
SWIDTH 457 0
DWIDTH 10 0
BBX 10 21 0 -5
BITMAP
0000
0000
0000
0E00
1000
1E00
3C00
0000
0380
07C0
06C0
07C0
03C0
00C0
00C0
01C0
7F80
3F00
0000
0000
0000
ENDCHAR
STARTCHAR afii57415
ENCODING 1575
SWIDTH 457 0
DWIDTH 10 0
BBX 10 21 0 -5
BITMAP
0000
0000
0C00
0C00
0C00
0C00
0C00
0C00
0C00
0C00
0C00
0C00
0C00
0000
0000
0000
0000
0000
0000
0000
0000
ENDCHAR
STARTCHAR afii57416
ENCODING 1576
SWIDTH 457 0
DWIDTH 10 0
BBX 10 21 0 -5
BITMAP
0000
0000
0000
0000
0000
0000
0000
C0C0
C0C0
C0C0
C0C0
FFC0
7F80
0000
0C00
0C00
0000
0000
0000
0000
0000
ENDCHAR
STARTCHAR afii57417
ENCODING 1577
SWIDTH 457 0
DWIDTH 10 0
BBX 10 21 0 -5
BITMAP
0000
0000
0D80
0D80
0040
03C0
07C0
0CC0
0CC0
0CC0
0CC0
0FC0
0740
0000
0000
0000
0000
0000
0000
0000
0000
ENDCHAR
STARTCHAR afii57418
ENCODING 1578
SWIDTH 457 0
DWIDTH 10 0
BBX 10 21 0 -5
BITMAP
0000
0000
0000
0000
0000
3300
3300
C0C0
C0C0
C0C0
C0C0
FFC0
7F80
0000
0000
0000
0000
0000
0000
0000
0000
ENDCHAR
STARTCHAR afii57419
ENCODING 1579
SWIDTH 457 0
DWIDTH 10 0
BBX 10 21 0 -5
BITMAP
0000
0000
0000
0000
0000
3600
3600
00C0
00C0
00C0
00C0
FFC0
FF80
0000
0000
0000
0000
0000
0000
0000
0000
ENDCHAR
STARTCHAR afii57420
ENCODING 1580
SWIDTH 457 0
DWIDTH 10 0
BBX 10 21 0 -5
BITMAP
0000
0000
0000
0000
0000
0000
0000
0000
7000
FC00
DF00
8FC0
3FC0
7000
E000
C300
C300
C000
E000
7FC0
1FC0
ENDCHAR
STARTCHAR afii57421
ENCODING 1581
SWIDTH 457 0
DWIDTH 10 0
BBX 10 21 0 -5
BITMAP
0000
0000
0000
0000
0000
0000
0000
0000
7000
FC00
DF00
8FC0
3FC0
7000
E000
C000
C000
C000
E000
7FC0
1FC0
ENDCHAR
STARTCHAR afii57422
ENCODING 1582
SWIDTH 457 0
DWIDTH 10 0
BBX 10 21 0 -5
BITMAP
0000
0000
0000
0000
0000
0C00
0C00
0000
7000
FC00
DF00
8FC0
3FC0
7000
E000
C000
C000
C000
E000
7FC0
1FC0
ENDCHAR
STARTCHAR afii57423
ENCODING 1583
SWIDTH 457 0
DWIDTH 10 0
BBX 10 21 0 -5
BITMAP
0000
0000
0000
0000
0000
0000
0100
0380
01C0
00C0
30C0
3FC0
1F80
0000
0000
0000
0000
0000
0000
0000
0000
ENDCHAR
STARTCHAR afii57424
ENCODING 1584
SWIDTH 457 0
DWIDTH 10 0
BBX 10 21 0 -5
BITMAP
0000
0000
0000
0300
0300
0000
0100
0380
01C0
00C0
30C0
3FC0
1F80
0000
0000
0000
0000
0000
0000
0000
0000
ENDCHAR
STARTCHAR afii57425
ENCODING 1585
SWIDTH 457 0
DWIDTH 10 0
BBX 10 21 0 -5
BITMAP
0000
0000
0000
0000
0000
0000
0000
0000
00C0
00C0
00C0
00C0
00C0
00C0
00C0
01C0
7F80
3F00
0000
0000
0000
ENDCHAR
STARTCHAR afii57426
ENCODING 1586
SWIDTH 457 0
DWIDTH 10 0
BBX 10 21 0 -5
BITMAP
0000
0000
0000
0000
00C0
00C0
0000
0000
00C0
00C0
00C0
00C0
00C0
00C0
00C0
01C0
7F80
3F00
0000
0000
0000
ENDCHAR
STARTCHAR afii57427
ENCODING 1587
SWIDTH 457 0
DWIDTH 10 0
BBX 10 21 0 -5
BITMAP
0000
0000
0000
0000
0000
0000
0000
0000
00C0
66C0
66C0
7FC0
7980
6000
6000
E000
C000
0000
0000
0000
0000
ENDCHAR
STARTCHAR afii57428
ENCODING 1588
SWIDTH 457 0
DWIDTH 10 0
BBX 10 21 0 -5
BITMAP
0000
0000
0000
0600
0600
1980
1980
0000
00C0
66C0
66C0
7FC0
7980
6000
6000
E000
C000
0000
0000
0000
0000
ENDCHAR
STARTCHAR afii57429
ENCODING 1589
SWIDTH 457 0
DWIDTH 10 0
BBX 10 21 0 -5
BITMAP
0000
0000
0000
0000
0000
0000
0000
0380
07C0
CEC0
DCC0
FFC0
FF80
6000
6000
E000
C000
0000
0000
0000
0000
ENDCHAR
STARTCHAR afii57430
ENCODING 1590
SWIDTH 457 0
DWIDTH 10 0
BBX 10 21 0 -5
BITMAP
0000
0000
0000
0000
0600
0600
0000
0380
07C0
CEC0
DCC0
FFC0
FF80
6000
6000
E000
C000
0000
0000
0000
0000
ENDCHAR
STARTCHAR afii57431
ENCODING 1591
SWIDTH 457 0
DWIDTH 10 0
BBX 10 21 0 -5
BITMAP
0000
0000
3000
3000
3000
3000
3000
3380
37C0
3EC0
3CC0
FFC0
FF80
0000
0000
0000
0000
0000
0000
0000
0000
ENDCHAR
STARTCHAR afii57432
ENCODING 1592
SWIDTH 457 0
DWIDTH 10 0
BBX 10 21 0 -5
BITMAP
0000
0000
3000
3600
3600
3000
3000
3380
37C0
3EC0
3CC0
FFC0
FF80
0000
0000
0000
0000
0000
0000
0000
0000
ENDCHAR
STARTCHAR afii57433
ENCODING 1593
SWIDTH 457 0
DWIDTH 10 0
BBX 10 21 0 -5
BITMAP
0000
0000
0000
0000
0000
0000
0E00
1F00
3B00
3000
3800
1F80
3F80
7000
6000
C000
C000
C000
E000
7FC0
3FC0
ENDCHAR
STARTCHAR afii57434
ENCODING 1594
SWIDTH 457 0
DWIDTH 10 0
BBX 10 21 0 -5
BITMAP
0000
0000
0C00
0C00
0000
0000
0E00
1F00
3B00
3000
3800
1F80
3F80
7000
6000
C000
C000
C000
E000
7FC0
3FC0
ENDCHAR
STARTCHAR afii57440
ENCODING 1600
SWIDTH 457 0
DWIDTH 10 0
BBX 10 21 0 -5
BITMAP
0000
0000
0000
0000
0000
0000
0000
0000
0000
0000
0000
FFC0
FFC0
0000
0000
0000
0000
0000
0000
0000
0000
ENDCHAR
STARTCHAR afii57441
ENCODING 1601
SWIDTH 457 0
DWIDTH 10 0
BBX 10 21 0 -5
BITMAP
0000
0000
0000
0000
0300
0300
0000
0380
C7C0
C6C0
C3C0
FFC0
7F80
0000
0000
0000
0000
0000
0000
0000
0000
ENDCHAR
STARTCHAR afii57442
ENCODING 1602
SWIDTH 457 0
DWIDTH 10 0
BBX 10 21 0 -5
BITMAP
0000
0000
0000
0000
0000
0D80
0D80
0000
0380
07C0
06C0
67C0
63C0
60C0
60C0
71C0
3F80
1F00
0000
0000
0000
ENDCHAR
STARTCHAR afii57443
ENCODING 1603
SWIDTH 457 0
DWIDTH 10 0
BBX 10 21 0 -5
BITMAP
0000
0000
00C0
18C0
20C0
38C0
70C0
00C0
C0C0
C0C0
C0C0
FFC0
7F80
0000
0000
0000
0000
0000
0000
0000
0000
ENDCHAR
STARTCHAR afii57444
ENCODING 1604
SWIDTH 457 0
DWIDTH 10 0
BBX 10 21 0 -5
BITMAP
0000
0000
00C0
00C0
00C0
00C0
00C0
00C0
00C0
00C0
60C0
60C0
60C0
60C0
60C0
71C0
3F80
1F00
0000
0000
0000
ENDCHAR
STARTCHAR afii57445
ENCODING 1605
SWIDTH 457 0
DWIDTH 10 0
BBX 10 21 0 -5
BITMAP
0000
0000
0000
0000
0000
0000
0000
0380
07C0
06C0
06C0
1FC0
3F80
3000
3000
3000
3000
3000
3000
2000
0000
ENDCHAR
STARTCHAR afii57446
ENCODING 1606
SWIDTH 457 0
DWIDTH 10 0
BBX 10 21 0 -5
BITMAP
0000
0000
0000
0000
0000
0000
0000
0C00
0CC0
00C0
60C0
60C0
60C0
60C0
60C0
71C0
3F80
1F00
0000
0000
0000
ENDCHAR
STARTCHAR afii57470
ENCODING 1607
SWIDTH 457 0
DWIDTH 10 0
BBX 10 21 0 -5
BITMAP
0000
0000
0000
0000
0040
03C0
07C0
0CC0
0CC0
0CC0
0CC0
0FC0
0740
0000
0000
0000
0000
0000
0000
0000
0000
ENDCHAR
STARTCHAR afii57448
ENCODING 1608
SWIDTH 457 0
DWIDTH 10 0
BBX 10 21 0 -5
BITMAP
0000
0000
0000
0000
0000
0000
0000
0000
0380
07C0
06C0
07C0
03C0
00C0
00C0
01C0
7F80
3F00
0000
0000
0000
ENDCHAR
STARTCHAR afii57449
ENCODING 1609
SWIDTH 457 0
DWIDTH 10 0
BBX 10 21 0 -5
BITMAP
0000
0000
0000
0000
0000
0FC0
1FC0
1800
1F00
CF80
C180
C180
C180
FF80
7F00
0000
0000
0000
0000
0000
0000
ENDCHAR
STARTCHAR afii57450
ENCODING 1610
SWIDTH 457 0
DWIDTH 10 0
BBX 10 21 0 -5
BITMAP
0000
0000
0000
0000
0000
0FC0
1FC0
1C00
1F00
C780
C180
C180
C180
FF80
7F00
0000
6C00
6C00
0000
0000
0000
ENDCHAR
STARTCHAR afii57457
ENCODING 1617
SWIDTH 457 0
DWIDTH 10 0
BBX 10 21 0 -5
BITMAP
0000
0000
0000
2A00
2A00
1400
0000
0000
0000
0000
0000
0000
0000
0000
0000
0000
0000
0000
0000
0000
0000
ENDCHAR
STARTCHAR afii57392
ENCODING 1632
SWIDTH 457 0
DWIDTH 10 0
BBX 10 21 0 -5
BITMAP
0000
0000
0000
0000
0000
0000
0000
0000
0C00
1E00
1E00
0C00
0000
0000
0000
0000
0000
0000
0000
0000
0000
ENDCHAR
STARTCHAR afii57393
ENCODING 1633
SWIDTH 457 0
DWIDTH 10 0
BBX 10 21 0 -5
BITMAP
0000
0000
0000
0000
0000
0C00
0C00
0C00
0C00
0C00
0C00
0C00
0C00
0C00
0C00
0C00
0C00
0000
0000
0000
0000
ENDCHAR
STARTCHAR afii57394
ENCODING 1634
SWIDTH 457 0
DWIDTH 10 0
BBX 10 21 0 -5
BITMAP
0000
0000
0000
0000
0000
3F00
3F00
3000
3000
3000
3000
3000
3000
3000
3000
3000
3000
0000
0000
0000
0000
ENDCHAR
STARTCHAR afii57395
ENCODING 1635
SWIDTH 457 0
DWIDTH 10 0
BBX 10 21 0 -5
BITMAP
0000
0000
0000
0000
0000
6D80
6D80
7F80
7300
6000
6000
6000
6000
6000
6000
6000
6000
0000
0000
0000
0000
ENDCHAR
STARTCHAR afii57396
ENCODING 1636
SWIDTH 457 0
DWIDTH 10 0
BBX 10 21 0 -5
BITMAP
0000
0000
0000
0000
0000
1E00
3E00
3000
3000
3000
1E00
1E00
3000
3000
3000
1F00
0F00
0000
0000
0000
0000
ENDCHAR
STARTCHAR afii57397
ENCODING 1637
SWIDTH 457 0
DWIDTH 10 0
BBX 10 21 0 -5
BITMAP
0000
0000
0000
0000
0000
0000
1F00
3F80
3180
3180
3180
3180
3180
3180
3180
3F80
1F00
0000
0000
0000
0000
ENDCHAR
STARTCHAR afii57398
ENCODING 1638
SWIDTH 457 0
DWIDTH 10 0
BBX 10 21 0 -5
BITMAP
0000
0000
0000
0000
0000
7F00
7F00
0300
0300
0300
0300
0300
0300
0300
0300
0300
0300
0000
0000
0000
0000
ENDCHAR
STARTCHAR afii57399
ENCODING 1639
SWIDTH 457 0
DWIDTH 10 0
BBX 10 21 0 -5
BITMAP
0000
0000
0000
0000
0000
6180
6180
6180
3300
3300
3300
3300
1E00
1E00
1E00
0C00
0C00
0000
0000
0000
0000
ENDCHAR
STARTCHAR afii57400
ENCODING 1640
SWIDTH 457 0
DWIDTH 10 0
BBX 10 21 0 -5
BITMAP
0000
0000
0000
0000
0000
0C00
0C00
1E00
1E00
1E00
3300
3300
3300
3300
6180
6180
6180
0000
0000
0000
0000
ENDCHAR
STARTCHAR afii57401
ENCODING 1641
SWIDTH 457 0
DWIDTH 10 0
BBX 10 21 0 -5
BITMAP
0000
0000
0000
0000
0000
1F80
3F80
3180
3180
3F80
1F80
0180
0180
0180
0180
0180
0180
0000
0000
0000
0000
ENDCHAR
STARTCHAR afii57381
ENCODING 1642
SWIDTH 457 0
DWIDTH 10 0
BBX 10 21 0 -5
BITMAP
0000
0000
0000
3800
6C00
6C80
3980
0300
0600
0C00
1800
3000
6700
4D80
0D80
0700
0000
0000
0000
0000
0000
ENDCHAR
STARTCHAR uni066C
ENCODING 1644
SWIDTH 457 0
DWIDTH 10 0
BBX 10 21 0 -5
BITMAP
0000
0000
0000
0000
0000
0000
0000
0000
0000
0400
0800
0C00
0C00
0000
0000
0000
0000
0000
0000
0000
0000
ENDCHAR
STARTCHAR uni0E01
ENCODING 3585
SWIDTH 457 0
DWIDTH 10 0
BBX 10 21 0 -5
BITMAP
0000
0000
0000
0000
0000
0000
1F00
3180
1980
3180
3180
3180
3180
3180
3180
3180
0000
0000
0000
0000
0000
ENDCHAR
STARTCHAR uni0E02
ENCODING 3586
SWIDTH 457 0
DWIDTH 10 0
BBX 10 21 0 -5
BITMAP
0000
0000
0000
0000
0000
0000
3980
3980
1980
1980
1980
1980
1980
1980
1980
0F00
0000
0000
0000
0000
0000
ENDCHAR
STARTCHAR uni0E03
ENCODING 3587
SWIDTH 457 0
DWIDTH 10 0
BBX 10 21 0 -5
BITMAP
0000
0000
0000
0000
0000
0000
6D80
3D80
1980
1980
1980
1980
1980
1980
1980
0F00
0000
0000
0000
0000
0000
ENDCHAR
STARTCHAR uni0E04
ENCODING 3588
SWIDTH 457 0
DWIDTH 10 0
BBX 10 21 0 -5
BITMAP
0000
0000
0000
0000
0000
0000
1F00
3180
3180
3180
3180
3D80
3580
3180
3180
3180
0000
0000
0000
0000
0000
ENDCHAR
STARTCHAR uni0E05
ENCODING 3589
SWIDTH 457 0
DWIDTH 10 0
BBX 10 21 0 -5
BITMAP
0000
0000
0000
0000
0000
0000
1B00
3580
3580
3180
3180
3D80
3580
3180
3180
3180
0000
0000
0000
0000
0000
ENDCHAR
STARTCHAR uni0E06
ENCODING 3590
SWIDTH 457 0
DWIDTH 10 0
BBX 10 21 0 -5
BITMAP
0000
0000
0000
0000
0000
0000
6D80
3D80
1980
1980
1980
1980
1980
3D80
3B80
1980
0000
0000
0000
0000
0000
ENDCHAR
STARTCHAR uni0E07
ENCODING 3591
SWIDTH 457 0
DWIDTH 10 0
BBX 10 21 0 -5
BITMAP
0000
0000
0000
0000
0000
0000
0300
0380
0180
3180
3180
1980
1980
1980
0D80
0F80
0000
0000
0000
0000
0000
ENDCHAR
STARTCHAR uni0E08
ENCODING 3592
SWIDTH 457 0
DWIDTH 10 0
BBX 10 21 0 -5
BITMAP
0000
0000
0000
0000
0000
0000
1F00
3180
3180
0180
0180
0F80
0980
0180
0180
0180
0000
0000
0000
0000
0000
ENDCHAR
STARTCHAR uni0E09
ENCODING 3593
SWIDTH 457 0
DWIDTH 10 0
BBX 10 21 0 -5
BITMAP
0000
0000
0000
0000
0000
0000
1F00
3180
3180
0180
0180
3D80
2D80
0FC0
0DC0
0D80
0000
0000
0000
0000
0000
ENDCHAR
STARTCHAR uni0E0A
ENCODING 3594
SWIDTH 457 0
DWIDTH 10 0
BBX 10 21 0 -5
BITMAP
0000
0000
0000
0000
0000
00C0
39C0
3B80
1F00
1980
1980
1980
1980
1980
1980
0F00
0000
0000
0000
0000
0000
ENDCHAR
STARTCHAR uni0E0B
ENCODING 3595
SWIDTH 457 0
DWIDTH 10 0
BBX 10 21 0 -5
BITMAP
0000
0000
0000
0000
0000
00C0
6DC0
3F80
1B00
1980
1980
1980
1980
1980
1980
0F00
0000
0000
0000
0000
0000
ENDCHAR
STARTCHAR uni0E0C
ENCODING 3596
SWIDTH 457 0
DWIDTH 10 0
BBX 10 21 0 -5
BITMAP
0000
0000
0000
0000
0000
0000
3CC0
66C0
36C0
66C0
66C0
66C0
66C0
6EC0
7DC0
34C0
0000
0000
0000
0000
0000
ENDCHAR
STARTCHAR uni0E0D
ENCODING 3597
SWIDTH 457 0
DWIDTH 10 0
BBX 10 21 0 -5
BITMAP
0000
0000
0000
0000
0000
0000
3CC0
66C0
36C0
66C0
66C0
66C0
66C0
66C0
76C0
37C0
0000
06C0
0380
0000
0000
ENDCHAR
STARTCHAR uni0E0E
ENCODING 3598
SWIDTH 457 0
DWIDTH 10 0
BBX 10 21 0 -5
BITMAP
0000
0000
0000
0000
0000
0000
1F00
3180
1980
3180
3180
3180
3180
3180
7180
6180
0580
1D80
1B80
0000
0000
ENDCHAR
STARTCHAR uni0E0F
ENCODING 3599
SWIDTH 457 0
DWIDTH 10 0
BBX 10 21 0 -5
BITMAP
0000
0000
0000
0000
0000
0000
1F00
3180
1980
3180
3180
3180
3180
3180
7180
6180
0980
3A80
3580
0000
0000
ENDCHAR
STARTCHAR uni0E10
ENCODING 3600
SWIDTH 457 0
DWIDTH 10 0
BBX 10 21 0 -5
BITMAP
0000
0000
0000
0000
0000
0000
0F80
1180
1E00
0380
0180
0780
0580
0180
0180
0180
0B80
1980
1F80
1580
0000
ENDCHAR
STARTCHAR uni0E11
ENCODING 3601
SWIDTH 457 0
DWIDTH 10 0
BBX 10 21 0 -5
BITMAP
0000
0000
0000
0000
0000
0000
6D80
3D80
1F80
1980
1980
1980
1980
1980
1980
1980
0000
0000
0000
0000
0000
ENDCHAR
STARTCHAR uni0E12
ENCODING 3602
SWIDTH 457 0
DWIDTH 10 0
BBX 10 21 0 -5
BITMAP
0000
0000
0000
0000
0000
0000
36C0
6EC0
66C0
66C0
66C0
66C0
66C0
6EC0
77C0
3680
0000
0000
0000
0000
0000
ENDCHAR
STARTCHAR uni0E13
ENCODING 3603
SWIDTH 457 0
DWIDTH 10 0
BBX 10 21 0 -5
BITMAP
0000
0000
0000
0000
0000
0000
3CC0
66C0
36C0
66C0
66C0
66C0
66C0
67C0
76C0
3680
0000
0000
0000
0000
0000
ENDCHAR
STARTCHAR uni0E14
ENCODING 3604
SWIDTH 457 0
DWIDTH 10 0
BBX 10 21 0 -5
BITMAP
0000
0000
0000
0000
0000
0000
1F00
3180
3180
3180
3D80
3D80
3580
3580
3D80
1980
0000
0000
0000
0000
0000
ENDCHAR
STARTCHAR uni0E15
ENCODING 3605
SWIDTH 457 0
DWIDTH 10 0
BBX 10 21 0 -5
BITMAP
0000
0000
0000
0000
0000
0000
1B00
3580
3580
3180
3D80
3D80
3580
3580
3D80
1980
0000
0000
0000
0000
0000
ENDCHAR
STARTCHAR uni0E16
ENCODING 3606
SWIDTH 457 0
DWIDTH 10 0
BBX 10 21 0 -5
BITMAP
0000
0000
0000
0000
0000
0000
1F00
3180
1980
3180
3180
3180
3180
3180
3980
1980
0000
0000
0000
0000
0000
ENDCHAR
STARTCHAR uni0E17
ENCODING 3607
SWIDTH 457 0
DWIDTH 10 0
BBX 10 21 0 -5
BITMAP
0000
0000
0000
0000
0000
0000
7300
7780
3980
3180
3180
3180
3180
3180
3180
3180
0000
0000
0000
0000
0000
ENDCHAR
STARTCHAR uni0E18
ENCODING 3608
SWIDTH 457 0
DWIDTH 10 0
BBX 10 21 0 -5
BITMAP
0000
0000
0000
0000
0000
0000
1E00
3180
3E00
0180
0180
3180
3180
3180
3180
1F00
0000
0000
0000
0000
0000
ENDCHAR
STARTCHAR uni0E19
ENCODING 3609
SWIDTH 457 0
DWIDTH 10 0
BBX 10 21 0 -5
BITMAP
0000
0000
0000
0000
0000
0000
3980
3980
1980
1980
1980
1980
1980
19C0
1BC0
0C80
0000
0000
0000
0000
0000
ENDCHAR
STARTCHAR uni0E1A
ENCODING 3610
SWIDTH 457 0
DWIDTH 10 0
BBX 10 21 0 -5
BITMAP
0000
0000
0000
0000
0000
0000
7180
7180
3180
3180
3180
3180
3180
3180
3180
1F00
0000
0000
0000
0000
0000
ENDCHAR
STARTCHAR uni0E1B
ENCODING 3611
SWIDTH 457 0
DWIDTH 10 0
BBX 10 21 0 -5
BITMAP
0000
0000
0000
0000
0180
0180
7180
7180
3180
3180
3180
3180
3180
3180
3180
1F00
0000
0000
0000
0000
0000
ENDCHAR
STARTCHAR uni0E1C
ENCODING 3612
SWIDTH 457 0
DWIDTH 10 0
BBX 10 21 0 -5
BITMAP
0000
0000
0000
0000
0000
0000
3980
3980
3180
3180
3580
3580
3580
3580
3B80
1100
0000
0000
0000
0000
0000
ENDCHAR
STARTCHAR uni0E1D
ENCODING 3613
SWIDTH 457 0
DWIDTH 10 0
BBX 10 21 0 -5
BITMAP
0000
0000
0000
0000
0180
0180
3980
3980
3180
3180
3580
3580
3580
3580
3B80
1100
0000
0000
0000
0000
0000
ENDCHAR
STARTCHAR uni0E1E
ENCODING 3614
SWIDTH 457 0
DWIDTH 10 0
BBX 10 21 0 -5
BITMAP
0000
0000
0000
0000
0000
0000
7180
7580
3580
3580
3580
3580
3580
3580
3B80
1B00
0000
0000
0000
0000
0000
ENDCHAR
STARTCHAR uni0E1F
ENCODING 3615
SWIDTH 457 0
DWIDTH 10 0
BBX 10 21 0 -5
BITMAP
0000
0000
0000
0000
0180
0180
7180
7580
3580
3580
3580
3580
3580
3580
3B80
1B00
0000
0000
0000
0000
0000
ENDCHAR
STARTCHAR uni0E20
ENCODING 3616
SWIDTH 457 0
DWIDTH 10 0
BBX 10 21 0 -5
BITMAP
0000
0000
0000
0000
0000
0000
1F00
3180
1980
3180
3180
3180
3180
3180
7180
6180
0000
0000
0000
0000
0000
ENDCHAR
STARTCHAR uni0E21
ENCODING 3617
SWIDTH 457 0
DWIDTH 10 0
BBX 10 21 0 -5
BITMAP
0000
0000
0000
0000
0000
0000
3980
3980
1980
1980
1980
1980
1980
3D80
3B80
1980
0000
0000
0000
0000
0000
ENDCHAR
STARTCHAR uni0E22
ENCODING 3618
SWIDTH 457 0
DWIDTH 10 0
BBX 10 21 0 -5
BITMAP
0000
0000
0000
0000
0000
0000
1980
3980
3180
3180
3180
1D80
3180
3180
3180
1F00
0000
0000
0000
0000
0000
ENDCHAR
STARTCHAR uni0E23
ENCODING 3619
SWIDTH 457 0
DWIDTH 10 0
BBX 10 21 0 -5
BITMAP
0000
0000
0000
0000
0000
0000
0F00
1980
1880
1F00
1F80
0180
0180
0180
0380
0380
0000
0000
0000
0000
0000
ENDCHAR
STARTCHAR uni0E24
ENCODING 3620
SWIDTH 457 0
DWIDTH 10 0
BBX 10 21 0 -5
BITMAP
0000
0000
0000
0000
0000
0000
1F00
3180
1980
3180
3180
3180
3180
3180
3980
1980
0180
0180
0000
0000
0000
ENDCHAR
STARTCHAR uni0E25
ENCODING 3621
SWIDTH 457 0
DWIDTH 10 0
BBX 10 21 0 -5
BITMAP
0000
0000
0000
0000
0000
0000
1F00
3180
0180
1F80
3F80
3180
3180
3180
3980
1980
0000
0000
0000
0000
0000
ENDCHAR
STARTCHAR uni0E26
ENCODING 3622
SWIDTH 457 0
DWIDTH 10 0
BBX 10 21 0 -5
BITMAP
0000
0000
0000
0000
0000
0000
1F00
3380
1980
3180
3180
3180
3180
3180
7180
6180
0180
0180
0000
0000
0000
ENDCHAR
STARTCHAR uni0E27
ENCODING 3623
SWIDTH 457 0
DWIDTH 10 0
BBX 10 21 0 -5
BITMAP
0000
0000
0000
0000
0000
0000
1F00
3180
3180
0180
0180
0180
0180
0380
0780
0300
0000
0000
0000
0000
0000
ENDCHAR
STARTCHAR uni0E28
ENCODING 3624
SWIDTH 457 0
DWIDTH 10 0
BBX 10 21 0 -5
BITMAP
0000
0000
0000
0000
0000
0180
1F80
3180
3180
3180
3180
3D80
3580
3180
3180
3180
0000
0000
0000
0000
0000
ENDCHAR
STARTCHAR uni0E29
ENCODING 3625
SWIDTH 457 0
DWIDTH 10 0
BBX 10 21 0 -5
BITMAP
0000
0000
0000
0000
0000
0000
7180
7180
3180
3180
3580
37C0
3380
3180
3180
1F00
0000
0000
0000
0000
0000
ENDCHAR
STARTCHAR uni0E2A
ENCODING 3626
SWIDTH 457 0
DWIDTH 10 0
BBX 10 21 0 -5
BITMAP
0000
0000
0000
0000
0000
0180
1F80
3180
0180
1F80
3F80
3180
3180
3180
3980
1980
0000
0000
0000
0000
0000
ENDCHAR
STARTCHAR uni0E2B
ENCODING 3627
SWIDTH 457 0
DWIDTH 10 0
BBX 10 21 0 -5
BITMAP
0000
0000
0000
0000
0000
0000
7380
7380
3300
3380
3780
3580
3980
3980
3180
3180
0000
0000
0000
0000
0000
ENDCHAR
STARTCHAR uni0E2C
ENCODING 3628
SWIDTH 457 0
DWIDTH 10 0
BBX 10 21 0 -5
BITMAP
0000
0000
0000
0000
0000
00C0
73C0
7180
3580
3580
3580
3580
3580
3580
3B80
1B00
0000
0000
0000
0000
0000
ENDCHAR
STARTCHAR uni0E2D
ENCODING 3629
SWIDTH 457 0
DWIDTH 10 0
BBX 10 21 0 -5
BITMAP
0000
0000
0000
0000
0000
0000
1F00
3180
3180
0180
0180
3D80
3580
3180
3180
1F00
0000
0000
0000
0000
0000
ENDCHAR
STARTCHAR uni0E2E
ENCODING 3630
SWIDTH 457 0
DWIDTH 10 0
BBX 10 21 0 -5
BITMAP
0000
0000
0000
0000
0000
0180
1F80
3180
3380
0D80
0180
3D80
3580
3180
3180
1F00
0000
0000
0000
0000
0000
ENDCHAR
STARTCHAR uni0E2F
ENCODING 3631
SWIDTH 457 0
DWIDTH 10 0
BBX 10 21 0 -5
BITMAP
0000
0000
0000
0000
0000
0000
3980
3180
1F80
0180
0180
0180
0180
0180
0180
0180
0000
0000
0000
0000
0000
ENDCHAR
STARTCHAR uni0E30
ENCODING 3632
SWIDTH 457 0
DWIDTH 10 0
BBX 10 21 0 -5
BITMAP
0000
0000
0000
0000
0000
0000
0000
0C00
0F80
0000
0000
0000
0C00
0F80
0000
0000
0000
0000
0000
0000
0000
ENDCHAR
STARTCHAR uni0E31
ENCODING 3633
SWIDTH 457 0
DWIDTH 10 0
BBX 10 21 0 -5
BITMAP
0000
0000
0000
7300
7E00
0000
0000
0000
0000
0000
0000
0000
0000
0000
0000
0000
0000
0000
0000
0000
0000
ENDCHAR
STARTCHAR uni0E32
ENCODING 3634
SWIDTH 457 0
DWIDTH 10 0
BBX 10 21 0 -5
BITMAP
0000
0000
0000
0000
0000
0000
0F00
1980
0180
0180
0180
0180
0180
0180
0180
0180
0180
0180
0000
0000
0000
ENDCHAR
STARTCHAR uni0E33
ENCODING 3635
SWIDTH 457 0
DWIDTH 10 0
BBX 10 21 0 -5
BITMAP
0000
0000
0800
1400
0800
0000
0F00
1980
0180
0180
0180
0180
0180
0180
0180
0180
0180
0180
0000
0000
0000
ENDCHAR
STARTCHAR uni0E34
ENCODING 3636
SWIDTH 457 0
DWIDTH 10 0
BBX 10 21 0 -5
BITMAP
0000
0000
0000
1E00
3F00
0000
0000
0000
0000
0000
0000
0000
0000
0000
0000
0000
0000
0000
0000
0000
0000
ENDCHAR
STARTCHAR uni0E35
ENCODING 3637
SWIDTH 457 0
DWIDTH 10 0
BBX 10 21 0 -5
BITMAP
0000
0000
0000
3B00
7F00
0000
0000
0000
0000
0000
0000
0000
0000
0000
0000
0000
0000
0000
0000
0000
0000
ENDCHAR
STARTCHAR uni0E36
ENCODING 3638
SWIDTH 457 0
DWIDTH 10 0
BBX 10 21 0 -5
BITMAP
0000
0000
0600
3D00
7E00
0000
0000
0000
0000
0000
0000
0000
0000
0000
0000
0000
0000
0000
0000
0000
0000
ENDCHAR
STARTCHAR uni0E37
ENCODING 3639
SWIDTH 457 0
DWIDTH 10 0
BBX 10 21 0 -5
BITMAP
0000
0000
0400
3D00
7F00
0000
0000
0000
0000
0000
0000
0000
0000
0000
0000
0000
0000
0000
0000
0000
0000
ENDCHAR
STARTCHAR uni0E38
ENCODING 3640
SWIDTH 457 0
DWIDTH 10 0
BBX 10 21 0 -5
BITMAP
0000
0000
0000
0000
0000
0000
0000
0000
0000
0000
0000
0000
0000
0000
0000
0000
0000
0700
0300
0300
0000
ENDCHAR
STARTCHAR uni0E39
ENCODING 3641
SWIDTH 457 0
DWIDTH 10 0
BBX 10 21 0 -5
BITMAP
0000
0000
0000
0000
0000
0000
0000
0000
0000
0000
0000
0000
0000
0000
0000
0000
0000
1D80
0D80
0F80
0000
ENDCHAR
STARTCHAR uni0E3A
ENCODING 3642
SWIDTH 457 0
DWIDTH 10 0
BBX 10 21 0 -5
BITMAP
0000
0000
0000
0000
0000
0000
0000
0000
0000
0000
0000
0000
0000
0000
0000
0000
0000
0300
0780
0300
0000
ENDCHAR
STARTCHAR uni0E3F
ENCODING 3647
SWIDTH 457 0
DWIDTH 10 0
BBX 10 21 0 -5
BITMAP
0000
0C00
0C00
7F00
6D80
6CC0
6CC0
6CC0
6D80
7F00
6D80
6CC0
6CC0
6CC0
6D80
7F00
0C00
0C00
0000
0000
0000
ENDCHAR
STARTCHAR uni0E40
ENCODING 3648
SWIDTH 457 0
DWIDTH 10 0
BBX 10 21 0 -5
BITMAP
0000
0000
0000
0000
0000
0000
0C00
0C00
0C00
0C00
0C00
0C00
0C00
0C00
0E00
0600
0000
0000
0000
0000
0000
ENDCHAR
STARTCHAR uni0E41
ENCODING 3649
SWIDTH 457 0
DWIDTH 10 0
BBX 10 21 0 -5
BITMAP
0000
0000
0000
0000
0000
0000
3300
3300
3300
3300
3300
3300
3300
3300
3B80
1980
0000
0000
0000
0000
0000
ENDCHAR
STARTCHAR uni0E42
ENCODING 3650
SWIDTH 457 0
DWIDTH 10 0
BBX 10 21 0 -5
BITMAP
0000
0F00
1F00
3000
3E00
0600
0600
0600
0600
0600
0600
0600
0600
0600
0700
0300
0000
0000
0000
0000
0000
ENDCHAR
STARTCHAR uni0E43
ENCODING 3651
SWIDTH 457 0
DWIDTH 10 0
BBX 10 21 0 -5
BITMAP
0000
1E00
3300
6180
7300
2300
0300
0300
0300
0300
0300
0300
0300
0300
0380
0180
0000
0000
0000
0000
0000
ENDCHAR
STARTCHAR uni0E44
ENCODING 3652
SWIDTH 457 0
DWIDTH 10 0
BBX 10 21 0 -5
BITMAP
0000
4600
6F00
3300
1600
0600
0600
0600
0600
0600
0600
0600
0600
0600
0700
0300
0000
0000
0000
0000
0000
ENDCHAR
STARTCHAR uni0E45
ENCODING 3653
SWIDTH 457 0
DWIDTH 10 0
BBX 10 21 0 -5
BITMAP
0000
0000
0000
0000
0000
0000
0F00
1980
0180
0180
0180
0180
0180
0180
0180
0180
0180
0180
0000
0000
0000
ENDCHAR
STARTCHAR uni0E46
ENCODING 3654
SWIDTH 457 0
DWIDTH 10 0
BBX 10 21 0 -5
BITMAP
0000
0000
0000
0000
0000
0000
1B00
3F80
3580
3180
1980
0180
0180
0180
0180
0180
0180
0180
0000
0000
0000
ENDCHAR
STARTCHAR uni0E47
ENCODING 3655
SWIDTH 457 0
DWIDTH 10 0
BBX 10 21 0 -5
BITMAP
0300
1F00
3000
3B00
3700
0000
0000
0000
0000
0000
0000
0000
0000
0000
0000
0000
0000
0000
0000
0000
0000
ENDCHAR
STARTCHAR uni0E48
ENCODING 3656
SWIDTH 457 0
DWIDTH 10 0
BBX 10 21 0 -5
BITMAP
6000
6000
6000
0000
0000
0000
0000
0000
0000
0000
0000
0000
0000
0000
0000
0000
0000
0000
0000
0000
0000
ENDCHAR
STARTCHAR uni0E49
ENCODING 3657
SWIDTH 457 0
DWIDTH 10 0
BBX 10 21 0 -5
BITMAP
0000
0200
7A00
6E00
6C00
0000
0000
0000
0000
0000
0000
0000
0000
0000
0000
0000
0000
0000
0000
0000
0000
ENDCHAR
STARTCHAR uni0E4A
ENCODING 3658
SWIDTH 457 0
DWIDTH 10 0
BBX 10 21 0 -5
BITMAP
0000
0200
7A00
6E00
6C00
0000
0000
0000
0000
0000
0000
0000
0000
0000
0000
0000
0000
0000
0000
0000
0000
ENDCHAR
STARTCHAR uni0E4B
ENCODING 3659
SWIDTH 457 0
DWIDTH 10 0
BBX 10 21 0 -5
BITMAP
0000
0000
3000
FC00
3000
0000
0000
0000
0000
0000
0000
0000
0000
0000
0000
0000
0000
0000
0000
0000
0000
ENDCHAR
STARTCHAR uni0E4C
ENCODING 3660
SWIDTH 457 0
DWIDTH 10 0
BBX 10 21 0 -5
BITMAP
0000
0200
3C00
6000
3000
0000
0000
0000
0000
0000
0000
0000
0000
0000
0000
0000
0000
0000
0000
0000
0000
ENDCHAR
STARTCHAR uni0E4D
ENCODING 3661
SWIDTH 457 0
DWIDTH 10 0
BBX 10 21 0 -5
BITMAP
0000
0000
0C00
3F00
0C00
0000
0000
0000
0000
0000
0000
0000
0000
0000
0000
0000
0000
0000
0000
0000
0000
ENDCHAR
STARTCHAR uni0E4E
ENCODING 3662
SWIDTH 457 0
DWIDTH 10 0
BBX 10 21 0 -5
BITMAP
0000
0100
1E00
3000
1800
0000
0000
0000
0000
0000
0000
0000
0000
0000
0000
0000
0000
0000
0000
0000
0000
ENDCHAR
STARTCHAR uni0E4F
ENCODING 3663
SWIDTH 457 0
DWIDTH 10 0
BBX 10 21 0 -5
BITMAP
0000
0000
0000
0000
0000
0000
1E00
3300
6180
6180
6D80
6D80
6180
6180
3300
1E00
0000
0000
0000
0000
0000
ENDCHAR
STARTCHAR uni0E50
ENCODING 3664
SWIDTH 457 0
DWIDTH 10 0
BBX 10 21 0 -5
BITMAP
0000
0000
0000
0000
0000
0000
1E00
3300
6180
6180
6180
6180
6180
6180
3300
1E00
0000
0000
0000
0000
0000
ENDCHAR
STARTCHAR uni0E51
ENCODING 3665
SWIDTH 457 0
DWIDTH 10 0
BBX 10 21 0 -5
BITMAP
0000
0000
0000
0000
0000
0000
1E00
3300
6180
6180
6180
6180
6D80
6D80
6D80
3980
0300
0200
0000
0000
0000
ENDCHAR
STARTCHAR uni0E52
ENCODING 3666
SWIDTH 457 0
DWIDTH 10 0
BBX 10 21 0 -5
BITMAP
0000
0000
0000
0000
C000
6000
6D80
6FC0
6EC0
6CC0
6CC0
6EC0
60C0
60C0
70C0
3F80
0000
0000
0000
0000
0000
ENDCHAR
STARTCHAR uni0E53
ENCODING 3667
SWIDTH 457 0
DWIDTH 10 0
BBX 10 21 0 -5
BITMAP
0000
0000
0000
0000
0000
0000
3100
7B80
6D80
6D80
6D80
6180
6180
6180
7180
3180
0000
0000
0000
0000
0000
ENDCHAR
STARTCHAR uni0E54
ENCODING 3668
SWIDTH 457 0
DWIDTH 10 0
BBX 10 21 0 -5
BITMAP
0000
0000
0000
0000
0000
0040
0EC0
1980
3000
3000
3380
3300
3300
3300
3780
1CC0
0000
0000
0000
0000
0000
ENDCHAR
STARTCHAR uni0E55
ENCODING 3669
SWIDTH 457 0
DWIDTH 10 0
BBX 10 21 0 -5
BITMAP
0000
0000
0000
0000
0240
0740
0EC0
1980
3000
3000
3380
3300
3300
3300
3780
1CC0
0000
0000
0000
0000
0000
ENDCHAR
STARTCHAR uni0E56
ENCODING 3670
SWIDTH 457 0
DWIDTH 10 0
BBX 10 21 0 -5
BITMAP
0000
0000
0000
6000
3000
3000
3E00
3900
1180
1180
0180
0180
0180
3180
3300
1E00
0000
0000
0000
0000
0000
ENDCHAR
STARTCHAR uni0E57
ENCODING 3671
SWIDTH 457 0
DWIDTH 10 0
BBX 10 21 0 -5
BITMAP
0000
0000
0000
0000
0040
00C0
24C0
7EC0
76C0
66C0
66C0
66C0
66C0
66C0
7680
3300
0000
0000
0000
0000
0000
ENDCHAR
STARTCHAR uni0E58
ENCODING 3672
SWIDTH 457 0
DWIDTH 10 0
BBX 10 21 0 -5
BITMAP
0000
0000
0000
0000
0180
0180
3F80
7F00
6200
6000
6000
6B80
6980
7F80
3380
1100
0000
0000
0000
0000
0000
ENDCHAR
STARTCHAR uni0E59
ENCODING 3673
SWIDTH 457 0
DWIDTH 10 0
BBX 10 21 0 -5
BITMAP
0000
0000
0000
0000
0000
0240
07C0
3E80
3E00
6600
6600
6200
6300
6B00
7980
3180
0000
0000
0000
0000
0000
ENDCHAR
STARTCHAR uni0E5A
ENCODING 3674
SWIDTH 457 0
DWIDTH 10 0
BBX 10 21 0 -5
BITMAP
0000
0000
0000
0000
0000
0000
6580
6D80
7D80
0D80
0D80
0D80
0D80
0D80
0D80
0D80
0000
0000
0000
0000
0000
ENDCHAR
STARTCHAR uni0E5B
ENCODING 3675
SWIDTH 457 0
DWIDTH 10 0
BBX 10 21 0 -5
BITMAP
0000
0000
0000
0000
0000
0000
3000
7800
F800
D800
C400
CD00
EFC0
7A00
3000
1000
0000
0000
0000
0000
0000
ENDCHAR
STARTCHAR Wgrave
ENCODING 7808
SWIDTH 457 0
DWIDTH 10 0
BBX 10 21 0 -5
BITMAP
0000
3000
1800
0C00
6180
6180
6180
6180
6180
6D80
6D80
6D80
6D80
3300
3300
3300
0000
0000
0000
0000
0000
ENDCHAR
STARTCHAR wgrave
ENCODING 7809
SWIDTH 457 0
DWIDTH 10 0
BBX 10 21 0 -5
BITMAP
0000
0000
0000
3000
1800
0C00
6180
6180
6180
6180
6D80
6D80
6D80
3300
3300
3300
0000
0000
0000
0000
0000
ENDCHAR
STARTCHAR Wacute
ENCODING 7810
SWIDTH 457 0
DWIDTH 10 0
BBX 10 21 0 -5
BITMAP
0000
0300
0600
0C00
6180
6180
6180
6180
6180
6D80
6D80
6D80
6D80
3300
3300
3300
0000
0000
0000
0000
0000
ENDCHAR
STARTCHAR wacute
ENCODING 7811
SWIDTH 457 0
DWIDTH 10 0
BBX 10 21 0 -5
BITMAP
0000
0000
0000
0300
0600
0C00
6180
6180
6180
6180
6D80
6D80
6D80
3300
3300
3300
0000
0000
0000
0000
0000
ENDCHAR
STARTCHAR Wdieresis
ENCODING 7812
SWIDTH 457 0
DWIDTH 10 0
BBX 10 21 0 -5
BITMAP
0000
3300
3300
0000
6180
6180
6180
6180
6180
6D80
6D80
6D80
6D80
3300
3300
3300
0000
0000
0000
0000
0000
ENDCHAR
STARTCHAR wdieresis
ENCODING 7813
SWIDTH 457 0
DWIDTH 10 0
BBX 10 21 0 -5
BITMAP
0000
0000
0000
3300
3300
0000
6180
6180
6180
6180
6D80
6D80
6D80
3300
3300
3300
0000
0000
0000
0000
0000
ENDCHAR
STARTCHAR Ygrave
ENCODING 7922
SWIDTH 457 0
DWIDTH 10 0
BBX 10 21 0 -5
BITMAP
3000
1800
0C00
0000
6180
6180
6180
3300
3300
1E00
0C00
0C00
0C00
0C00
0C00
0C00
0000
0000
0000
0000
0000
ENDCHAR
STARTCHAR ygrave
ENCODING 7923
SWIDTH 457 0
DWIDTH 10 0
BBX 10 21 0 -5
BITMAP
0000
0000
3000
1800
0C00
0000
6180
6180
6180
6180
6180
6180
6180
6180
3380
1D80
0180
0180
6300
3E00
0000
ENDCHAR
STARTCHAR endash
ENCODING 8211
SWIDTH 457 0
DWIDTH 10 0
BBX 10 21 0 -5
BITMAP
0000
0000
0000
0000
0000
0000
0000
0000
0000
0000
3F00
0000
0000
0000
0000
0000
0000
0000
0000
0000
0000
ENDCHAR
STARTCHAR emdash
ENCODING 8212
SWIDTH 457 0
DWIDTH 10 0
BBX 10 21 0 -5
BITMAP
0000
0000
0000
0000
0000
0000
0000
0000
0000
0000
7F80
0000
0000
0000
0000
0000
0000
0000
0000
0000
0000
ENDCHAR
STARTCHAR underscoredbl
ENCODING 8215
SWIDTH 457 0
DWIDTH 10 0
BBX 10 21 0 -5
BITMAP
0000
0000
0000
0000
0000
0000
0000
0000
0000
0000
0000
0000
0000
0000
0000
0000
0000
FFC0
0000
FFC0
0000
ENDCHAR
STARTCHAR quoteleft
ENCODING 8216
SWIDTH 457 0
DWIDTH 10 0
BBX 10 21 0 -5
BITMAP
0000
0000
0600
0C00
0C00
0C00
0000
0000
0000
0000
0000
0000
0000
0000
0000
0000
0000
0000
0000
0000
0000
ENDCHAR
STARTCHAR quoteright
ENCODING 8217
SWIDTH 457 0
DWIDTH 10 0
BBX 10 21 0 -5
BITMAP
0000
0000
0C00
0C00
0C00
1800
0000
0000
0000
0000
0000
0000
0000
0000
0000
0000
0000
0000
0000
0000
0000
ENDCHAR
STARTCHAR quotesinglbase
ENCODING 8218
SWIDTH 457 0
DWIDTH 10 0
BBX 10 21 0 -5
BITMAP
0000
0000
0000
0000
0000
0000
0000
0000
0000
0000
0000
0000
0000
0000
1800
1800
1800
3000
0000
0000
0000
ENDCHAR
STARTCHAR quotedblleft
ENCODING 8220
SWIDTH 457 0
DWIDTH 10 0
BBX 10 21 0 -5
BITMAP
0000
0000
1980
3300
3300
3300
0000
0000
0000
0000
0000
0000
0000
0000
0000
0000
0000
0000
0000
0000
0800
ENDCHAR
STARTCHAR quotedblright
ENCODING 8221
SWIDTH 457 0
DWIDTH 10 0
BBX 10 21 0 -5
BITMAP
0000
0000
3300
3300
3300
6600
0000
0000
0000
0000
0000
0000
0000
0000
0000
0000
0000
0000
0000
0000
0000
ENDCHAR
STARTCHAR quotedblbase
ENCODING 8222
SWIDTH 457 0
DWIDTH 10 0
BBX 10 21 0 -5
BITMAP
0000
0000
0000
0000
0000
0000
0000
0000
0000
0000
0000
0000
0000
0000
3300
3300
3300
6600
0000
0000
0000
ENDCHAR
STARTCHAR dagger
ENCODING 8224
SWIDTH 457 0
DWIDTH 10 0
BBX 10 21 0 -5
BITMAP
0000
0000
0000
0C00
0C00
0C00
7F80
0C00
0C00
0C00
0C00
0C00
0C00
0C00
0C00
0C00
0C00
0C00
0000
0000
0000
ENDCHAR
STARTCHAR daggerdbl
ENCODING 8225
SWIDTH 457 0
DWIDTH 10 0
BBX 10 21 0 -5
BITMAP
0000
0000
0000
0C00
0C00
0C00
7F80
0C00
0C00
0C00
0C00
0C00
0C00
7F80
0C00
0C00
0C00
0C00
0000
0000
0000
ENDCHAR
STARTCHAR bullet
ENCODING 8226
SWIDTH 457 0
DWIDTH 10 0
BBX 10 21 0 -5
BITMAP
0000
0000
0000
0000
0000
0C00
3F00
3F00
7F80
7F80
7F80
3F00
3F00
0C00
0000
0000
0000
0000
0000
0000
0000
ENDCHAR
STARTCHAR ellipsis
ENCODING 8230
SWIDTH 457 0
DWIDTH 10 0
BBX 10 21 0 -5
BITMAP
0000
0000
0000
0000
0000
0000
0000
0000
0000
0000
0000
0000
0000
0000
6D80
6D80
0000
0000
0000
0000
0000
ENDCHAR
STARTCHAR perthousand
ENCODING 8240
SWIDTH 457 0
DWIDTH 10 0
BBX 10 21 0 -5
BITMAP
0000
0000
2000
5080
5180
5300
2600
0C00
1800
3000
6000
4000
1100
2A80
2A80
2A80
1100
0000
0000
0000
0000
ENDCHAR
STARTCHAR guilsinglleft
ENCODING 8249
SWIDTH 457 0
DWIDTH 10 0
BBX 10 21 0 -5
BITMAP
0000
0000
0000
0000
0000
0000
0000
0000
0000
0600
0C00
1800
3000
1800
0C00
0600
0000
0000
0000
0000
0000
ENDCHAR
STARTCHAR guilsinglright
ENCODING 8250
SWIDTH 457 0
DWIDTH 10 0
BBX 10 21 0 -5
BITMAP
0000
0000
0000
0000
0000
0000
0000
0000
0000
1800
0C00
0600
0300
0600
0C00
1800
0000
0000
0000
0000
0000
ENDCHAR
STARTCHAR exclamdbl
ENCODING 8252
SWIDTH 457 0
DWIDTH 10 0
BBX 10 21 0 -5
BITMAP
0000
0000
0000
3300
3300
3300
3300
3300
3300
3300
3300
3300
3300
3300
0000
3300
3300
0000
0000
0000
0000
ENDCHAR
STARTCHAR fraction
ENCODING 8260
SWIDTH 457 0
DWIDTH 10 0
BBX 10 21 0 -5
BITMAP
0000
0000
0000
0000
0080
0180
0300
0600
0C00
1800
3000
6000
4000
0000
0000
0000
0000
0000
0000
0000
0000
ENDCHAR
STARTCHAR uni207F
ENCODING 8319
SWIDTH 457 0
DWIDTH 10 0
BBX 10 21 0 -5
BITMAP
0000
0000
3E00
3300
3300
3300
3300
3300
0000
0000
0000
0000
0000
0000
0000
0000
0000
0000
0000
0000
0000
ENDCHAR
STARTCHAR peseta
ENCODING 8359
SWIDTH 457 0
DWIDTH 10 0
BBX 10 21 0 -5
BITMAP
0000
0000
0000
7C00
6600
6600
6600
6600
7C00
6300
6300
6780
6300
6300
6300
6180
0000
0000
0000
0000
0000
ENDCHAR
STARTCHAR afii57636
ENCODING 8362
SWIDTH 457 0
DWIDTH 10 0
BBX 10 21 0 -5
BITMAP
0000
0000
0000
0000
3E80
2280
2A80
2A80
2A80
2A80
2A80
2A80
2A80
2A80
2880
2F80
0000
0000
0000
0000
0000
ENDCHAR
STARTCHAR Euro
ENCODING 8364
SWIDTH 457 0
DWIDTH 10 0
BBX 10 21 0 -5
BITMAP
0000
0000
0000
0F00
1F80
30C0
6040
6000
FF00
6000
FE00
6000
6040
30C0
1F80
0F00
0000
0000
0000
0000
0000
ENDCHAR
STARTCHAR afii61289
ENCODING 8467
SWIDTH 457 0
DWIDTH 10 0
BBX 10 21 0 -5
BITMAP
0000
0000
0000
1C00
1600
3600
3600
3600
3600
3600
3600
3600
1E00
0C00
3E00
7380
0000
0000
0000
0000
0000
ENDCHAR
STARTCHAR afii61352
ENCODING 8470
SWIDTH 457 0
DWIDTH 10 0
BBX 10 21 0 -5
BITMAP
0000
0000
0000
6680
6740
6740
6740
7680
7600
7FC0
6E00
6E00
6600
6600
6600
6600
0000
0000
0000
0000
0000
ENDCHAR
STARTCHAR trademark
ENCODING 8482
SWIDTH 457 0
DWIDTH 10 0
BBX 10 21 0 -5
BITMAP
0000
0000
0000
7480
2780
2780
2480
2480
0000
0000
0000
0000
0000
0000
0000
0000
0000
0000
0000
0000
0000
ENDCHAR
STARTCHAR arrowleft
ENCODING 8592
SWIDTH 457 0
DWIDTH 10 0
BBX 10 21 0 -5
BITMAP
0000
0000
0000
0000
0000
0000
1000
3000
7F80
7F80
3000
1000
0000
0000
0000
0000
0000
0000
0000
0000
0000
ENDCHAR
STARTCHAR arrowup
ENCODING 8593
SWIDTH 457 0
DWIDTH 10 0
BBX 10 21 0 -5
BITMAP
0000
0000
0000
0C00
1E00
3F00
0C00
0C00
0C00
0C00
0C00
0C00
0C00
0C00
0C00
0C00
0000
0000
0000
0000
0000
ENDCHAR
STARTCHAR arrowright
ENCODING 8594
SWIDTH 457 0
DWIDTH 10 0
BBX 10 21 0 -5
BITMAP
0000
0000
0000
0000
0000
0000
0200
0300
7F80
7F80
0300
0200
0000
0000
0000
0000
0000
0000
0000
0000
0000
ENDCHAR
STARTCHAR arrowdown
ENCODING 8595
SWIDTH 457 0
DWIDTH 10 0
BBX 10 21 0 -5
BITMAP
0000
0000
0000
0C00
0C00
0C00
0C00
0C00
0C00
0C00
0C00
0C00
0C00
3F00
1E00
0C00
0000
0000
0000
0000
0000
ENDCHAR
STARTCHAR arrowboth
ENCODING 8596
SWIDTH 457 0
DWIDTH 10 0
BBX 10 21 0 -5
BITMAP
0000
0000
0000
0000
0000
0000
0000
2100
6180
FFC0
FFC0
6180
2100
0000
0000
0000
0000
0000
0000
0000
0000
ENDCHAR
STARTCHAR arrowupdn
ENCODING 8597
SWIDTH 457 0
DWIDTH 10 0
BBX 10 21 0 -5
BITMAP
0000
0000
0000
0C00
1E00
3F00
0C00
0C00
0C00
0C00
0C00
0C00
0C00
3F00
1E00
0C00
0000
0000
0000
0000
0000
ENDCHAR
STARTCHAR arrowupdnbse
ENCODING 8616
SWIDTH 457 0
DWIDTH 10 0
BBX 10 21 0 -5
BITMAP
0000
0000
0000
0C00
1E00
3F00
0C00
0C00
0C00
0C00
0C00
0C00
0C00
3F00
1E00
0C00
7F80
0000
0000
0000
0000
ENDCHAR
STARTCHAR uni2219
ENCODING 8729
SWIDTH 457 0
DWIDTH 10 0
BBX 10 21 0 -5
BITMAP
0000
0000
0000
0000
0000
0000
0000
0000
0C00
1E00
1E00
0C00
0000
0000
0000
0000
0000
0000
0000
0000
0000
ENDCHAR
STARTCHAR radical
ENCODING 8730
SWIDTH 457 0
DWIDTH 10 0
BBX 10 21 0 -5
BITMAP
0040
00C0
0080
0080
0180
0100
0100
0300
0200
0200
0600
2400
7400
3C00
1800
1800
0000
0000
0000
0000
0000
ENDCHAR
STARTCHAR infinity
ENCODING 8734
SWIDTH 457 0
DWIDTH 10 0
BBX 10 21 0 -5
BITMAP
0000
0000
0000
0000
0000
0000
0000
0000
3300
6D80
6D80
6D80
6D80
3300
0000
0000
0000
0000
0000
0000
0000
ENDCHAR
STARTCHAR orthogonal
ENCODING 8735
SWIDTH 457 0
DWIDTH 10 0
BBX 10 21 0 -5
BITMAP
0000
0000
0000
0000
0000
0000
6000
6000
6000
6000
6000
6000
6000
7F80
7F80
0000
0000
0000
0000
0000
0000
ENDCHAR
STARTCHAR intersection
ENCODING 8745
SWIDTH 457 0
DWIDTH 10 0
BBX 10 21 0 -5
BITMAP
0000
0000
0000
1E00
3300
6180
6180
6180
6180
6180
6180
6180
6180
6180
6180
6180
0000
0000
0000
0000
0000
ENDCHAR
STARTCHAR integral
ENCODING 8747
SWIDTH 457 0
DWIDTH 10 0
BBX 10 21 0 -5
BITMAP
0000
0000
0000
0700
0D80
0D80
0C00
0C00
0C00
0C00
0C00
0C00
0C00
0C00
0C00
0C00
0C00
6C00
6C00
3800
0000
ENDCHAR
STARTCHAR approxequal
ENCODING 8776
SWIDTH 457 0
DWIDTH 10 0
BBX 10 21 0 -5
BITMAP
0000
0000
0000
0000
0000
0000
0000
3880
6D80
4700
0000
3880
6D80
4700
0000
0000
0000
0000
0000
0000
0000
ENDCHAR
STARTCHAR notequal
ENCODING 8800
SWIDTH 457 0
DWIDTH 10 0
BBX 10 21 0 -5
BITMAP
0000
0000
0000
0000
0000
0000
0200
0200
3F80
0400
0400
3F80
0800
0800
0000
0000
0000
0000
0000
0000
0000
ENDCHAR
STARTCHAR equivalence
ENCODING 8801
SWIDTH 457 0
DWIDTH 10 0
BBX 10 21 0 -5
BITMAP
0000
0000
0000
0000
0000
0000
0000
7F80
0000
0000
7F80
0000
0000
7F80
0000
0000
0000
0000
0000
0000
0000
ENDCHAR
STARTCHAR lessequal
ENCODING 8804
SWIDTH 457 0
DWIDTH 10 0
BBX 10 21 0 -5
BITMAP
0000
0000
0000
0300
0600
0C00
1800
3000
6000
3000
1800
0C00
0600
0300
0000
7F80
0000
0000
0000
0000
0000
ENDCHAR
STARTCHAR greaterequal
ENCODING 8805
SWIDTH 457 0
DWIDTH 10 0
BBX 10 21 0 -5
BITMAP
0000
0000
0000
3000
1800
0C00
0600
0300
0180
0300
0600
0C00
1800
3000
0000
7F80
0000
0000
0000
0000
0000
ENDCHAR
STARTCHAR house
ENCODING 8962
SWIDTH 457 0
DWIDTH 10 0
BBX 10 21 0 -5
BITMAP
0000
0000
0000
0000
0000
0C00
1E00
3300
6180
6180
6180
6180
6180
6180
6180
7F80
0000
0000
0000
0000
0000
ENDCHAR
STARTCHAR revlogicalnot
ENCODING 8976
SWIDTH 457 0
DWIDTH 10 0
BBX 10 21 0 -5
BITMAP
0000
0000
0000
0000
0000
0000
0000
0000
7F80
6000
6000
6000
6000
6000
0000
0000
0000
0000
0000
0000
0000
ENDCHAR
STARTCHAR uni2318
ENCODING 8984
SWIDTH 457 0
DWIDTH 10 0
BBX 10 21 0 -5
BITMAP
0000
0000
0000
0000
6180
D2C0
9240
D2C0
7F80
1200
1200
7F80
D2C0
9240
D2C0
6180
0000
0000
0000
0000
0000
ENDCHAR
STARTCHAR uni2319
ENCODING 8985
SWIDTH 457 0
DWIDTH 10 0
BBX 10 21 0 -5
BITMAP
0000
0000
0000
0000
0000
0000
6000
6000
6000
6000
6000
6000
6000
7F80
7F80
0000
0000
0000
0000
0000
0000
ENDCHAR
STARTCHAR integraltp
ENCODING 8992
SWIDTH 457 0
DWIDTH 10 0
BBX 10 21 0 -5
BITMAP
0000
0000
0000
0700
0D80
0D80
0C00
0C00
0C00
0C00
0C00
0C00
0C00
0C00
0C00
0C00
0C00
0C00
0C00
0C00
0C00
ENDCHAR
STARTCHAR integralbt
ENCODING 8993
SWIDTH 457 0
DWIDTH 10 0
BBX 10 21 0 -5
BITMAP
0C00
0C00
0C00
0C00
0C00
0C00
0C00
0C00
0C00
0C00
0C00
0C00
0C00
0C00
6C00
6C00
3800
0000
0000
0000
0000
ENDCHAR
STARTCHAR SF100000
ENCODING 9472
SWIDTH 457 0
DWIDTH 10 0
BBX 10 21 0 -5
BITMAP
0000
0000
0000
0000
0000
0000
0000
0000
0000
FFC0
FFC0
0000
0000
0000
0000
0000
0000
0000
0000
0000
0000
ENDCHAR
STARTCHAR SF110000
ENCODING 9474
SWIDTH 457 0
DWIDTH 10 0
BBX 10 21 0 -5
BITMAP
0C00
0C00
0C00
0C00
0C00
0C00
0C00
0C00
0C00
0C00
0C00
0C00
0C00
0C00
0C00
0C00
0C00
0C00
0C00
0C00
0C00
ENDCHAR
STARTCHAR SF010000
ENCODING 9484
SWIDTH 457 0
DWIDTH 10 0
BBX 10 21 0 -5
BITMAP
0000
0000
0000
0000
0000
0000
0000
0000
0000
0FC0
0FC0
0C00
0C00
0C00
0C00
0C00
0C00
0C00
0C00
0C00
0C00
ENDCHAR
STARTCHAR SF030000
ENCODING 9488
SWIDTH 457 0
DWIDTH 10 0
BBX 10 21 0 -5
BITMAP
0000
0000
0000
0000
0000
0000
0000
0000
0000
FC00
FC00
0C00
0C00
0C00
0C00
0C00
0C00
0C00
0C00
0C00
0C00
ENDCHAR
STARTCHAR SF020000
ENCODING 9492
SWIDTH 457 0
DWIDTH 10 0
BBX 10 21 0 -5
BITMAP
0C00
0C00
0C00
0C00
0C00
0C00
0C00
0C00
0C00
0FC0
0FC0
0000
0000
0000
0000
0000
0000
0000
0000
0000
0000
ENDCHAR
STARTCHAR SF040000
ENCODING 9496
SWIDTH 457 0
DWIDTH 10 0
BBX 10 21 0 -5
BITMAP
0C00
0C00
0C00
0C00
0C00
0C00
0C00
0C00
0C00
FC00
FC00
0000
0000
0000
0000
0000
0000
0000
0000
0000
0000
ENDCHAR
STARTCHAR SF080000
ENCODING 9500
SWIDTH 457 0
DWIDTH 10 0
BBX 10 21 0 -5
BITMAP
0C00
0C00
0C00
0C00
0C00
0C00
0C00
0C00
0C00
0FC0
0FC0
0C00
0C00
0C00
0C00
0C00
0C00
0C00
0C00
0C00
0C00
ENDCHAR
STARTCHAR SF090000
ENCODING 9508
SWIDTH 457 0
DWIDTH 10 0
BBX 10 21 0 -5
BITMAP
0C00
0C00
0C00
0C00
0C00
0C00
0C00
0C00
0C00
FC00
FC00
0C00
0C00
0C00
0C00
0C00
0C00
0C00
0C00
0C00
0C00
ENDCHAR
STARTCHAR SF060000
ENCODING 9516
SWIDTH 457 0
DWIDTH 10 0
BBX 10 21 0 -5
BITMAP
0000
0000
0000
0000
0000
0000
0000
0000
0000
FFC0
FFC0
0C00
0C00
0C00
0C00
0C00
0C00
0C00
0C00
0C00
0C00
ENDCHAR
STARTCHAR SF070000
ENCODING 9524
SWIDTH 457 0
DWIDTH 10 0
BBX 10 21 0 -5
BITMAP
0C00
0C00
0C00
0C00
0C00
0C00
0C00
0C00
0C00
FFC0
FFC0
0000
0000
0000
0000
0000
0000
0000
0000
0000
0000
ENDCHAR
STARTCHAR SF050000
ENCODING 9532
SWIDTH 457 0
DWIDTH 10 0
BBX 10 21 0 -5
BITMAP
0C00
0C00
0C00
0C00
0C00
0C00
0C00
0C00
0C00
FFC0
FFC0
0C00
0C00
0C00
0C00
0C00
0C00
0C00
0C00
0C00
0C00
ENDCHAR
STARTCHAR SF430000
ENCODING 9552
SWIDTH 457 0
DWIDTH 10 0
BBX 10 21 0 -5
BITMAP
0000
0000
0000
0000
0000
0000
0000
FFC0
FFC0
0000
0000
FFC0
FFC0
0000
0000
0000
0000
0000
0000
0000
0000
ENDCHAR
STARTCHAR SF240000
ENCODING 9553
SWIDTH 457 0
DWIDTH 10 0
BBX 10 21 0 -5
BITMAP
3300
3300
3300
3300
3300
3300
3300
3300
3300
3300
3300
3300
3300
3300
3300
3300
3300
3300
3300
3300
3300
ENDCHAR
STARTCHAR SF510000
ENCODING 9554
SWIDTH 457 0
DWIDTH 10 0
BBX 10 21 0 -5
BITMAP
0000
0000
0000
0000
0000
0000
0000
0FC0
0FC0
0C00
0C00
0FC0
0FC0
0C00
0C00
0C00
0C00
0C00
0C00
0C00
0C00
ENDCHAR
STARTCHAR SF520000
ENCODING 9555
SWIDTH 457 0
DWIDTH 10 0
BBX 10 21 0 -5
BITMAP
0000
0000
0000
0000
0000
0000
0000
0000
0000
3FC0
3FC0
3300
3300
3300
3300
3300
3300
3300
3300
3300
3300
ENDCHAR
STARTCHAR SF390000
ENCODING 9556
SWIDTH 457 0
DWIDTH 10 0
BBX 10 21 0 -5
BITMAP
0000
0000
0000
0000
0000
0000
0000
3FC0
3FC0
3000
3000
33C0
33C0
3300
3300
3300
3300
3300
3300
3300
3300
ENDCHAR
STARTCHAR SF220000
ENCODING 9557
SWIDTH 457 0
DWIDTH 10 0
BBX 10 21 0 -5
BITMAP
0000
0000
0000
0000
0000
0000
0000
FC00
FC00
0C00
0C00
FC00
FC00
0C00
0C00
0C00
0C00
0C00
0C00
0C00
0C00
ENDCHAR
STARTCHAR SF210000
ENCODING 9558
SWIDTH 457 0
DWIDTH 10 0
BBX 10 21 0 -5
BITMAP
0000
0000
0000
0000
0000
0000
0000
0000
0000
FF00
FF00
3300
3300
3300
3300
3300
3300
3300
3300
3300
3300
ENDCHAR
STARTCHAR SF250000
ENCODING 9559
SWIDTH 457 0
DWIDTH 10 0
BBX 10 21 0 -5
BITMAP
0000
0000
0000
0000
0000
0000
0000
FF00
FF00
0300
0300
F300
F300
3300
3300
3300
3300
3300
3300
3300
3300
ENDCHAR
STARTCHAR SF500000
ENCODING 9560
SWIDTH 457 0
DWIDTH 10 0
BBX 10 21 0 -5
BITMAP
0C00
0C00
0C00
0C00
0C00
0C00
0C00
0FC0
0FC0
0C00
0C00
0FC0
0FC0
0000
0000
0000
0000
0000
0000
0000
0000
ENDCHAR
STARTCHAR SF490000
ENCODING 9561
SWIDTH 457 0
DWIDTH 10 0
BBX 10 21 0 -5
BITMAP
3300
3300
3300
3300
3300
3300
3300
3300
3300
3FC0
3FC0
0000
0000
0000
0000
0000
0000
0000
0000
0000
0000
ENDCHAR
STARTCHAR SF380000
ENCODING 9562
SWIDTH 457 0
DWIDTH 10 0
BBX 10 21 0 -5
BITMAP
3300
3300
3300
3300
3300
3300
3300
33C0
33C0
3000
3000
3FC0
3FC0
0000
0000
0000
0000
0000
0000
0000
0000
ENDCHAR
STARTCHAR SF280000
ENCODING 9563
SWIDTH 457 0
DWIDTH 10 0
BBX 10 21 0 -5
BITMAP
0C00
0C00
0C00
0C00
0C00
0C00
0C00
FC00
FC00
0C00
0C00
FC00
FC00
0000
0000
0000
0000
0000
0000
0000
0000
ENDCHAR
STARTCHAR SF270000
ENCODING 9564
SWIDTH 457 0
DWIDTH 10 0
BBX 10 21 0 -5
BITMAP
3300
3300
3300
3300
3300
3300
3300
3300
3300
FF00
FF00
0000
0000
0000
0000
0000
0000
0000
0000
0000
0000
ENDCHAR
STARTCHAR SF260000
ENCODING 9565
SWIDTH 457 0
DWIDTH 10 0
BBX 10 21 0 -5
BITMAP
3300
3300
3300
3300
3300
3300
3300
F300
F300
0300
0300
FF00
FF00
0000
0000
0000
0000
0000
0000
0000
0000
ENDCHAR
STARTCHAR SF360000
ENCODING 9566
SWIDTH 457 0
DWIDTH 10 0
BBX 10 21 0 -5
BITMAP
0C00
0C00
0C00
0C00
0C00
0C00
0C00
0FC0
0FC0
0C00
0C00
0FC0
0FC0
0C00
0C00
0C00
0C00
0C00
0C00
0C00
0C00
ENDCHAR
STARTCHAR SF370000
ENCODING 9567
SWIDTH 457 0
DWIDTH 10 0
BBX 10 21 0 -5
BITMAP
3300
3300
3300
3300
3300
3300
3300
3300
3300
33C0
33C0
3300
3300
3300
3300
3300
3300
3300
3300
3300
3300
ENDCHAR
STARTCHAR SF420000
ENCODING 9568
SWIDTH 457 0
DWIDTH 10 0
BBX 10 21 0 -5
BITMAP
3300
3300
3300
3300
3300
3300
3300
33C0
33C0
3000
3000
33C0
33C0
3300
3300
3300
3300
3300
3300
3300
3300
ENDCHAR
STARTCHAR SF190000
ENCODING 9569
SWIDTH 457 0
DWIDTH 10 0
BBX 10 21 0 -5
BITMAP
0C00
0C00
0C00
0C00
0C00
0C00
0C00
FC00
FC00
0C00
0C00
FC00
FC00
0C00
0C00
0C00
0C00
0C00
0C00
0C00
0C00
ENDCHAR
STARTCHAR SF200000
ENCODING 9570
SWIDTH 457 0
DWIDTH 10 0
BBX 10 21 0 -5
BITMAP
3300
3300
3300
3300
3300
3300
3300
3300
3300
F300
F300
3300
3300
3300
3300
3300
3300
3300
3300
3300
3300
ENDCHAR
STARTCHAR SF230000
ENCODING 9571
SWIDTH 457 0
DWIDTH 10 0
BBX 10 21 0 -5
BITMAP
3300
3300
3300
3300
3300
3300
3300
F300
F300
0300
0300
F300
F300
3300
3300
3300
3300
3300
3300
3300
3300
ENDCHAR
STARTCHAR SF470000
ENCODING 9572
SWIDTH 457 0
DWIDTH 10 0
BBX 10 21 0 -5
BITMAP
0000
0000
0000
0000
0000
0000
0000
FFC0
FFC0
0000
0000
FFC0
FFC0
0C00
0C00
0C00
0C00
0C00
0C00
0C00
0C00
ENDCHAR
STARTCHAR SF480000
ENCODING 9573
SWIDTH 457 0
DWIDTH 10 0
BBX 10 21 0 -5
BITMAP
0000
0000
0000
0000
0000
0000
0000
0000
0000
FFC0
FFC0
3300
3300
3300
3300
3300
3300
3300
3300
3300
3300
ENDCHAR
STARTCHAR SF410000
ENCODING 9574
SWIDTH 457 0
DWIDTH 10 0
BBX 10 21 0 -5
BITMAP
0000
0000
0000
0000
0000
0000
0000
FFC0
FFC0
0000
0000
F3C0
F3C0
3300
3300
3300
3300
3300
3300
3300
3300
ENDCHAR
STARTCHAR SF450000
ENCODING 9575
SWIDTH 457 0
DWIDTH 10 0
BBX 10 21 0 -5
BITMAP
0C00
0C00
0C00
0C00
0C00
0C00
0C00
FFC0
FFC0
0000
0000
FFC0
FFC0
0000
0000
0000
0000
0000
0000
0000
0000
ENDCHAR
STARTCHAR SF460000
ENCODING 9576
SWIDTH 457 0
DWIDTH 10 0
BBX 10 21 0 -5
BITMAP
3300
3300
3300
3300
3300
3300
3300
3300
3300
FFC0
FFC0
0000
0000
0000
0000
0000
0000
0000
0000
0000
0000
ENDCHAR
STARTCHAR SF400000
ENCODING 9577
SWIDTH 457 0
DWIDTH 10 0
BBX 10 21 0 -5
BITMAP
3300
3300
3300
3300
3300
3300
3300
F3C0
F3C0
0000
0000
FFC0
FFC0
0000
0000
0000
0000
0000
0000
0000
0000
ENDCHAR
STARTCHAR SF540000
ENCODING 9578
SWIDTH 457 0
DWIDTH 10 0
BBX 10 21 0 -5
BITMAP
0C00
0C00
0C00
0C00
0C00
0C00
0C00
FFC0
FFC0
0C00
0C00
FFC0
FFC0
0C00
0C00
0C00
0C00
0C00
0C00
0C00
0C00
ENDCHAR
STARTCHAR SF530000
ENCODING 9579
SWIDTH 457 0
DWIDTH 10 0
BBX 10 21 0 -5
BITMAP
3300
3300
3300
3300
3300
3300
3300
3300
3300
FFC0
FFC0
3300
3300
3300
3300
3300
3300
3300
3300
3300
3300
ENDCHAR
STARTCHAR SF440000
ENCODING 9580
SWIDTH 457 0
DWIDTH 10 0
BBX 10 21 0 -5
BITMAP
3300
3300
3300
3300
3300
3300
3300
F3C0
F3C0
0000
0000
F3C0
F3C0
3300
3300
3300
3300
3300
3300
3300
3300
ENDCHAR
STARTCHAR upblock
ENCODING 9600
SWIDTH 457 0
DWIDTH 10 0
BBX 10 21 0 -5
BITMAP
FFC0
FFC0
FFC0
FFC0
FFC0
FFC0
FFC0
FFC0
FFC0
FFC0
0000
0000
0000
0000
0000
0000
0000
0000
0000
0000
0000
ENDCHAR
STARTCHAR uni2585
ENCODING 9605
SWIDTH 457 0
DWIDTH 10 0
BBX 10 21 0 -5
BITMAP
0000
0000
0000
0000
0000
0000
0000
0000
0000
0000
FFC0
FFC0
FFC0
FFC0
FFC0
FFC0
FFC0
FFC0
FFC0
FFC0
FFC0
ENDCHAR
STARTCHAR block
ENCODING 9608
SWIDTH 457 0
DWIDTH 10 0
BBX 10 21 0 -5
BITMAP
FFC0
FFC0
FFC0
FFC0
FFC0
FFC0
FFC0
FFC0
FFC0
FFC0
FFC0
FFC0
FFC0
FFC0
FFC0
FFC0
FFC0
FFC0
FFC0
FFC0
FFC0
ENDCHAR
STARTCHAR lfblock
ENCODING 9612
SWIDTH 457 0
DWIDTH 10 0
BBX 10 21 0 -5
BITMAP
F800
F800
F800
F800
F800
F800
F800
F800
F800
F800
F800
F800
F800
F800
F800
F800
F800
F800
F800
F800
F800
ENDCHAR
STARTCHAR rtblock
ENCODING 9616
SWIDTH 457 0
DWIDTH 10 0
BBX 10 21 0 -5
BITMAP
07C0
07C0
07C0
07C0
07C0
07C0
07C0
07C0
07C0
07C0
07C0
07C0
07C0
07C0
07C0
07C0
07C0
07C0
07C0
07C0
07C0
ENDCHAR
STARTCHAR ltshade
ENCODING 9617
SWIDTH 457 0
DWIDTH 10 0
BBX 10 21 0 -5
BITMAP
2200
8880
2200
8880
2200
8880
2200
8880
2200
8880
2200
8880
2200
8880
2200
8880
2200
8880
2200
8880
2200
ENDCHAR
STARTCHAR shade
ENCODING 9618
SWIDTH 457 0
DWIDTH 10 0
BBX 10 21 0 -5
BITMAP
5540
AA80
5540
AA80
5540
AA80
5540
AA80
5540
AA80
5540
AA80
5540
AA80
5540
AA80
5540
AA80
5540
AA80
5540
ENDCHAR
STARTCHAR dkshade
ENCODING 9619
SWIDTH 457 0
DWIDTH 10 0
BBX 10 21 0 -5
BITMAP
7740
DDC0
7740
DDC0
7740
DDC0
7740
DDC0
7740
DDC0
7740
DDC0
7740
DDC0
7740
DDC0
7740
DDC0
7740
DDC0
7740
ENDCHAR
STARTCHAR filledbox
ENCODING 9632
SWIDTH 457 0
DWIDTH 10 0
BBX 10 21 0 -5
BITMAP
0000
0000
0000
0000
0000
0000
3F00
3F00
3F00
3F00
3F00
3F00
0000
0000
0000
0000
0000
0000
0000
0000
0000
ENDCHAR
STARTCHAR H22073
ENCODING 9633
SWIDTH 457 0
DWIDTH 10 0
BBX 10 21 0 -5
BITMAP
0000
0000
0000
7F80
4080
4080
4080
4080
4080
4080
4080
4080
4080
4080
4080
7F80
0000
0000
0000
0000
0000
ENDCHAR
STARTCHAR filledrect
ENCODING 9644
SWIDTH 457 0
DWIDTH 10 0
BBX 10 21 0 -5
BITMAP
0000
0000
0000
0000
0000
0000
0000
7F80
7F80
7F80
7F80
0000
0000
0000
0000
0000
0000
0000
0000
0000
0000
ENDCHAR
STARTCHAR triagup
ENCODING 9650
SWIDTH 457 0
DWIDTH 10 0
BBX 10 21 0 -5
BITMAP
0000
0000
0000
0000
0000
0C00
0C00
1E00
1E00
3F00
3F00
7F80
7F80
0000
0000
0000
0000
0000
0000
0000
0000
ENDCHAR
STARTCHAR triagrt
ENCODING 9658
SWIDTH 457 0
DWIDTH 10 0
BBX 10 21 0 -5
BITMAP
0000
0000
0000
0000
2000
3000
3800
3C00
3E00
3F00
3E00
3C00
3800
3000
2000
0000
0000
0000
0000
0000
0000
ENDCHAR
STARTCHAR triagdn
ENCODING 9660
SWIDTH 457 0
DWIDTH 10 0
BBX 10 21 0 -5
BITMAP
0000
0000
0000
0000
0000
7F80
7F80
3F00
3F00
1E00
1E00
0C00
0C00
0000
0000
0000
0000
0000
0000
0000
0000
ENDCHAR
STARTCHAR triaglf
ENCODING 9668
SWIDTH 457 0
DWIDTH 10 0
BBX 10 21 0 -5
BITMAP
0000
0000
0000
0000
0100
0300
0700
0F00
1F00
3F00
1F00
0F00
0700
0300
0100
0000
0000
0000
0000
0000
0000
ENDCHAR
STARTCHAR circle
ENCODING 9675
SWIDTH 457 0
DWIDTH 10 0
BBX 10 21 0 -5
BITMAP
0000
0000
0000
0000
0000
1E00
2100
4080
4080
4080
4080
4080
2100
1E00
0000
0000
0000
0000
0000
0000
0000
ENDCHAR
STARTCHAR H18533
ENCODING 9679
SWIDTH 457 0
DWIDTH 10 0
BBX 10 21 0 -5
BITMAP
0000
0000
0000
0000
0000
0C00
3F00
3F00
7F80
7F80
7F80
3F00
3F00
0C00
0000
0000
0000
0000
0000
0000
0000
ENDCHAR
STARTCHAR invbullet
ENCODING 9688
SWIDTH 457 0
DWIDTH 10 0
BBX 10 21 0 -5
BITMAP
FFC0
FFC0
FFC0
FFC0
FFC0
F3C0
C0C0
C0C0
8040
8040
8040
C0C0
C0C0
F3C0
FFC0
FFC0
FFC0
FFC0
FFC0
FFC0
FFC0
ENDCHAR
STARTCHAR invcircle
ENCODING 9689
SWIDTH 457 0
DWIDTH 10 0
BBX 10 21 0 -5
BITMAP
FFC0
FFC0
FFC0
FFC0
FFC0
E1C0
DEC0
BF40
BF40
BF40
BF40
BF40
DEC0
E1C0
FFC0
FFC0
FFC0
FFC0
FFC0
FFC0
FFC0
ENDCHAR
STARTCHAR smileface
ENCODING 9786
SWIDTH 457 0
DWIDTH 10 0
BBX 10 21 0 -5
BITMAP
0000
0000
0000
0000
1E00
2100
4080
5280
5280
4080
4080
5280
5E80
4080
2100
1E00
0000
0000
0000
0000
0000
ENDCHAR
STARTCHAR invsmileface
ENCODING 9787
SWIDTH 457 0
DWIDTH 10 0
BBX 10 21 0 -5
BITMAP
0000
0000
0000
0000
1E00
3F00
7F80
6D80
7F80
7F80
7F80
5E80
6180
7F80
3F00
1E00
0000
0000
0000
0000
0000
ENDCHAR
STARTCHAR sun
ENCODING 9788
SWIDTH 457 0
DWIDTH 10 0
BBX 10 21 0 -5
BITMAP
0000
0000
0000
0000
4C80
6D80
3F00
3300
2100
6180
6180
2100
3300
7F80
4C80
0C00
0000
0000
0000
0000
0000
ENDCHAR
STARTCHAR female
ENCODING 9792
SWIDTH 457 0
DWIDTH 10 0
BBX 10 21 0 -5
BITMAP
0000
0000
0000
1E00
3300
2100
6180
6180
2100
3300
1E00
0C00
0C00
3F00
0C00
0C00
0000
0000
0000
0000
0000
ENDCHAR
STARTCHAR male
ENCODING 9794
SWIDTH 457 0
DWIDTH 10 0
BBX 10 21 0 -5
BITMAP
0000
0000
0000
0300
0F00
0380
0280
0600
1E00
3300
2100
6180
6180
2100
3300
1E00
0000
0000
0000
0000
0000
ENDCHAR
STARTCHAR spade
ENCODING 9824
SWIDTH 457 0
DWIDTH 10 0
BBX 10 21 0 -5
BITMAP
0000
0000
0000
0000
0C00
0C00
1E00
3F00
7F80
7F80
7F80
6D80
0C00
0C00
1E00
0000
0000
0000
0000
0000
0000
ENDCHAR
STARTCHAR uni2662
ENCODING 9826
SWIDTH 457 0
DWIDTH 10 0
BBX 10 21 0 -5
BITMAP
0000
0000
0000
0000
0C00
1E00
1E00
3300
3300
6180
6180
3300
3300
1E00
1E00
0C00
0000
0000
0000
0000
0000
ENDCHAR
STARTCHAR club
ENCODING 9827
SWIDTH 457 0
DWIDTH 10 0
BBX 10 21 0 -5
BITMAP
0000
0000
0000
0000
1E00
1E00
1E00
0C00
6D80
7F80
7F80
6D80
0C00
0C00
3F00
0000
0000
0000
0000
0000
0000
ENDCHAR
STARTCHAR heart
ENCODING 9829
SWIDTH 457 0
DWIDTH 10 0
BBX 10 21 0 -5
BITMAP
0000
0000
0000
0000
0000
3300
7380
7F80
7F80
7F80
7F80
3F00
1E00
0C00
0C00
0000
0000
0000
0000
0000
0000
ENDCHAR
STARTCHAR diamond
ENCODING 9830
SWIDTH 457 0
DWIDTH 10 0
BBX 10 21 0 -5
BITMAP
0000
0000
0000
0000
0400
0E00
0E00
1F00
1F00
3F80
3F80
1F00
1F00
0E00
0E00
0400
0000
0000
0000
0000
0000
ENDCHAR
STARTCHAR musicalnote
ENCODING 9834
SWIDTH 457 0
DWIDTH 10 0
BBX 10 21 0 -5
BITMAP
0000
0000
0000
0C00
0E00
0F00
0D80
0C00
0C00
0C00
0C00
0C00
1C00
3C00
3800
3000
0000
0000
0000
0000
0000
ENDCHAR
STARTCHAR musicalnotedbl
ENCODING 9835
SWIDTH 457 0
DWIDTH 10 0
BBX 10 21 0 -5
BITMAP
0000
0000
0000
1800
1E00
1F80
1B80
1980
1980
1980
1980
1980
3980
7980
7380
0780
0700
0000
0000
0000
0000
ENDCHAR
STARTCHAR uniFB01
ENCODING 64257
SWIDTH 457 0
DWIDTH 10 0
BBX 10 21 0 -5
BITMAP
0000
0000
0F00
1F00
1800
1800
7F80
7F80
1980
1980
1980
1980
1980
1980
1980
1980
0000
0000
0000
0000
0000
ENDCHAR
STARTCHAR uniFB02
ENCODING 64258
SWIDTH 457 0
DWIDTH 10 0
BBX 10 21 0 -5
BITMAP
0000
0000
0D80
1D80
1980
1980
7F80
7F80
1980
1980
1980
1980
1980
1980
1980
1980
0000
0000
0000
0000
0000
ENDCHAR
STARTCHAR uniFE7C
ENCODING 65148
SWIDTH 457 0
DWIDTH 10 0
BBX 10 21 0 -5
BITMAP
0000
0000
0000
2A00
2A00
1400
0000
0000
0000
0000
0000
0000
0000
0000
0000
0000
0000
0000
0000
0000
0000
ENDCHAR
STARTCHAR uniFE7D
ENCODING 65149
SWIDTH 457 0
DWIDTH 10 0
BBX 10 21 0 -5
BITMAP
0000
0000
0000
2A00
2A00
1400
0000
0000
0000
0000
0000
FFC0
FFC0
0000
0000
0000
0000
0000
0000
0000
0000
ENDCHAR
STARTCHAR uniFE80
ENCODING 65152
SWIDTH 457 0
DWIDTH 10 0
BBX 10 21 0 -5
BITMAP
0000
0000
0000
0000
0000
0000
0000
1C00
3C00
3000
1E00
7C00
3000
0000
0000
0000
0000
0000
0000
0000
0000
ENDCHAR
STARTCHAR uniFE81
ENCODING 65153
SWIDTH 457 0
DWIDTH 10 0
BBX 10 21 0 -5
BITMAP
1900
2E00
0000
0C00
0C00
0C00
0C00
0C00
0C00
0C00
0C00
0C00
0C00
0000
0000
0000
0000
0000
0000
0000
0000
ENDCHAR
STARTCHAR uniFE82
ENCODING 65154
SWIDTH 457 0
DWIDTH 10 0
BBX 10 21 0 -5
BITMAP
3200
5C00
0000
1800
1800
1800
1800
1800
1800
1800
1800
1FC0
0FC0
0000
0000
0000
0000
0000
0000
0000
0000
ENDCHAR
STARTCHAR uniFE83
ENCODING 65155
SWIDTH 457 0
DWIDTH 10 0
BBX 10 21 0 -5
BITMAP
0C00
1000
1C00
3800
0C00
0C00
0C00
0C00
0C00
0C00
0C00
0C00
0C00
0000
0000
0000
0000
0000
0000
0000
0000
ENDCHAR
STARTCHAR uniFE84
ENCODING 65156
SWIDTH 457 0
DWIDTH 10 0
BBX 10 21 0 -5
BITMAP
1C00
2000
3C00
7000
1800
1800
1800
1800
1800
1800
1800
1FC0
0FC0
0000
0000
0000
0000
0000
0000
0000
0000
ENDCHAR
STARTCHAR uniFE85
ENCODING 65157
SWIDTH 457 0
DWIDTH 10 0
BBX 10 21 0 -5
BITMAP
0000
0000
0000
0E00
1000
1E00
3C00
0000
0380
07C0
06C0
07C0
03C0
00C0
00C0
01C0
7F80
3F00
0000
0000
0000
ENDCHAR
STARTCHAR uniFE8B
ENCODING 65163
SWIDTH 457 0
DWIDTH 10 0
BBX 10 21 0 -5
BITMAP
0000
0000
0000
0C00
1000
1C00
3800
00C0
00C0
00C0
00C0
FFC0
FF80
0000
0000
0000
0000
0000
0000
0000
0000
ENDCHAR
STARTCHAR uniFE8D
ENCODING 65165
SWIDTH 457 0
DWIDTH 10 0
BBX 10 21 0 -5
BITMAP
0000
0000
0C00
0C00
0C00
0C00
0C00
0C00
0C00
0C00
0C00
0C00
0C00
0000
0000
0000
0000
0000
0000
0000
0000
ENDCHAR
STARTCHAR uniFE8E
ENCODING 65166
SWIDTH 457 0
DWIDTH 10 0
BBX 10 21 0 -5
BITMAP
0000
0000
1800
1800
1800
1800
1800
1800
1800
1800
1800
1FC0
0FC0
0000
0000
0000
0000
0000
0000
0000
0000
ENDCHAR
STARTCHAR uniFE8F
ENCODING 65167
SWIDTH 457 0
DWIDTH 10 0
BBX 10 21 0 -5
BITMAP
0000
0000
0000
0000
0000
0000
0000
C0C0
C0C0
C0C0
C0C0
FFC0
7F80
0000
0C00
0C00
0000
0000
0000
0000
0000
ENDCHAR
STARTCHAR uniFE91
ENCODING 65169
SWIDTH 457 0
DWIDTH 10 0
BBX 10 21 0 -5
BITMAP
0000
0000
0000
0000
0000
0000
0000
00C0
00C0
00C0
00C0
FFC0
FF80
0000
0600
0600
0000
0000
0000
0000
0000
ENDCHAR
STARTCHAR uniFE93
ENCODING 65171
SWIDTH 457 0
DWIDTH 10 0
BBX 10 21 0 -5
BITMAP
0000
0000
0D80
0D80
0040
03C0
07C0
0CC0
0CC0
0CC0
0CC0
0FC0
0740
0000
0000
0000
0000
0000
0000
0000
0000
ENDCHAR
STARTCHAR uniFE95
ENCODING 65173
SWIDTH 457 0
DWIDTH 10 0
BBX 10 21 0 -5
BITMAP
0000
0000
0000
0000
0000
3300
3300
C0C0
C0C0
C0C0
C0C0
FFC0
7F80
0000
0000
0000
0000
0000
0000
0000
0000
ENDCHAR
STARTCHAR uniFE97
ENCODING 65175
SWIDTH 457 0
DWIDTH 10 0
BBX 10 21 0 -5
BITMAP
0000
0000
0000
0000
0000
3600
3600
00C0
00C0
00C0
00C0
FFC0
FF80
0000
0000
0000
0000
0000
0000
0000
0000
ENDCHAR
STARTCHAR uniFE99
ENCODING 65177
SWIDTH 457 0
DWIDTH 10 0
BBX 10 21 0 -5
BITMAP
0000
0000
0000
0C00
0C00
3300
3300
C0C0
C0C0
C0C0
C0C0
FFC0
7F80
0000
0000
0000
0000
0000
0000
0000
0000
ENDCHAR
STARTCHAR uniFE9B
ENCODING 65179
SWIDTH 457 0
DWIDTH 10 0
BBX 10 21 0 -5
BITMAP
0000
0000
0000
0C00
0C00
3600
3600
00C0
00C0
00C0
00C0
FFC0
FF80
0000
0000
0000
0000
0000
0000
0000
0000
ENDCHAR
STARTCHAR uniFE9D
ENCODING 65181
SWIDTH 457 0
DWIDTH 10 0
BBX 10 21 0 -5
BITMAP
0000
0000
0000
0000
0000
0000
0000
0000
7000
FC00
DF00
8FC0
3FC0
7000
E000
C300
C300
C000
E000
7FC0
1FC0
ENDCHAR
STARTCHAR uniFE9F
ENCODING 65183
SWIDTH 457 0
DWIDTH 10 0
BBX 10 21 0 -5
BITMAP
0000
0000
0000
0000
0000
0000
0000
1E00
3F00
2380
01C0
FFC0
FF00
0000
0C00
0C00
0000
0000
0000
0000
0000
ENDCHAR
STARTCHAR uniFEA1
ENCODING 65185
SWIDTH 457 0
DWIDTH 10 0
BBX 10 21 0 -5
BITMAP
0000
0000
0000
0000
0000
0000
0000
0000
7000
FC00
DF00
8FC0
3FC0
7000
E000
C000
C000
C000
E000
7FC0
1FC0
ENDCHAR
STARTCHAR uniFEA3
ENCODING 65187
SWIDTH 457 0
DWIDTH 10 0
BBX 10 21 0 -5
BITMAP
0000
0000
0000
0000
0000
0000
0000
1E00
3F00
2380
01C0
FFC0
FF00
0000
0000
0000
0000
0000
0000
0000
0000
ENDCHAR
STARTCHAR uniFEA5
ENCODING 65189
SWIDTH 457 0
DWIDTH 10 0
BBX 10 21 0 -5
BITMAP
0000
0000
0000
0000
0000
0C00
0C00
0000
7000
FC00
DF00
8FC0
3FC0
7000
E000
C000
C000
C000
E000
7FC0
1FC0
ENDCHAR
STARTCHAR uniFEA7
ENCODING 65191
SWIDTH 457 0
DWIDTH 10 0
BBX 10 21 0 -5
BITMAP
0000
0000
0000
0000
0C00
0C00
0000
1E00
3F00
2380
01C0
FFC0
FF00
0000
0000
0000
0000
0000
0000
0000
0000
ENDCHAR
STARTCHAR uniFEA9
ENCODING 65193
SWIDTH 457 0
DWIDTH 10 0
BBX 10 21 0 -5
BITMAP
0000
0000
0000
0000
0000
0000
0100
0380
01C0
00C0
30C0
3FC0
1F80
0000
0000
0000
0000
0000
0000
0000
0000
ENDCHAR
STARTCHAR uniFEAB
ENCODING 65195
SWIDTH 457 0
DWIDTH 10 0
BBX 10 21 0 -5
BITMAP
0000
0000
0000
0300
0300
0000
0100
0380
01C0
00C0
30C0
3FC0
1F80
0000
0000
0000
0000
0000
0000
0000
0000
ENDCHAR
STARTCHAR uniFEAD
ENCODING 65197
SWIDTH 457 0
DWIDTH 10 0
BBX 10 21 0 -5
BITMAP
0000
0000
0000
0000
0000
0000
0000
0000
00C0
00C0
00C0
00C0
00C0
00C0
00C0
01C0
7F80
3F00
0000
0000
0000
ENDCHAR
STARTCHAR uniFEAF
ENCODING 65199
SWIDTH 457 0
DWIDTH 10 0
BBX 10 21 0 -5
BITMAP
0000
0000
0000
0000
00C0
00C0
0000
0000
00C0
00C0
00C0
00C0
00C0
00C0
00C0
01C0
7F80
3F00
0000
0000
0000
ENDCHAR
STARTCHAR uniFEB1
ENCODING 65201
SWIDTH 457 0
DWIDTH 10 0
BBX 10 21 0 -5
BITMAP
0000
0000
0000
0000
0000
0000
0000
0000
00C0
66C0
66C0
7FC0
7980
6000
6000
E000
C000
0000
0000
0000
0000
ENDCHAR
STARTCHAR uniFEB3
ENCODING 65203
SWIDTH 457 0
DWIDTH 10 0
BBX 10 21 0 -5
BITMAP
0000
0000
0000
0000
0000
0000
0000
00C0
66C0
66C0
FFC0
FFC0
D980
0000
0000
0000
0000
0000
0000
0000
0000
ENDCHAR
STARTCHAR uniFEB5
ENCODING 65205
SWIDTH 457 0
DWIDTH 10 0
BBX 10 21 0 -5
BITMAP
0000
0000
0000
0600
0600
1980
1980
0000
00C0
66C0
66C0
7FC0
7980
6000
6000
E000
C000
0000
0000
0000
0000
ENDCHAR
STARTCHAR uniFEB7
ENCODING 65207
SWIDTH 457 0
DWIDTH 10 0
BBX 10 21 0 -5
BITMAP
0000
0000
0C00
0C00
3300
3300
0000
00C0
66C0
66C0
FFC0
FFC0
D980
0000
0000
0000
0000
0000
0000
0000
0000
ENDCHAR
STARTCHAR uniFEB9
ENCODING 65209
SWIDTH 457 0
DWIDTH 10 0
BBX 10 21 0 -5
BITMAP
0000
0000
0000
0000
0000
0000
0000
0380
07C0
CEC0
DCC0
FFC0
FF80
6000
6000
E000
C000
0000
0000
0000
0000
ENDCHAR
STARTCHAR uniFEBB
ENCODING 65211
SWIDTH 457 0
DWIDTH 10 0
BBX 10 21 0 -5
BITMAP
0000
0000
0000
0000
0000
0000
0000
0380
67C0
6EC0
7CC0
FFC0
DF80
0000
0000
0000
0000
0000
0000
0000
0000
ENDCHAR
STARTCHAR uniFEBD
ENCODING 65213
SWIDTH 457 0
DWIDTH 10 0
BBX 10 21 0 -5
BITMAP
0000
0000
0000
0000
0600
0600
0000
0380
07C0
CEC0
DCC0
FFC0
FF80
6000
6000
E000
C000
0000
0000
0000
0000
ENDCHAR
STARTCHAR uniFEBF
ENCODING 65215
SWIDTH 457 0
DWIDTH 10 0
BBX 10 21 0 -5
BITMAP
0000
0000
0000
0000
0C00
0C00
0000
0380
67C0
6EC0
7CC0
FFC0
DF80
0000
0000
0000
0000
0000
0000
0000
0000
ENDCHAR
STARTCHAR uniFEC1
ENCODING 65217
SWIDTH 457 0
DWIDTH 10 0
BBX 10 21 0 -5
BITMAP
0000
0000
3000
3000
3000
3000
3000
3380
37C0
3EC0
3CC0
FFC0
FF80
0000
0000
0000
0000
0000
0000
0000
0000
ENDCHAR
STARTCHAR uniFEC5
ENCODING 65221
SWIDTH 457 0
DWIDTH 10 0
BBX 10 21 0 -5
BITMAP
0000
0000
3000
3600
3600
3000
3000
3380
37C0
3EC0
3CC0
FFC0
FF80
0000
0000
0000
0000
0000
0000
0000
0000
ENDCHAR
STARTCHAR uniFEC9
ENCODING 65225
SWIDTH 457 0
DWIDTH 10 0
BBX 10 21 0 -5
BITMAP
0000
0000
0000
0000
0000
0000
0E00
1F00
3B00
3000
3800
1F80
3F80
7000
6000
C000
C000
C000
E000
7FC0
3FC0
ENDCHAR
STARTCHAR uniFECA
ENCODING 65226
SWIDTH 457 0
DWIDTH 10 0
BBX 10 21 0 -5
BITMAP
0000
0000
0000
0000
0000
0000
0000
7C00
FE00
EE00
BC00
3FC0
73C0
6000
E000
C000
C000
C000
E000
7F80
3F80
ENDCHAR
STARTCHAR uniFECB
ENCODING 65227
SWIDTH 457 0
DWIDTH 10 0
BBX 10 21 0 -5
BITMAP
0000
0000
0000
0000
0000
0000
0700
0F80
1D80
1800
1C00
FFC0
FFC0
0000
0000
0000
0000
0000
0000
0000
0000
ENDCHAR
STARTCHAR uniFECC
ENCODING 65228
SWIDTH 457 0
DWIDTH 10 0
BBX 10 21 0 -5
BITMAP
0000
0000
0000
0000
0000
0000
0000
1F00
3F80
3B80
0E00
FFC0
F3C0
0000
0000
0000
0000
0000
0000
0000
0000
ENDCHAR
STARTCHAR uniFECD
ENCODING 65229
SWIDTH 457 0
DWIDTH 10 0
BBX 10 21 0 -5
BITMAP
0000
0000
0C00
0C00
0000
0000
0E00
1F00
3B00
3000
3800
1F80
3F80
7000
6000
C000
C000
C000
E000
7FC0
3FC0
ENDCHAR
STARTCHAR uniFECE
ENCODING 65230
SWIDTH 457 0
DWIDTH 10 0
BBX 10 21 0 -5
BITMAP
0000
0000
0000
3000
3000
0000
0000
7C00
FE00
EE00
BC00
3FC0
73C0
6000
E000
C000
C000
C000
E000
7F80
3F80
ENDCHAR
STARTCHAR uniFECF
ENCODING 65231
SWIDTH 457 0
DWIDTH 10 0
BBX 10 21 0 -5
BITMAP
0000
0000
0000
0600
0600
0000
0700
0F80
1D80
1800
1C00
FFC0
FFC0
0000
0000
0000
0000
0000
0000
0000
0000
ENDCHAR
STARTCHAR uniFED0
ENCODING 65232
SWIDTH 457 0
DWIDTH 10 0
BBX 10 21 0 -5
BITMAP
0000
0000
0000
0C00
0C00
0000
0000
1F00
3F80
3B80
0E00
FFC0
F3C0
0000
0000
0000
0000
0000
0000
0000
0000
ENDCHAR
STARTCHAR uniFED1
ENCODING 65233
SWIDTH 457 0
DWIDTH 10 0
BBX 10 21 0 -5
BITMAP
0000
0000
0000
0000
0300
0300
0000
0380
C7C0
C6C0
C3C0
FFC0
7F80
0000
0000
0000
0000
0000
0000
0000
0000
ENDCHAR
STARTCHAR uniFED3
ENCODING 65235
SWIDTH 457 0
DWIDTH 10 0
BBX 10 21 0 -5
BITMAP
0000
0000
0000
0000
0300
0300
0000
0380
07C0
06C0
03C0
FFC0
FF80
0000
0000
0000
0000
0000
0000
0000
0000
ENDCHAR
STARTCHAR uniFED5
ENCODING 65237
SWIDTH 457 0
DWIDTH 10 0
BBX 10 21 0 -5
BITMAP
0000
0000
0000
0000
0000
0D80
0D80
0000
0380
07C0
06C0
67C0
63C0
60C0
60C0
71C0
3F80
1F00
0000
0000
0000
ENDCHAR
STARTCHAR uniFED7
ENCODING 65239
SWIDTH 457 0
DWIDTH 10 0
BBX 10 21 0 -5
BITMAP
0000
0000
0000
0000
0D80
0D80
0000
0380
07C0
06C0
03C0
FFC0
FF80
0000
0000
0000
0000
0000
0000
0000
0000
ENDCHAR
STARTCHAR uniFED9
ENCODING 65241
SWIDTH 457 0
DWIDTH 10 0
BBX 10 21 0 -5
BITMAP
0000
0000
00C0
18C0
20C0
38C0
70C0
00C0
C0C0
C0C0
C0C0
FFC0
7F80
0000
0000
0000
0000
0000
0000
0000
0000
ENDCHAR
STARTCHAR uniFEDB
ENCODING 65243
SWIDTH 457 0
DWIDTH 10 0
BBX 10 21 0 -5
BITMAP
0000
0000
0000
0380
0F00
1C00
3C00
3600
0300
0180
00C0
FFC0
FF80
0000
0000
0000
0000
0000
0000
0000
0000
ENDCHAR
STARTCHAR uniFEDD
ENCODING 65245
SWIDTH 457 0
DWIDTH 10 0
BBX 10 21 0 -5
BITMAP
0000
0000
00C0
00C0
00C0
00C0
00C0
00C0
00C0
00C0
60C0
60C0
60C0
60C0
60C0
71C0
3F80
1F00
0000
0000
0000
ENDCHAR
STARTCHAR uniFEDF
ENCODING 65247
SWIDTH 457 0
DWIDTH 10 0
BBX 10 21 0 -5
BITMAP
0000
0000
0000
00C0
00C0
00C0
00C0
00C0
00C0
00C0
00C0
FFC0
FF80
0000
0000
0000
0000
0000
0000
0000
0000
ENDCHAR
STARTCHAR uniFEE1
ENCODING 65249
SWIDTH 457 0
DWIDTH 10 0
BBX 10 21 0 -5
BITMAP
0000
0000
0000
0000
0000
0000
0000
0380
07C0
06C0
06C0
1FC0
3F80
3000
3000
3000
3000
3000
3000
2000
0000
ENDCHAR
STARTCHAR uniFEE3
ENCODING 65251
SWIDTH 457 0
DWIDTH 10 0
BBX 10 21 0 -5
BITMAP
0000
0000
0000
0000
0000
0000
0000
0000
0380
07C0
06C0
FEC0
FFC0
0380
0000
0000
0000
0000
0000
0000
0000
ENDCHAR
STARTCHAR uniFEE5
ENCODING 65253
SWIDTH 457 0
DWIDTH 10 0
BBX 10 21 0 -5
BITMAP
0000
0000
0000
0000
0000
0000
0000
0C00
0CC0
00C0
60C0
60C0
60C0
60C0
60C0
71C0
3F80
1F00
0000
0000
0000
ENDCHAR
STARTCHAR uniFEE7
ENCODING 65255
SWIDTH 457 0
DWIDTH 10 0
BBX 10 21 0 -5
BITMAP
0000
0000
0000
0000
0000
0600
0600
00C0
00C0
00C0
00C0
FFC0
FF80
0000
0000
0000
0000
0000
0000
0000
0000
ENDCHAR
STARTCHAR uniFEE9
ENCODING 65257
SWIDTH 457 0
DWIDTH 10 0
BBX 10 21 0 -5
BITMAP
0000
0000
0000
0000
0040
03C0
07C0
0CC0
0CC0
0CC0
0CC0
0FC0
0740
0000
0000
0000
0000
0000
0000
0000
0000
ENDCHAR
STARTCHAR uniFEEB
ENCODING 65259
SWIDTH 457 0
DWIDTH 10 0
BBX 10 21 0 -5
BITMAP
0000
0000
0000
0000
0000
0000
0F80
0FC0
00C0
0EC0
0AC0
FFC0
FB80
0000
0000
0000
0000
0000
0000
0000
0000
ENDCHAR
STARTCHAR uniFEEC
ENCODING 65260
SWIDTH 457 0
DWIDTH 10 0
BBX 10 21 0 -5
BITMAP
0000
0000
0000
0000
0000
0000
0300
0780
0F80
1D80
1B00
FFC0
FFC0
1B00
1D80
0F80
0700
0000
0000
0000
0000
ENDCHAR
STARTCHAR uniFEED
ENCODING 65261
SWIDTH 457 0
DWIDTH 10 0
BBX 10 21 0 -5
BITMAP
0000
0000
0000
0000
0000
0000
0000
0000
0380
07C0
06C0
07C0
03C0
00C0
00C0
01C0
7F80
3F00
0000
0000
0000
ENDCHAR
STARTCHAR uniFEEF
ENCODING 65263
SWIDTH 457 0
DWIDTH 10 0
BBX 10 21 0 -5
BITMAP
0000
0000
0000
0000
0000
0FC0
1FC0
1800
1F00
CF80
C180
C180
C180
FF80
7F00
0000
0000
0000
0000
0000
0000
ENDCHAR
STARTCHAR uniFEF0
ENCODING 65264
SWIDTH 457 0
DWIDTH 10 0
BBX 10 21 0 -5
BITMAP
0000
0000
0000
0000
0000
0000
0000
0000
0000
0000
C000
C7C0
CFC0
C300
C300
C300
FF00
7E00
0000
0000
0000
ENDCHAR
STARTCHAR uniFEF1
ENCODING 65265
SWIDTH 457 0
DWIDTH 10 0
BBX 10 21 0 -5
BITMAP
0000
0000
0000
0000
0000
0FC0
1FC0
1C00
1F00
C780
C180
C180
C180
FF80
7F00
0000
6C00
6C00
0000
0000
0000
ENDCHAR
STARTCHAR uniFEF2
ENCODING 65266
SWIDTH 457 0
DWIDTH 10 0
BBX 10 21 0 -5
BITMAP
0000
0000
0000
0000
0000
0000
0000
0000
0000
0000
C000
C7C0
CFC0
C300
C300
C300
FF00
7E00
0000
3600
3600
ENDCHAR
STARTCHAR uniFEF3
ENCODING 65267
SWIDTH 457 0
DWIDTH 10 0
BBX 10 21 0 -5
BITMAP
0000
0000
0000
0000
0000
0000
0000
00C0
00C0
00C0
00C0
FFC0
FF80
0000
3300
3300
0000
0000
0000
0000
0000
ENDCHAR
STARTCHAR uniFEF5
ENCODING 65269
SWIDTH 457 0
DWIDTH 10 0
BBX 10 21 0 -5
BITMAP
3200
5C00
00C0
0CC0
0CC0
0CC0
0CC0
0CC0
0CC0
0CC0
0CC0
7FC0
7FC0
0000
0000
0000
0000
0000
0000
0000
0000
ENDCHAR
STARTCHAR uniFEF7
ENCODING 65271
SWIDTH 457 0
DWIDTH 10 0
BBX 10 21 0 -5
BITMAP
1800
2000
38C0
70C0
0CC0
0CC0
0CC0
0CC0
0CC0
0CC0
0CC0
7FC0
7FC0
0000
0000
0000
0000
0000
0000
0000
0000
ENDCHAR
STARTCHAR uniFEFB
ENCODING 65275
SWIDTH 457 0
DWIDTH 10 0
BBX 10 21 0 -5
BITMAP
0000
0000
00C0
0CC0
0CC0
0CC0
0CC0
0CC0
0CC0
0CC0
0CC0
7FC0
7FC0
0000
0000
0000
0000
0000
0000
0000
0000
ENDCHAR
ENDFONT
